<?xml version="1.0" standalone="no"?>
<!DOCTYPE svg PUBLIC "-//W3C//DTD SVG 1.1//EN" "http://www.w3.org/Graphics/SVG/1.1/DTD/svg11.dtd" >
<svg>
<metadata>
Created by FontForge 20090914 at Wed Nov  7 21:43:05 2018
 By www-data
&#239;&#190;&#169; 1992, 1994, 1997, 2000, 2004 Adobe Systems Incorporated. All rights reserved. Protected by U.S. Patents D454,582.
</metadata>
<defs>
<font id="MyriadPro-BoldCond" horiz-adv-x="300" >
  <font-face 
    font-family="Myriad Pro Cond"
    font-weight="700"
    font-stretch="condensed"
    units-per-em="1000"
    panose-1="2 11 7 6 3 4 3 2 2 4"
    ascent="750"
    descent="-250"
    x-height="489"
    cap-height="674"
    bbox="-150 -250 970 958.999"
    underline-thickness="50"
    underline-position="-50"
    unicode-range="U+0020-U+FB04"
  />
<missing-glyph horiz-adv-x="500" 
d="M50 95l170 255l-170 255v-510zM420 50l-170 255l-170 -255h340zM450 95v510l-170 -255zM420 650h-340l170 -255zM0 700h500v-700h-500v700z" />
    <glyph glyph-name="fi" unicode="fi" horiz-adv-x="489" 
d="M69 0v396.001h-66v93h66v26c0 16 3 34.5 9 55.5s17 41.167 33 60.5s38.167 35.666 66.5 48.999s64.5 20 108.5 20c23.333 0 45 -1.83301 65 -5.5s36.667 -8.5 50 -14.5l-18 -103c-11.333 4 -24.5 7.66699 -39.5 11s-32.5 5 -52.5 5c-18 0 -32.833 -2.33301 -44.5 -7
s-21 -11 -28 -19s-11.833 -17.333 -14.5 -28s-4 -21.667 -4 -33v-17h243v-489h-131v396h-112v-396h-131z" />
    <glyph glyph-name="fl" unicode="fl" horiz-adv-x="489" 
d="M69 0l-0.00195312 396h-66v93h66v18c0 9.33301 1 20 3 32s5.5 24.5 10.5 37.5s11.333 25.833 19 38.5s16.834 24 27.501 34c16.667 14.667 37.334 26.834 62.001 36.501s57 14.5 97 14.5c30.667 0 60 -2.66699 88 -8s50.667 -11.333 68 -18v-674h-131v591
c-10 4 -24.333 6 -43 6c-12.667 0 -23.5 -2.33301 -32.5 -7s-16.167 -10.834 -21.5 -18.501s-9.33301 -16.5 -12 -26.5s-4 -20.333 -4 -31v-25h72v-93h-72v-396h-131z" />
    <glyph glyph-name=".notdef" horiz-adv-x="500" 
d="M50 95l170 255l-170 255v-510zM420 50l-170 255l-170 -255h340zM450 95v510l-170 -255zM420 650h-340l170 -255zM0 700h500v-700h-500v700z" />
    <glyph glyph-name="space" unicode=" " horiz-adv-x="159" 
 />
    <glyph glyph-name="exclam" unicode="!" horiz-adv-x="236" 
d="M118 -8c-21.333 0 -39.168 7.5 -53.501 22.5s-21.5 34.167 -21.5 57.5c0 24.667 7.33301 44.334 22 59.001s32.334 22 53.001 22c21.333 0 39.166 -7.33301 53.499 -22s21.5 -34.334 21.5 -59.001c0 -23.333 -6.66699 -42.5 -20 -57.5s-31.666 -22.5 -54.999 -22.5z
M62.998 219l-16 455h143l-16 -455h-111z" />
    <glyph glyph-name="quotedbl" unicode="&#x22;" horiz-adv-x="331" 
d="M299 684l-21 -260h-64l-21 260h106zM138 684l-20 -260h-64l-21 260h105z" />
    <glyph glyph-name="numbersign" unicode="#" horiz-adv-x="426" 
d="M62 0l25 195h-72v75h82l14 115h-75v75h85l23 190h74l-23 -190h71l24 190h74l-24 -190h71v-75h-81l-14 -115h75v-75h-84l-25 -195h-75l25 195h-71l-24 -195h-75zM242 270l14 115h-71l-14 -115h71z" />
    <glyph glyph-name="dollar" unicode="$" horiz-adv-x="426" 
d="M162 -84l-0.00195312 100.996c-21.333 1.33301 -41.5 4.5 -60.5 9.5s-34.5 10.5 -46.5 16.5l20 103c14.667 -8.66699 30.5 -15.5 47.5 -20.5s35.833 -7.5 56.5 -7.5c24.667 0 43.167 6.33301 55.5 19s18.5 28.334 18.5 47.001c0 20.667 -6.33301 38.834 -19 54.501
s-32 31.5 -58 47.5c-39.333 24.667 -69.166 50 -89.499 76s-30.5 58.667 -30.5 98c0 38 10.5 71.333 31.5 100s50.5 49.667 88.5 63v102h85v-92c20 -0.666992 38.5 -3.5 55.5 -8.5s31.5 -10.833 43.5 -17.5l-22 -99c-10.667 5.33301 -22.667 10.666 -36 15.999s-30 8 -50 8
c-24 0 -42.167 -6 -54.5 -18s-18.5 -26.667 -18.5 -44c0 -8.66699 1 -16.5 3 -23.5s6 -14 12 -21s14.333 -14.5 25 -22.5s24.667 -17 42 -27c42.667 -25.333 72.334 -52.666 89.001 -81.999s25 -61.666 25 -96.999c0 -45.333 -11.667 -82.666 -35 -111.999
s-54.333 -49 -93 -59v-110h-85z" />
    <glyph glyph-name="percent" unicode="%" horiz-adv-x="657" 
d="M509 323c-14 0 -24.499 -11.333 -31.499 -34s-10.5 -54.334 -10.5 -95.001c-0.666992 -42 2.5 -74.333 9.5 -97s18.167 -34 33.5 -34s26 11.333 32 34s9 54.334 9 95.001c0 38.667 -2.83301 70.167 -8.5 94.5s-16.834 36.5 -33.501 36.5zM512.001 392
c24 0 44.1689 -6 60.502 -18s29.333 -27.5 39 -46.5s16.667 -40.167 21 -63.5s6.5 -46.333 6.5 -69c0 -34.667 -3.66699 -64.5 -11 -89.5s-17 -45.833 -29 -62.5s-25.667 -29 -41 -37s-31.333 -12 -48 -12c-22.667 0 -42.334 5.66699 -59.001 17s-30.334 26.333 -41.001 45
s-18.5 39.667 -23.5 63s-7.5 47.333 -7.5 72c0 26 2.83301 51.167 8.5 75.5s14.167 45.833 25.5 64.5s25.333 33.5 42 44.5s35.667 16.5 57 16.5zM119.003 -10l351 669h67l-350 -669h-68zM148.003 589c-14 0 -24.499 -11.333 -31.499 -34s-10.5 -54.334 -10.5 -95.001
c-0.666992 -42.667 2.5 -75.167 9.5 -97.5s18.167 -33.5 33.5 -33.5s26 11.333 32 34s9 54.334 9 95.001c0 38.667 -2.83301 70.167 -8.5 94.5s-16.834 36.5 -33.501 36.5zM151.004 658c24 0 44.1689 -6 60.502 -18s29.333 -27.5 39 -46.5s16.667 -40.167 21 -63.5
s6.5 -46.333 6.5 -69c0 -34.667 -3.66699 -64.5 -11 -89.5s-17 -45.833 -29 -62.5s-25.667 -29 -41 -37s-31.333 -12 -48 -12c-22.667 0 -42.334 5.66699 -59.001 17s-30.334 26.333 -41.001 45s-18.5 39.667 -23.5 63s-7.5 47.333 -7.5 72c0 26 2.83301 51.167 8.5 75.5
s14.167 45.833 25.5 64.5s25.333 33.5 42 44.5s35.667 16.5 57 16.5z" />
    <glyph glyph-name="ampersand" unicode="&#x26;" horiz-adv-x="530" 
d="M238 595c-15.333 0 -26.999 -7.33301 -34.999 -22s-12 -32.667 -12 -54c0 -19.333 2.66699 -36.666 8 -51.999s13.666 -31.333 24.999 -48c21.333 16.667 36.333 33.667 45 51s13 35.666 13 54.999c0 8 -0.666992 16 -2 24s-3.5 15.5 -6.5 22.5s-7.33301 12.667 -13 17
s-13.167 6.5 -22.5 6.5zM229.001 89c15.333 0 28.667 2.83203 40 8.49902s21.333 13.5 30 23.5l-28.5 37.5l-31.5 42.5l-32 45l-30 44c-9.33301 -10 -18 -22.667 -26 -38s-12 -33.666 -12 -54.999c0 -14.667 2.16699 -28.5 6.5 -41.5s10.333 -24.5 18 -34.5
s17 -17.833 28 -23.5s23.5 -8.5 37.5 -8.5zM383.002 -0.000976562l-15.001 20.502l-17 23.5c-18 -16 -39.667 -28.667 -65 -38s-52.333 -14 -81 -14c-29.333 0 -55.5 5 -78.5 15s-42.5 23.5 -58.5 40.5s-28.167 37 -36.5 60s-12.5 47.5 -12.5 73.5
c0 40.667 9.16699 76.167 27.5 106.5s44.5 56.166 78.5 77.499v3c-18 24 -30.833 48.5 -38.5 73.5s-11.5 49.167 -11.5 72.5s3.83301 45.166 11.5 65.499s18.834 38 33.501 53s32.5 27 53.5 36s44.5 13.5 70.5 13.5c43.333 0 78.833 -13.667 106.5 -41s41.5 -64 41.5 -110
c0 -15.333 -1.5 -30.333 -4.5 -45s-8.66699 -29.5 -17 -44.5s-20.166 -30.167 -35.499 -45.5s-35 -31.333 -59 -48v-4l24 -36l26.5 -39.5l26 -37.5c8.33301 -12 15.833 -22 22.5 -30c11.333 22 19 47.5 23 76.5s6.33301 56.167 7 81.5h111c-4 -46 -13.333 -90.333 -28 -133
s-33.334 -77.667 -56.001 -105l41 -52.5l53 -68.5h-143z" />
    <glyph glyph-name="quotesingle" unicode="'" horiz-adv-x="170" 
d="M138 684l-21 -260h-63l-21 260h105z" />
    <glyph glyph-name="parenleft" unicode="(" horiz-adv-x="258" 
d="M241 692c-14.667 -22.667 -28.3359 -48.001 -41.0029 -76.001s-23.834 -58.667 -33.501 -92s-17.334 -70 -23.001 -110s-8.5 -83.333 -8.5 -130c0 -45.333 2.83301 -87.5 8.5 -126.5s13.334 -75.167 23.001 -108.5s20.834 -64 33.501 -92s26.334 -53.667 41.001 -77h-94
c-14 18.667 -28 41.167 -42 67.5s-26.5 56.5 -37.5 90.5s-19.833 71.667 -26.5 113s-10 86 -10 134c1.33301 48.667 5.33301 93.667 12 135s15.334 79 26.001 113s22.834 64.333 36.501 91s27.5 49.334 41.5 68.001h94z" />
    <glyph glyph-name="parenright" unicode=")" horiz-adv-x="258" 
d="M17 -120c29.333 46 54.3369 102.832 75.0039 170.499s31 146.834 31 237.501c0 45.333 -2.83301 87.666 -8.5 126.999s-13.334 75.666 -23.001 108.999s-20.834 64 -33.501 92s-26.334 53.333 -41.001 76h94c14 -18 28 -40 42 -66s26.5 -55.667 37.5 -89
s19.833 -70.833 26.5 -112.5s10 -87.167 10 -136.5c-0.666992 -49.333 -4.5 -94.666 -11.5 -135.999s-15.833 -79 -26.5 -113s-22.834 -64.167 -36.501 -90.5s-27.5 -49.166 -41.5 -68.499h-94z" />
    <glyph glyph-name="asterisk" unicode="*" horiz-adv-x="385" 
d="M327 636l-99 -117l1 -3l141 26v-91l-141 26l-2 -3l100 -113l-84 -47l-53 144l-2 -3l-57 -142l-75 47l99 119l-2 1l-138 -29v91l137 -26l2 3l-98 115l82 47l53 -141h3l52 142z" />
    <glyph glyph-name="plus" unicode="+" horiz-adv-x="596" 
d="M340 532v-224h216v-82h-216v-226h-84v226h-216v82h216v224h84z" />
    <glyph glyph-name="comma" unicode="," horiz-adv-x="233" 
d="M10 -125c14.667 42 28.167 86.834 40.5 134.501s21.166 91.5 26.499 131.5l133 10c-7.33301 -22.667 -15.5 -45.834 -24.5 -69.501s-18.5 -47.167 -28.5 -70.5s-20.167 -45.833 -30.5 -67.5s-21.166 -41.5 -32.499 -59.5z" />
    <glyph glyph-name="hyphen" unicode="-" horiz-adv-x="259" 
d="M229 323v-94h-199v94h199z" />
    <glyph glyph-name="period" unicode="." horiz-adv-x="233" 
d="M123 -8c-20 0 -37.501 7.83301 -52.501 23.5s-22.5 36.834 -22.5 63.501c0 25.333 7.66699 46.166 23 62.499s33.333 24.5 54 24.5c21.333 0 39.333 -7.66699 54 -23s22 -36.666 22 -63.999c0 -26.667 -7.16699 -47.834 -21.5 -63.501s-33.166 -23.5 -56.499 -23.5z" />
    <glyph glyph-name="slash" unicode="/" horiz-adv-x="280" 
d="M-22 -40l235 722h85l-235 -722h-85z" />
    <glyph glyph-name="zero" unicode="0" horiz-adv-x="426" 
d="M216 546c-20.667 0 -36.168 -17.833 -46.501 -53.5s-15.166 -91.5 -14.499 -167.5c-1.33301 -76.667 3 -132.667 13 -168s26 -53 48 -53c20 0 34.167 18.167 42.5 54.5s12.5 91.833 12.5 166.5c0 70.667 -3.83301 125.167 -11.5 163.5s-22.167 57.5 -43.5 57.5z
M216.999 658c38 0 69 -10 93 -30s43 -45.667 57 -77s23.5 -66.666 28.5 -105.999s7.5 -78.333 7.5 -117c0 -58 -5 -108.167 -15 -150.5s-23.5 -77.333 -40.5 -105s-37.167 -48 -60.5 -61s-48 -19.5 -74 -19.5c-35.333 0 -65.166 9.33301 -89.499 28s-44 43.5 -59 74.5
s-25.667 66.167 -32 105.5s-9.5 80 -9.5 122c0 46.667 3.83301 90.5 11.5 131.5s19.5 76.667 35.5 107s36.167 54.166 60.5 71.499s53.166 26 86.499 26z" />
    <glyph glyph-name="one" unicode="1" horiz-adv-x="426" 
d="M179 527h-2l-110 -57l-22 103l149 77h115v-650h-130v527z" />
    <glyph glyph-name="two" unicode="2" horiz-adv-x="426" 
d="M25 0l-0.000976562 87.998l64 83l59.5 77c18.333 24.667 34.5 48.834 48.5 72.501s25 47 33 70s12 46.167 12 69.5c0 26.667 -7 48.167 -21 64.5s-34.667 24.5 -62 24.5c-20.667 0 -39.167 -3.66699 -55.5 -11s-30.166 -14.666 -41.499 -21.999l-24 101
c15.333 10 35.833 19.333 61.5 28s53.5 13 83.5 13c35.333 0 65 -5.5 89 -16.5s43.333 -25.333 58 -43s25.167 -37.667 31.5 -60s9.5 -45.166 9.5 -68.499c0 -30.667 -4.33301 -59.834 -13 -87.501s-20.167 -54.167 -34.5 -79.5s-30.5 -49.5 -48.5 -72.5l-55 -67.5l-39 -46
v-2h199v-115h-355z" />
    <glyph glyph-name="three" unicode="3" horiz-adv-x="426" 
d="M42 124c13.333 -7.33301 28.5 -13.3291 45.5 -17.9961s34.167 -7 51.5 -7c32 0 56.5 8.66699 73.5 26s25.5 40 25.5 68c0 18 -3.33301 33.5 -10 46.5s-15.5 23.667 -26.5 32s-23.833 14.5 -38.5 18.5s-30 6 -46 6h-18v96h13c12 0 24.5 1.5 37.5 4.5
s24.667 7.83301 35 14.5s19 15.167 26 25.5s10.5 23.5 10.5 39.5c0 23.333 -6.66699 41.666 -20 54.999s-31.666 20 -54.999 20c-15.333 0 -29.833 -2.33301 -43.5 -7s-26.5 -11 -38.5 -19l-18 99c13.333 8.66699 32.166 16.5 56.499 23.5s50.166 10.5 77.499 10.5
c28.667 0 53.667 -4.33301 75 -13s39.166 -20.167 53.499 -34.5s25.166 -31 32.499 -50s11 -38.833 11 -59.5c0 -32.667 -8.33301 -61.834 -25 -87.501s-39.667 -45.167 -69 -58.5v-2c32 -10.667 58.5 -29.834 79.5 -57.501s31.5 -63.5 31.5 -107.5
c0 -24.667 -4.66699 -48.834 -14 -72.501s-23.166 -44.667 -41.499 -63s-41.166 -33 -68.499 -44s-58.666 -16.5 -93.999 -16.5c-26 0 -50.167 2.83301 -72.5 8.5s-40.5 12.5 -54.5 20.5z" />
    <glyph glyph-name="four" unicode="4" horiz-adv-x="426" 
d="M234 260v133.002c0 17.333 0.833008 35.166 2.5 53.499s3.16699 36.166 4.5 53.499h-4l-21.5 -50.5l-23.5 -50.5l-69 -137v-2h111zM234 0.00195312v155h-223v90l213 405h126v-390h64v-105h-64v-155h-116z" />
    <glyph glyph-name="five" unicode="5" horiz-adv-x="426" 
d="M365 536h-172.002l-15 -117c3.33301 0.666992 6.5 1 9.5 1h9.5c7.33301 0 16 -1 26 -3s20.667 -5 32 -9s22.666 -9 33.999 -15s21.666 -13.333 30.999 -22c18 -17.333 31.833 -38.333 41.5 -63s14.5 -53.667 14.5 -87c0 -31.333 -5.16699 -61 -15.5 -89
s-25.166 -52.333 -44.499 -73s-43 -37 -71 -49s-59.667 -18 -95 -18c-23.333 0 -46.166 2.5 -68.499 7.5s-40.166 11.167 -53.499 18.5l20 103c12 -5.33301 26 -10.333 42 -15s33 -7 51 -7c32 0 57.667 9.66699 77 29s29 46.333 29 81c0 22 -3.83301 40.5 -11.5 55.5
s-18 27 -31 36s-28 15.5 -45 19.5s-34.833 6 -53.5 6h-25c-7.33301 0 -14.666 -0.666992 -21.999 -2l37 326h269v-114z" />
    <glyph glyph-name="six" unicode="6" horiz-adv-x="426" 
d="M221 87c10.667 0 19.501 3.5 26.501 10.5s12.667 16.5 17 28.5s7.5 26.333 9.5 43s3 34.667 3 54c0 14 -1.16699 27.333 -3.5 40s-6 24 -11 34s-11.333 18 -19 24s-16.834 9 -27.501 9s-20.834 -3.5 -30.501 -10.5s-17.5 -17.833 -23.5 -32.5
c-1.33301 -4 -2.66602 -10.833 -3.99902 -20.5s-2 -22.167 -2 -37.5c0 -42.667 5.66699 -77 17 -103s27.333 -39 48 -39zM355.001 552c-8 -0.666992 -16.501 -1.49414 -25.501 -2.49414s-18.5 -2.5 -28.5 -4.5c-21.333 -4.66699 -40.166 -12.334 -56.499 -23.001
s-30.5 -23.834 -42.5 -39.501s-21.833 -32.834 -29.5 -51.501s-13.5 -38.334 -17.5 -59.001h4c11.333 15.333 25.5 27.833 42.5 37.5s36.5 14.5 58.5 14.5s42 -4.66699 60 -14s33.5 -22.833 46.5 -40.5s23 -38.834 30 -63.501s10.5 -52.334 10.5 -83.001
c0 -28.667 -3.66699 -56.834 -11 -84.501s-18.666 -52.334 -33.999 -74.001s-34.666 -39.167 -57.999 -52.5s-51 -20 -83 -20c-30.667 0 -58.334 6.5 -83.001 19.5s-45.5 31.167 -62.5 54.5s-30 51.5 -39 84.5s-13.5 69.833 -13.5 110.5c0 71.333 10.167 131.5 30.5 180.5
s45.5 89.5 75.5 121.5c21.333 23.333 46.666 42.5 75.999 57.5s57.333 25.167 84 30.5c15.333 2.66699 28.5 4.33398 39.5 5.00098s19.833 1.33398 26.5 2.00098v-106z" />
    <glyph glyph-name="seven" unicode="7" horiz-adv-x="426" 
d="M393 650v-86l-204 -564h-128l199 533v2h-221v115h354z" />
    <glyph glyph-name="eight" unicode="8" horiz-adv-x="426" 
d="M217 570c-19.333 0 -33.5 -8.16699 -42.5 -24.5s-13.5 -34.5 -13.5 -54.5c0 -23.333 5.83301 -43 17.5 -59s27.167 -29 46.5 -39c14 7.33301 25 19.833 33 37.5s12 36.167 12 55.5c0 22 -4 41.5 -12 58.5s-21.667 25.5 -41 25.5zM214 80
c21.333 0 37.334 9.16699 48.001 27.5s16 41.5 16 69.5c0 30.667 -7.83301 56 -23.5 76s-32.834 34.667 -51.501 44c-16.667 -11.333 -30.167 -26.833 -40.5 -46.5s-15.5 -42.167 -15.5 -67.5c0 -28 5.66699 -52.167 17 -72.5s28 -30.5 50 -30.5zM118.001 344
c-28 18 -48.3291 39.998 -60.9961 65.998s-19 51.667 -19 77c0 26.667 4.83301 50.5 14.5 71.5s23 38.833 40 53.5s36.667 26 59 34s45.833 12 70.5 12c23.333 0 45.166 -3.83301 65.499 -11.5s38.166 -18.5 53.499 -32.5s27.333 -30.833 36 -50.5s13 -41.5 13 -65.5
c0 -10.667 -1.16699 -22.167 -3.5 -34.5s-6.83301 -24.833 -13.5 -37.5s-15.5 -25.167 -26.5 -37.5s-25.167 -23.833 -42.5 -34.5v-2c30 -16.667 54.333 -39.5 73 -68.5s28 -62.833 28 -101.5c0 -30 -5.16699 -56.833 -15.5 -80.5s-24.333 -43.5 -42 -59.5
s-38.334 -28.333 -62.001 -37s-48.834 -13 -75.501 -13c-28 0 -53.667 4.33301 -77 13s-43.333 20.667 -60 36s-29.667 33.833 -39 55.5s-14 45.834 -14 72.501c0 40.667 9.5 75.334 28.5 104.001s42.167 51.667 69.5 69v2z" />
    <glyph glyph-name="nine" unicode="9" horiz-adv-x="426" 
d="M210 563c-16.667 0 -30.666 -10.3311 -41.999 -30.998s-16.333 -51 -15 -91c0 -16 1.33301 -30.833 4 -44.5s6.5 -25.834 11.5 -36.501s11.333 -19 19 -25s16.5 -9 26.5 -9c11.333 0 21.666 3.5 30.999 10.5s15.666 14.833 18.999 23.5
c2.66699 6 4.33398 13.667 5.00098 23s1 24.666 1 45.999c0 43.333 -5.5 76.5 -16.5 99.5s-25.5 34.5 -43.5 34.5zM74.001 101.002c12.667 0 23.0059 0.336914 31.0059 1.00391s17.333 2 28 4c13.333 2.66699 26.666 7.16699 39.999 13.5s25.666 14.833 36.999 25.5
c14 13.333 26.667 31.166 38 53.499s19.666 48.166 24.999 77.499h-3c-10.667 -11.333 -23.5 -20.833 -38.5 -28.5s-33.167 -11.5 -54.5 -11.5c-20.667 0 -40.334 4.5 -59.001 13.5s-35 22 -49 39s-25 37.333 -33 61s-12 50.5 -12 80.5c0 28 4.16699 55.667 12.5 83
s20.666 51.666 36.999 72.999s36.5 38.666 60.5 51.999s51.667 20 83 20c30 0 56.667 -6.5 80 -19.5s42.666 -31.333 57.999 -55s27 -51.834 35 -84.501s12 -68.667 12 -108c0 -74 -10.333 -136.833 -31 -188.5s-46 -93.5 -76 -125.5c-20 -21.333 -43.833 -39 -71.5 -53
s-57.5 -23.667 -89.5 -29c-10 -1.33301 -20 -2.16602 -30 -2.49902s-20 -0.5 -30 -0.5v109z" />
    <glyph glyph-name="colon" unicode=":" horiz-adv-x="233" 
d="M124 -8c-20.667 0 -38.001 7.66699 -52.001 23s-21 35.333 -21 60c0 23.333 7.33301 43 22 59s32 24 52 24c21.333 0 39 -7.5 53 -22.5s21 -35.167 21 -60.5c0 -24.667 -6.66699 -44.667 -20 -60s-31.666 -23 -54.999 -23zM123.999 320
c-20.667 0 -38.001 7.66699 -52.001 23s-21 35 -21 59c0 23.333 7.33301 43.166 22 59.499s32 24.5 52 24.5c21.333 0 39 -7.66699 53 -23s21 -35.666 21 -60.999c0 -24 -6.66699 -43.667 -20 -59s-31.666 -23 -54.999 -23z" />
    <glyph glyph-name="semicolon" unicode=";" horiz-adv-x="233" 
d="M129 320c-20.667 0 -38.001 7.66699 -52.001 23s-21 35 -21 59c0 23.333 7.33301 43.166 22 59.499s32 24.5 52 24.5c21.333 0 39 -7.66699 53 -23s21 -35.666 21 -60.999c0 -24 -6.66699 -43.667 -20 -59s-31.666 -23 -54.999 -23zM10.999 -125
c14.667 42 28.168 86.834 40.501 134.501s21.166 91.5 26.499 131.5l129 10c-7.33301 -22.667 -15.333 -45.834 -24 -69.501s-18 -47.167 -28 -70.5s-20.333 -45.833 -31 -67.5s-21.667 -41.5 -33 -59.5z" />
    <glyph glyph-name="less" unicode="&#x3c;" horiz-adv-x="596" 
d="M58 297l480 235v-102l-352 -164v-2l352 -163v-101l-480 235v62z" />
    <glyph glyph-name="equal" unicode="=" horiz-adv-x="596" 
d="M40 133v82h516v-82h-516zM40 320v82h516v-82h-516z" />
    <glyph glyph-name="greater" unicode="&#x3e;" horiz-adv-x="596" 
d="M538 222l-481 -222v99l384 166v2l-384 166v99l481 -222v-88z" />
    <glyph glyph-name="question" unicode="?" horiz-adv-x="334" 
d="M143 -8c-21.333 0 -38.999 7.49805 -52.999 22.498s-21 34.167 -21 57.5c0 24.667 7.5 44.334 22.5 59.001s32.5 22.334 52.5 23.001c21.333 0 39.166 -7.5 53.499 -22.5s21.5 -34.833 21.5 -59.5c0 -23.333 -6.66699 -42.5 -20 -57.5s-31.333 -22.5 -54 -22.5h-2z
M88.001 209.998l-1.99902 19.0029c-3.33301 30 0 58.5 10 85.5s24.333 55.167 43 84.5c14.667 22 25.5 41.333 32.5 58s10.5 34.667 10.5 54c0 18.667 -5.83301 33.667 -17.5 45s-27.834 17 -48.501 17c-11.333 0 -22.5 -1.16699 -33.5 -3.5s-21.167 -6.83301 -30.5 -13.5
l-22 100c10.667 7.33301 26.667 14.166 48 20.499s44 9.5 68 9.5c33.333 0 60.833 -4.83301 82.5 -14.5s39 -22 52 -37s22.167 -31.5 27.5 -49.5s8 -35.667 8 -53s-2.16699 -33.833 -6.5 -49.5s-10 -30.834 -17 -45.501s-15 -28.834 -24 -42.501l-26.5 -39.5
c-13.333 -21.333 -23.833 -41.333 -31.5 -60s-11.5 -39.667 -11.5 -63v-22h-111z" />
    <glyph glyph-name="at" unicode="@" horiz-adv-x="621" 
d="M441 -59c-26 -15.333 -51.8369 -25.833 -77.5039 -31.5s-52.834 -8.5 -81.501 -8.5c-32 0 -63 6.33301 -93 19s-56.667 31.5 -80 56.5s-42 56.167 -56 93.5s-21 80.666 -21 129.999c0 50 7.66699 98.667 23 146s37 89.333 65 126s61.833 66 101.5 88
s83.834 33 132.501 33c40 0 75 -7.16699 105 -21.5s54.667 -33.5 74 -57.5s33.833 -51.5 43.5 -82.5s14.5 -63.5 14.5 -97.5c0 -87.333 -14.167 -154 -42.5 -200s-66.833 -69 -115.5 -69c-25.333 0 -43.833 7.33301 -55.5 22s-17.5 35.334 -17.5 62.001h-3
c-12 -26.667 -27.833 -47.334 -47.5 -62.001s-40.5 -22 -62.5 -22c-26.667 0 -47.667 10.667 -63 32s-23 50.333 -23 87c0 31.333 4.66699 61.666 14 90.999s22.833 55.333 40.5 78s39.334 40.834 65.001 54.501s54.834 20.5 87.501 20.5c16.667 0 33.5 -2 50.5 -6
s31.167 -9 42.5 -15l-34 -184c-6.66699 -36 -7.5 -62.167 -2.5 -78.5s15.167 -24.5 30.5 -24.5c20 0 38.667 16.667 56 50s26 83.333 26 150c0 32 -3.66699 61.833 -11 89.5s-18.833 51.834 -34.5 72.501s-35.667 36.834 -60 48.501s-53.5 17.5 -87.5 17.5
c-32.667 0 -64.5 -8.33301 -95.5 -25s-58.5 -40.167 -82.5 -70.5s-43.333 -66.833 -58 -109.5s-22 -90 -22 -142c0 -42.667 5.33301 -79.834 16 -111.501s25.334 -58 44.001 -79s40.834 -36.833 66.501 -47.5s53.5 -16 83.5 -16c46.667 0 90 12 130 36zM370.996 362
c-6 3.33301 -14.666 5 -25.999 5c-12 0 -23.833 -4.5 -35.5 -13.5s-22.334 -21.5 -32.001 -37.5s-17.5 -34.833 -23.5 -56.5s-9 -45.167 -9 -70.5c0 -17.333 2.83301 -30.833 8.5 -40.5s14.5 -14.5 26.5 -14.5c8 0 15.667 2.83301 23 8.5s14 13.167 20 22.5
s11.167 19.833 15.5 31.5s7.5 23.5 9.5 35.5z" />
    <glyph glyph-name="A" unicode="A" horiz-adv-x="458" 
d="M274 256l-22 140.999c-2 10 -3.83301 21.667 -5.5 35s-3.5 26.833 -5.5 40.5l-6 41c-2 13.667 -3.66699 25.834 -5 36.501h-3c-2 -11.333 -4 -23.833 -6 -37.5l-6 -41.5l-6 -40s-4 -24 -6 -34l-25 -141h96zM165 153.999l-30 -154h-127l146 674h157l131 -674h-127l-29 154
h-121z" />
    <glyph glyph-name="B" unicode="B" horiz-adv-x="483" 
d="M189 98c4 -1.33301 8.5 -2 13.5 -2h15.5c27.333 0 50.333 8.33301 69 25s28 42 28 76s-9.83301 59.667 -29.5 77s-42.5 26 -68.5 26h-28v-202zM189 397l28 -0.000976562c23.333 0 43 8.83301 59 26.5s24 40.5 24 68.5c0 24.667 -6 45.334 -18 62.001s-31.333 25 -58 25
c-16 0 -27.667 -1.33301 -35 -4v-178zM58 663.999c20 4.66699 42.832 8 68.499 10s52.5 3 80.5 3c32 0 62.667 -3 92 -9s55.666 -19 78.999 -39c18 -15.333 31 -33.666 39 -54.999s12 -43.666 12 -66.999c0 -30 -7.83301 -58.333 -23.5 -85s-40.167 -47.334 -73.5 -62.001
v-4c39.333 -11.333 69 -31.5 89 -60.5s30 -62.5 30 -100.5c0 -28 -4.33301 -52.833 -13 -74.5s-21 -40.834 -37 -57.501c-20 -22 -47.667 -38.833 -83 -50.5s-81.333 -17.5 -138 -17.5c-25.333 0 -48.166 0.666992 -68.499 2s-38.166 3.33301 -53.499 6v661z" />
    <glyph glyph-name="C" unicode="C" horiz-adv-x="395" 
d="M381 10c-9.33301 -4.66699 -22.8291 -8.50098 -40.4961 -11.501s-37.834 -4.5 -60.501 -4.5c-43.333 0 -81 8.33301 -113 25s-58.5 39.834 -79.5 69.501s-36.667 64.834 -47 105.501s-15.5 85 -15.5 133c0 63.333 8 117.333 24 162s37 81.167 63 109.5s55.167 49 87.5 62
s64.833 19.5 97.5 19.5c23.333 0 42.666 -1.83301 57.999 -5.5s26.333 -7.83398 33 -12.501l-22 -110c-7.33301 3.33301 -15.666 6.33301 -24.999 9s-21.333 4 -36 4c-18.667 0 -36.5 -4.16699 -53.5 -12.5s-32 -21.833 -45 -40.5s-23.333 -42.5 -31 -71.5
s-11.5 -64.5 -11.5 -106.5c0 -40 3.66699 -74.167 11 -102.5s17.166 -51.5 29.499 -69.5s27.166 -31.167 44.499 -39.5s36 -12.5 56 -12.5c11.333 0 22.666 1 33.999 3s21 4.33301 29 7z" />
    <glyph glyph-name="D" unicode="D" horiz-adv-x="491" 
d="M189 104c3.33301 -1.33301 7.16699 -2 11.5 -2h11.5c16 0 31 4.16699 45 12.5s26.5 22.166 37.5 41.499s19.667 44.833 26 76.5s9.5 70.834 9.5 117.501c0 69.333 -9.16699 123.666 -27.5 162.999s-47.5 59 -87.5 59c-4.66699 0 -9.16699 -0.166992 -13.5 -0.5
s-8.5 -1.16602 -12.5 -2.49902v-465zM58.001 664c16.667 4 36.5 7.16797 59.5 9.50098s47.5 3.5 73.5 3.5c42.667 0 79.167 -5 109.5 -15s56.166 -25 77.499 -45c29.333 -26 51.333 -61.333 66 -106s22 -100 22 -166c0 -68.667 -8.16699 -126.834 -24.5 -174.501
s-39.5 -84.5 -69.5 -110.5c-23.333 -21.333 -51.666 -37.5 -84.999 -48.5s-73.333 -16.5 -120 -16.5c-21.333 0 -41.5 0.833008 -60.5 2.5s-35.167 3.5 -48.5 5.5v661z" />
    <glyph glyph-name="E" unicode="E" horiz-adv-x="394" 
d="M342 296h-153v-182h173v-114h-304v674h293v-114h-162v-155h153v-109z" />
    <glyph glyph-name="F" unicode="F" horiz-adv-x="392" 
d="M58 674h293v-114h-162v-173h152v-109h-152v-278h-131v674z" />
    <glyph glyph-name="G" unicode="G" horiz-adv-x="472" 
d="M432 18c-14.667 -6 -35.332 -11.501 -61.999 -16.501s-52.334 -7.5 -77.001 -7.5c-76.667 0 -137 22.333 -181 67c-29.333 28 -51.5 65.667 -66.5 113s-21.833 100.333 -20.5 159c0.666992 61.333 9.16699 113.833 25.5 157.5s37.833 79.5 64.5 107.5
s57.167 48.667 91.5 62s69.5 20 105.5 20c25.333 0 47.166 -2 65.499 -6s32.833 -8.66699 43.5 -14l-22 -113c-20 10 -45.667 15 -77 15c-22.667 0 -43.667 -4.16699 -63 -12.5s-36.333 -21.666 -51 -39.999s-26.167 -42.5 -34.5 -72.5s-12.5 -67 -12.5 -111
c0 -40.667 3.66699 -75 11 -103s16.833 -50.667 28.5 -68s25 -30 40 -38s30.167 -12 45.5 -12c12.667 0 21.334 1 26.001 3v163h-61v107h181v-360z" />
    <glyph glyph-name="H" unicode="H" horiz-adv-x="515" 
d="M189 674v-270h137v270h131v-674h-131v282h-137v-282h-131v674h131z" />
    <glyph glyph-name="I" unicode="I" horiz-adv-x="248" 
d="M189 674v-674h-131v674h131z" />
    <glyph glyph-name="J" unicode="J" horiz-adv-x="296" 
d="M115 674l131.002 0.00195312v-459c0 -48.667 -5.33301 -87.667 -16 -117s-24.834 -51.833 -42.501 -67.5s-37.834 -26 -60.501 -31s-46 -7.5 -70 -7.5c-28.667 0 -50.667 3.33301 -66 10l11 110c6 -2 12.5 -3.33301 19.5 -4s14.833 -1 23.5 -1
c9.33301 0 18.333 1.16699 27 3.5s16.167 7.16602 22.5 14.499s11.333 17.666 15 30.999s5.5 31 5.5 53v465z" />
    <glyph glyph-name="K" unicode="K" horiz-adv-x="459" 
d="M58 674h131v-303h3l16 43l16 44l90 216h145l-152 -293l154 -381h-144l-98 279l-30 -55v-224h-131v674z" />
    <glyph glyph-name="L" unicode="L" horiz-adv-x="380" 
d="M58 674h131v-563h172v-111h-303v674z" />
    <glyph glyph-name="M" unicode="M" horiz-adv-x="637" 
d="M470 236c-2 32 -3.83301 68.1689 -5.5 108.502s-2.16699 78.5 -1.5 114.5h-2c-6 -36 -13 -73 -21 -111s-15.333 -70 -22 -96l-59 -241h-92l-56 237c-6.66699 27.333 -14 60.166 -22 98.499s-14.667 75.833 -20 112.5h-2c-1.33301 -36.667 -3 -74.834 -5 -114.501
s-3.66699 -76.5 -5 -110.5l-12 -234h-112l48 674h139l54 -244l26 -121.5c8 -38.333 15 -76.5 21 -114.5h3c5.33301 38 11.5 76.167 18.5 114.5s14.833 78.833 23.5 121.5l54 244h138l41 -674h-117z" />
    <glyph glyph-name="N" unicode="N" horiz-adv-x="516" 
d="M58 0l0.000976562 673.999h120l104 -264c5.33301 -12.667 11.166 -27.5 17.499 -44.5l19.5 -52l19 -52.5l16 -48h2c-2 36 -4.66699 81.333 -8 136s-5 113.334 -5 176.001v149h115v-674h-120l-103 256c-6 14 -12.167 29.667 -18.5 47l-18.5 53l-17.5 54
c-5.66699 18 -10.5 34.333 -14.5 49h-2c2 -34 4 -76.667 6 -128s3 -111.333 3 -180v-151h-115z" />
    <glyph glyph-name="O" unicode="O" horiz-adv-x="481" 
d="M242 568c-26 0 -46 -20.3311 -60 -60.998s-21 -97.334 -21 -170.001c0 -154 27.333 -231 82 -231c14 0 25.833 6 35.5 18s17.667 28.5 24 49.5s10.833 46 13.5 75s4 60.5 4 94.5c0 29.333 -1.16699 57.666 -3.5 84.999s-6.5 51.333 -12.5 72s-14 37.167 -24 49.5
s-22.667 18.5 -38 18.5zM248 682.002c40.667 0 74.334 -10.168 101.001 -30.501s48 -46.5 64 -78.5s27.167 -67.667 33.5 -107s9.5 -78.333 9.5 -117c0 -63.333 -5.33301 -117.666 -16 -162.999s-25.667 -82.333 -45 -111s-42.333 -49.667 -69 -63s-56 -20 -88 -20
c-38 0 -70.5 9.33301 -97.5 28s-49 44 -66 76s-29.5 69 -37.5 111s-12 86 -12 132s4.66699 89.667 14 131s23.166 77.833 41.499 109.5s41.5 56.667 69.5 75s60.667 27.5 98 27.5z" />
    <glyph glyph-name="P" unicode="P" horiz-adv-x="457" 
d="M189 357c3.33301 -0.666992 6.83398 -1 10.501 -1h11.5c33.333 0 57.5 10.333 72.5 31s22.5 47 22.5 79c0 30 -6.5 55 -19.5 75s-34.833 30 -65.5 30c-12.667 0 -23.334 -1.66699 -32.001 -5v-209zM58.001 664c18.667 4 39.832 7.16602 63.499 9.49902
s48.167 3.5 73.5 3.5c39.333 0 74.333 -3.5 105 -10.5s56.667 -20.833 78 -41.5c20 -17.333 34.667 -39.166 44 -65.499s14 -53.833 14 -82.5c0 -36.667 -5.16699 -68.167 -15.5 -94.5s-24.166 -48.833 -41.499 -67.5c-21.333 -22.667 -47 -39.167 -77 -49.5
s-59 -15.5 -87 -15.5h-13c-4 0 -8.33301 0.333008 -13 1v-251h-131v664z" />
    <glyph glyph-name="Q" unicode="Q" horiz-adv-x="481" 
d="M244 106c13.333 0 24.834 5.83594 34.501 17.5029s17.5 27.834 23.5 48.501s10.5 45.667 13.5 75s4.5 61.333 4.5 96c0 31.333 -1.33301 60.666 -4 87.999s-7 51.166 -13 71.499s-13.833 36.333 -23.5 48s-21.834 17.5 -36.501 17.5c-14 0 -26.167 -6 -36.5 -18
s-18.833 -28.167 -25.5 -48.5s-11.667 -44.333 -15 -72s-5 -57.5 -5 -89.5c-0.666992 -34 0.5 -65.333 3.5 -94s7.83301 -53.334 14.5 -74.001s15.5 -36.834 26.5 -48.501s23.833 -17.5 38.5 -17.5zM441.001 -109.997c-28.667 12 -58.334 25.833 -89.001 41.5
s-58.667 31.167 -84 46.5l-19 10c-5.33301 2.66699 -9.33301 4 -12 4c-66.667 0 -118.667 30.167 -156 90.5s-56 145.833 -56 256.5c0 45.333 4.66699 88.666 14 129.999s23.166 77.833 41.499 109.5s41.5 56.834 69.5 75.501s61 28 99 28
c40.667 0 74.334 -10.167 101.001 -30.5s47.834 -46.5 63.501 -78.5s26.667 -67.667 33 -107s9.5 -78.333 9.5 -117c0 -84 -8.83301 -151.5 -26.5 -202.5s-42.5 -85.167 -74.5 -102.5v-5c21.333 -9.33301 43.333 -18 66 -26l66 -24z" />
    <glyph glyph-name="R" unicode="R" horiz-adv-x="470" 
d="M189 370h23.999c28.667 0 50.667 10 66 30s23 45 23 75c0 29.333 -6.16699 53 -18.5 71s-33.166 27.667 -62.499 29c-6 0 -12 -0.333008 -18 -1s-10.667 -1.66699 -14 -3v-201zM57.999 664c20.667 4 43.333 7.16797 68 9.50098s49.667 3.5 75 3.5
c36 0 69.667 -3.5 101 -10.5s57.666 -20.167 78.999 -39.5c20.667 -18.667 34.834 -39.334 42.501 -62.001s11.5 -48.667 11.5 -78c0 -36 -8.83301 -69.167 -26.5 -99.5s-43.5 -53.166 -77.5 -68.499v-2c23.333 -9.33301 41.166 -24.833 53.499 -46.5
s21.833 -50.834 28.5 -87.501l10.5 -56.5c3.66699 -19 7.5 -36.833 11.5 -53.5s7.83301 -31.5 11.5 -44.5s6.83398 -22.5 9.50098 -28.5h-137c-2 4.66699 -4.5 12.167 -7.5 22.5s-6 22.833 -9 37.5s-6 30.667 -9 48s-5.83301 35.333 -8.5 54
c-6 41.333 -14.833 69.5 -26.5 84.5s-28.167 22.5 -49.5 22.5h-20v-269h-131v664z" />
    <glyph glyph-name="S" unicode="S" horiz-adv-x="394" 
d="M43 134c13.333 -7.33301 30.498 -13.502 51.498 -18.502s40.833 -7.5 59.5 -7.5c30.667 0 53.667 7.16699 69 21.5s23 32.5 23 54.5c0 24.667 -7.33301 44.5 -22 59.5s-36.334 31.833 -65.001 50.5c-46 28 -78.667 58.667 -98 92s-29 65.333 -29 96
c0 27.333 4.5 53 13.5 77s22.333 45 40 63s39.834 32.167 66.501 42.5s57.334 15.5 92.001 15.5c22.667 0 43.667 -2.5 63 -7.5s33.666 -10.5 42.999 -16.5l-21 -113c-9.33301 6 -21.166 11.333 -35.499 16s-30.833 7 -49.5 7c-28 0 -48.833 -7.16699 -62.5 -21.5
s-20.5 -30.5 -20.5 -48.5c0 -10 1.5 -19 4.5 -27s8 -16 15 -24s16.333 -16.167 28 -24.5s26.5 -18.166 44.5 -29.499c45.333 -27.333 77 -57.333 95 -90s27 -67 27 -103c0 -30.667 -5.5 -58.5 -16.5 -83.5s-26.167 -46.5 -45.5 -64.5s-42.666 -31.833 -69.999 -41.5
s-57.333 -14.5 -90 -14.5c-27.333 0 -52.833 2.83301 -76.5 8.5s-41.167 11.834 -52.5 18.501z" />
    <glyph glyph-name="T" unicode="T" horiz-adv-x="393" 
d="M131 553h-119v121h370v-121h-120v-553h-131v553z" />
    <glyph glyph-name="U" unicode="U" horiz-adv-x="500" 
d="M185 674l0.000976562 -438.001c0 -24.667 1.66699 -45.334 5 -62.001s8 -30 14 -40s12.833 -17 20.5 -21s15.834 -6 24.501 -6c9.33301 0 18 2 26 6s14.833 10.833 20.5 20.5s10.167 22.834 13.5 39.501s5 37.667 5 63v438h131v-415
c0 -87.333 -16.333 -153.666 -49 -198.999s-81.334 -68 -146.001 -68c-35.333 0 -65.333 6 -90 18s-44.834 29.333 -60.501 52s-27.167 50.5 -34.5 83.5s-11 70.5 -11 112.5v416h131z" />
    <glyph glyph-name="V" unicode="V" horiz-adv-x="452" 
d="M152 0l-149.999 674.001h145l48 -291c5.33301 -36.667 11.166 -74.834 17.499 -114.501s11.833 -79.5 16.5 -119.5h2c4.66699 40 9.66699 80 15 120s11 79 17 117l46 288h144l-154 -674h-147z" />
    <glyph glyph-name="W" unicode="W" horiz-adv-x="679" 
d="M128 0l-115.001 674.003h136l33 -269c4.66699 -38.667 8.66699 -77.334 12 -116.001s7 -78.667 11 -120h3c4.66699 42 10.334 81.833 17.001 119.5l21 117.5l48 268h106l45 -266l17.5 -115c5.66699 -38.667 10.5 -80 14.5 -124h2l13 122.5
c4 37.667 8.33301 76.167 13 115.5l33 267h128l-119 -674h-135l-40 221c-5.33301 31.333 -10.5 65.666 -15.5 102.999s-9.83301 76.666 -14.5 117.999h-2l-17.5 -116.5c-5.66699 -37 -12.167 -72.167 -19.5 -105.5l-45 -220h-130z" />
    <glyph glyph-name="X" unicode="X" horiz-adv-x="407" 
d="M275 0l-42 123.999c-6.66699 19.333 -13 38.833 -19 58.5s-11.667 40.167 -17 61.5h-3l-15.5 -62.5c-5 -20.333 -10.167 -40.166 -15.5 -59.499l-36 -122h-130l126 345l-121 329h136l40 -125c5.33301 -17.333 10.333 -34.833 15 -52.5l15 -55.5h2l15 56.5l14 53.5l34 123
h131l-126 -335l133 -339h-136z" />
    <glyph glyph-name="Y" unicode="Y" horiz-adv-x="402" 
d="M133 0v257.998l-148 416h140l45 -161c6.66699 -21.333 13 -44.166 19 -68.499s11.667 -49.166 17 -74.499h2c4 24.667 8.66699 49.167 14 73.5s11 48.5 17 72.5l40 158h136l-151 -411v-263h-131z" />
    <glyph glyph-name="Z" unicode="Z" horiz-adv-x="387" 
d="M11 77l214 480v3h-194v114h341v-97l-204 -460v-3h203v-114h-360v77z" />
    <glyph glyph-name="bracketleft" unicode="[" horiz-adv-x="258" 
d="M50 -112v798h184v-84h-85v-630h85v-84h-184z" />
    <glyph glyph-name="backslash" unicode="\" horiz-adv-x="233" 
d="M170 -40l-187 722h85l187 -722h-85z" />
    <glyph glyph-name="bracketright" unicode="]" horiz-adv-x="258" 
d="M208 686v-798h-184v84h85v630h-85v84h184z" />
    <glyph glyph-name="asciicircum" unicode="^" horiz-adv-x="596" 
d="M452 177l-152 361h-5l-152 -361h-98l212 473h83l212 -473h-100z" />
    <glyph glyph-name="underscore" unicode="_" horiz-adv-x="500" 
d="M500 -75v-50h-500v50h500z" />
    <glyph glyph-name="grave" unicode="`" 
d="M143 689l69 -140h-82l-101 140h114z" />
    <glyph glyph-name="a" unicode="a" horiz-adv-x="422" 
d="M247 238c-10.667 0 -22.168 -1.33398 -34.501 -4.00098s-23.666 -7 -33.999 -13s-18.833 -14.333 -25.5 -25s-10 -24.667 -10 -42c0 -24 5.33301 -41 16 -51s21 -15 31 -15c11.333 0 22 3.33301 32 10s17.333 17.334 22 32.001c2 7.33301 3 15 3 23v85zM375.999 111.999
c0 -19.333 0.499023 -38.667 1.49902 -58s2.83301 -37.333 5.5 -54h-117l-7 48h-3c-13.333 -18.667 -29.333 -32.667 -48 -42s-38.667 -14 -60 -14c-18.667 0 -35.834 3.66699 -51.501 11s-29.167 17.5 -40.5 30.5s-20.333 28.667 -27 47s-10 38.166 -10 59.499
c0 32 6.5 59.5 19.5 82.5s30 41.833 51 56.5s44.833 25.5 71.5 32.5s54 10.5 82 10.5v11c0 19.333 -5.66699 35.333 -17 48s-28.666 19 -51.999 19c-19.333 0 -37 -2.5 -53 -7.5s-31.667 -12.167 -47 -21.5l-24 89c14 7.33301 34.333 15.333 61 24s57.334 13 92.001 13
c37.333 0 67.333 -6 90 -18s40.167 -27.5 52.5 -46.5s20.5 -40.667 24.5 -65s6 -49.166 6 -74.499v-181z" />
    <glyph glyph-name="b" unicode="b" horiz-adv-x="447" 
d="M176 175c0 -12.667 1.66797 -23 5.00098 -31c5.33301 -17.333 12.166 -29.166 20.499 -35.499s16.5 -9.5 24.5 -9.5c22 0 37.833 13 47.5 39s14.5 62.667 14.5 110c0 42.667 -5 76.5 -15 101.5s-26 37.5 -48 37.5c-10 0 -19 -4.5 -27 -13.5s-13.667 -19.5 -17 -31.5
c-1.33301 -4 -2.5 -8.83301 -3.5 -14.5s-1.5 -10.834 -1.5 -15.501v-137zM45.001 692l131.001 -0.000976562v-252h2c11.333 17.333 25.333 31.333 42 42s36.667 16 60 16s43.666 -6.33301 60.999 -19s31.666 -29.834 42.999 -51.501s19.833 -47 25.5 -76
s8.5 -60.167 8.5 -93.5c0 -42.667 -4 -80.667 -12 -114s-19.167 -61.166 -33.5 -83.499s-31.166 -39.333 -50.499 -51s-40.333 -17.5 -63 -17.5c-20.667 0 -38.5 4.83301 -53.5 14.5s-29.167 26.834 -42.5 51.501h-3l-7 -58h-112c1.33301 21.333 2.33301 45 3 71
s1 50.667 1 74v547z" />
    <glyph glyph-name="c" unicode="c" horiz-adv-x="323" 
d="M317 8c-6.66699 -3.33301 -17.5 -6.49902 -32.5 -9.49902s-31.833 -4.5 -50.5 -4.5c-62 0 -111.667 21 -149 63s-56 102.667 -56 182c0 38 5.33301 72.667 16 104s25.834 58.166 45.501 80.499s43.167 39.833 70.5 52.5s58 19 92 19c15.333 0 29.5 -1.33301 42.5 -4
s22.833 -5.66699 29.5 -9l-17 -103c-5.33301 2 -12 4 -20 6s-17.667 3 -29 3c-32 0 -56.667 -13.5 -74 -40.5s-26 -61.833 -26 -104.5c0 -44 8.66699 -78.667 26 -104s41.333 -38 72 -38c19.333 0 35.666 3.33301 48.999 10z" />
    <glyph glyph-name="d" unicode="d" horiz-adv-x="447" 
d="M270 301l0.000976562 14.501c0 5 -0.666992 9.83301 -2 14.5c-2 15.333 -6.83301 28.666 -14.5 39.999s-18.167 17 -31.5 17c-11.333 0 -21 -3.83301 -29 -11.5s-14.5 -18.167 -19.5 -31.5s-8.66699 -28.833 -11 -46.5s-3.5 -36.5 -3.5 -56.5
c0 -46.667 5.66699 -82 17 -106s26 -36 44 -36c8.66699 0 17.167 2.83301 25.5 8.5s15.166 17.167 20.499 34.5c2.66699 6 4 16.333 4 31v128zM401.001 692.001l-0.00195312 -547.003c0 -23.333 0.333008 -47.666 1 -72.999s1.66699 -49.333 3 -72h-113l-7 55h-3
c-9.33301 -17.333 -23 -32.166 -41 -44.499s-38 -18.5 -60 -18.5c-26 0 -48.5 6.66699 -67.5 20s-34.833 31.5 -47.5 54.5s-22 49.833 -28 80.5s-9 63 -9 97c0 42.667 4.33301 79.834 13 111.501s20.334 58 35.001 79s31.334 36.833 50.001 47.5s38.334 16 59.001 16
c21.333 0 38.666 -4.83301 51.999 -14.5s23.333 -21.5 30 -35.5h2v244h131z" />
    <glyph glyph-name="e" unicode="e" horiz-adv-x="419" 
d="M272 290c0 32 -4.33301 58.667 -13 80s-22.667 32 -42 32c-10.667 0 -19.667 -3.5 -27 -10.5s-13.5 -16 -18.5 -27s-8.83301 -23.167 -11.5 -36.5s-4 -26 -4 -38h116zM156 198c0.666992 -38 10.832 -64.835 30.499 -80.502s43.834 -23.5 72.501 -23.5
c18.667 0 35.834 1.66699 51.501 5s29.5 7 41.5 11l17 -94c-16.667 -6.66699 -36.834 -12 -60.501 -16s-47.834 -6 -72.501 -6c-67.333 0 -118.666 21 -153.999 63s-53 101.333 -53 178c0 41.333 5 78.333 15 111s23.833 60.167 41.5 82.5s38.5 39.5 62.5 51.5
s49.667 18 77 18c52.667 0 93.5 -20 122.5 -60s43.5 -97.333 43.5 -172c0 -17.333 -0.333008 -31.166 -1 -41.499s-1.66699 -19.166 -3 -26.499h-231z" />
    <glyph glyph-name="f" unicode="f" horiz-adv-x="286" 
d="M69 0l0.000976562 396h-66v93h66v19c0 28 3.66699 54.5 11 79.5s20.666 47.5 39.999 67.5c14 15.333 31 26.666 51 33.999s41.667 11 65 11c17.333 0 32.5 -1 45.5 -3s24.167 -4.66699 33.5 -8l-15 -102c-10 4 -23.333 6 -40 6c-22 0 -37.5 -8.16699 -46.5 -24.5
s-13.5 -35.166 -13.5 -56.499v-23h85v-93h-85v-396h-131z" />
    <glyph glyph-name="g" unicode="g" horiz-adv-x="447" 
d="M272 311c0 12.667 -1.66895 24.667 -5.00195 36c-3.33301 10.667 -8.33301 20 -15 28s-15.667 12 -27 12c-12 0 -22.167 -3.66699 -30.5 -11s-15.166 -17.5 -20.499 -30.5s-9.16602 -28.333 -11.499 -46s-3.5 -36.5 -3.5 -56.5c0 -46 5.83301 -80.333 17.5 -103
s27.167 -34 46.5 -34c8.66699 0 16.667 2.5 24 7.5s13.666 14.167 18.999 27.5c2.66699 5.33301 4.33398 11.5 5.00098 18.5s1 13.833 1 20.5v131zM402.998 55c0 -52.667 -4.99902 -94.499 -14.999 -125.499s-24.667 -56.167 -44 -75.5c-18 -17.333 -40 -30.666 -66 -39.999
s-57 -14 -93 -14c-45.333 0 -86 7.66699 -122 23l24 101c12 -6 25.667 -11 41 -15s32.666 -6 51.999 -6c33.333 0 57 10.333 71 31s21 50 21 88v30h-2c-8.66699 -15.333 -20.834 -27.333 -36.501 -36s-32.834 -13 -51.501 -13c-27.333 0 -50.666 6.83301 -69.999 20.5
s-35 31.667 -47 54s-20.833 47.666 -26.5 75.999s-8.5 57.166 -8.5 86.499c0 40.667 4.33301 77 13 109s20.5 59 35.5 81s32.333 38.833 52 50.5s40.834 17.5 63.501 17.5c40.667 0 70.667 -19.667 90 -59h2l7 50h115c-1.33301 -22.667 -2.5 -46.667 -3.5 -72
s-1.5 -53 -1.5 -83v-279z" />
    <glyph glyph-name="h" unicode="h" horiz-adv-x="458" 
d="M46 692l131 0.000976562v-254h2c11.333 16 25.333 29.667 42 41c9.33301 5.33301 19.666 9.66602 30.999 12.999s23 5 35 5c45.333 0 77.5 -17.833 96.5 -53.5s28.5 -84.5 28.5 -146.5v-297h-131v297c0 24 -3.16699 45 -9.5 63s-19.166 27 -38.499 27
c-11.333 0 -21.333 -3.5 -30 -10.5s-15.667 -18.833 -21 -35.5c-1.33301 -4 -2.5 -9.83301 -3.5 -17.5s-1.5 -14.167 -1.5 -19.5v-304h-131v692z" />
    <glyph glyph-name="i" unicode="i" horiz-adv-x="223" 
d="M110 690c19.333 0 35.332 -6.5 47.999 -19.5s19 -30.5 19 -52.5c0.666992 -21.333 -5.66602 -38.5 -18.999 -51.5s-30 -19.5 -50 -19.5c-18 0 -33.5 6.5 -46.5 19.5s-19.167 30.167 -18.5 51.5c-0.666992 22 5.83301 39.5 19.5 52.5s29.5 19.5 47.5 19.5zM45.999 0v489
h131v-489h-131z" />
    <glyph glyph-name="j" unicode="j" horiz-adv-x="224" 
d="M113 690c19.333 0 35.332 -6.5 47.999 -19.5s19 -30.5 19 -52.5c0.666992 -21.333 -5.66602 -38.5 -18.999 -51.5s-30 -19.5 -50 -19.5c-18 0 -33.5 6.5 -46.5 19.5s-19.167 30.167 -18.5 51.5c-0.666992 22 5.83301 39.5 19.5 52.5s29.5 19.5 47.5 19.5zM-38.001 -96
c11.333 1.33301 22.833 3.6709 34.5 7.00391s21.5 9.66602 29.5 18.999c9.33301 10 15.333 24.667 18 44s4 48 4 86v429h131v-454c0 -54.667 -5.5 -96.334 -16.5 -125.001s-27.167 -51.334 -48.5 -68.001c-18 -14.667 -40.333 -25.334 -67 -32.001s-51.667 -10 -75 -10z" />
    <glyph glyph-name="k" unicode="k" horiz-adv-x="413" 
d="M176 275h2l12.5 37c3.66699 10.667 7.5 21 11.5 31l64 146h141l-119 -205l126 -284h-146l-70 201l-22 -42v-159h-131v692h131v-417z" />
    <glyph glyph-name="l" unicode="l" horiz-adv-x="225" 
d="M46 692h131v-692h-131v692z" />
    <glyph glyph-name="m" unicode="m" horiz-adv-x="680" 
d="M45 342c0 26.667 -0.333984 52 -1.00098 76s-1.66699 47.667 -3 71h114l7 -56h2c12.667 18 28.834 33.333 48.501 46s42.167 19 67.5 19c28 0 50.667 -5.83301 68 -17.5s30.333 -28.167 39 -49.5h2c6 9.33301 13.5 18.333 22.5 27s18.167 16 27.5 22
c20 12 42.667 18 68 18c44 0 76.167 -16.5 96.5 -49.5s30.5 -78.833 30.5 -137.5v-311h-131v289c0 14 -0.5 27 -1.5 39s-3.16699 22.5 -6.5 31.5s-7.83301 16.167 -13.5 21.5s-13.5 8 -23.5 8c-24 0 -40.333 -14.667 -49 -44c-1.33301 -4 -2.33301 -9 -3 -15
s-1 -12.667 -1 -20v-310h-131v307c0 9.33301 -0.333008 18.833 -1 28.5s-2.5 18.5 -5.5 26.5s-7.5 14.5 -13.5 19.5s-14 7.5 -24 7.5s-19.5 -3.5 -28.5 -10.5s-15.833 -18.167 -20.5 -33.5c-3.33301 -10 -5 -22.333 -5 -37v-308h-131v342z" />
    <glyph glyph-name="n" unicode="n" horiz-adv-x="458" 
d="M46 342c0 26.667 -0.333984 51.999 -1.00098 75.999s-1.66699 47.667 -3 71h113l7 -56h2c12.667 19.333 29.167 34.833 49.5 46.5s43.166 17.5 68.499 17.5c23.333 0 43.166 -4.5 59.499 -13.5s29.833 -21.5 40.5 -37.5s18.334 -35.167 23.001 -57.5s7 -47.166 7 -74.499
v-314h-131v306c0 10 -0.666992 20 -2 30s-3.83301 18.667 -7.5 26s-8.66699 13.333 -15 18s-14.166 7 -23.499 7c-23.333 0 -39.666 -14.667 -48.999 -44c-4.66699 -11.333 -7 -26.333 -7 -45v-298h-131v342z" />
    <glyph glyph-name="o" unicode="o" horiz-adv-x="431" 
d="M217 398c-12 0 -21.834 -4.83203 -29.501 -14.499s-13.5 -21.834 -17.5 -36.501s-6.83301 -31 -8.5 -49s-2.5 -35.333 -2.5 -52c0 -20.667 1 -40.334 3 -59.001s5.16699 -35 9.5 -49s10.333 -25.167 18 -33.5s17.5 -12.5 29.5 -12.5c10.667 0 19.5 4.66699 26.5 14
s12.5 21.333 16.5 36s6.83301 31.167 8.5 49.5s2.5 36.5 2.5 54.5c0 16.667 -0.833008 34 -2.5 52s-4.5 34.333 -8.5 49s-9.66699 26.834 -17 36.501s-16.666 14.5 -27.999 14.5zM217.999 498.001c58.667 0 104.17 -22.5 136.503 -67.5s48.5 -106.5 48.5 -184.5
c0 -50.667 -6.33301 -92.5 -19 -125.5s-28.334 -59 -47.001 -78s-38.834 -32.167 -60.501 -39.5s-41.834 -11 -60.501 -11c-58.667 0 -104.5 21.833 -137.5 65.5s-49.5 105.5 -49.5 185.5c0 44 5.33301 82 16 114s24.667 58.5 42 79.5s37.5 36.5 60.5 46.5s46.5 15 70.5 15z
" />
    <glyph glyph-name="p" unicode="p" horiz-adv-x="447" 
d="M176 178c0 -8 0.500977 -15.499 1.50098 -22.499s2.83301 -13.167 5.5 -18.5c5.33301 -15.333 11.833 -25.5 19.5 -30.5s15.167 -7.5 22.5 -7.5c11.333 0 21 4 29 12s14.5 18.667 19.5 32s8.66699 28.666 11 45.999s3.5 35.666 3.5 54.999
c0 46.667 -5.5 82.167 -16.5 106.5s-26.167 36.5 -45.5 36.5c-10 0 -19.167 -4.16699 -27.5 -12.5s-13.833 -18.166 -16.5 -29.499c-2.66699 -5.33301 -4.33398 -11 -5.00098 -17s-1 -12 -1 -18v-132zM45.001 334.001c0 30 -0.333008 57.501 -1 82.501
s-1.66699 49.167 -3 72.5h114l7 -56h2c10 20 23.833 35.833 41.5 47.5s38.167 17.5 61.5 17.5c26.667 0 49.5 -6.83301 68.5 -20.5s34.667 -32 47 -55s21.333 -49.833 27 -80.5s8.5 -63 8.5 -97c0 -43.333 -4.33301 -81 -13 -113s-20.334 -58.333 -35.001 -79
s-31.667 -36 -51 -46s-39.333 -15 -60 -15c-20 0 -36.667 5.16699 -50 15.5s-23.666 21.166 -30.999 32.499h-2v-232h-131v526z" />
    <glyph glyph-name="q" unicode="q" horiz-adv-x="447" 
d="M271 310c0 4.66699 -0.333984 9.83594 -1.00098 15.5029s-1.66699 10.167 -3 13.5c-3.33301 15.333 -9.16602 27.166 -17.499 35.499s-17.5 12.5 -27.5 12.5c-20.667 0 -36.167 -12.667 -46.5 -38s-15.5 -60.333 -15.5 -105s5.33301 -80 16 -106s26 -39 46 -39
c8.66699 0 17 3.33301 25 10s14.333 17.667 19 33c2 5.33301 3.33301 10.666 4 15.999s1 10.666 1 15.999v136zM270.999 42.002h-2.00195c-10 -14.667 -22.667 -26.667 -38 -36s-33.666 -14 -54.999 -14c-23.333 0 -44 6.5 -62 19.5s-33.333 30.5 -46 52.5
s-22.167 47.667 -28.5 77s-9.5 60.333 -9.5 93c0 41.333 4.16699 78.333 12.5 111s19.833 60.334 34.5 83.001s32 40 52 52s41.667 18 65 18c16 0 32.333 -4.33301 49 -13s30.334 -24.334 41.001 -47.001l2 -2l7 53h113c-1.33301 -22.667 -2.33301 -47 -3 -73
s-1 -53.333 -1 -82v-526h-131v234z" />
    <glyph glyph-name="r" unicode="r" horiz-adv-x="294" 
d="M46 342c0 24 -0.333008 48.666 -1 73.999s-1.66699 49.666 -3 72.999h113l7 -71h4c10.667 26 25 45.833 43 59.5s35.667 20.5 53 20.5c7.33301 0 13 -0.166992 17 -0.5s7.66699 -1.16602 11 -2.49902v-129c-4 0.666992 -8.33301 1 -13 1h-15
c-14 0 -28.833 -5.16699 -44.5 -15.5s-27.167 -28.166 -34.5 -53.499c-2 -5.33301 -3.5 -12.333 -4.5 -21s-1.5 -18 -1.5 -28v-249h-131v342z" />
    <glyph glyph-name="s" unicode="s" horiz-adv-x="324" 
d="M42 118c9.33301 -6 22.1631 -11.835 38.4961 -17.502s32.833 -8.5 49.5 -8.5c35.333 0 53 14.667 53 44c0 12.667 -4.16699 23.667 -12.5 33s-23.166 20.333 -44.499 33c-39.333 22.667 -65.666 46.167 -78.999 70.5s-20 47.833 -20 70.5c0 22 3.83301 42.5 11.5 61.5
s18.5 35.333 32.5 49s30.833 24.5 50.5 32.5s41.834 12 66.501 12c20.667 0 39 -2.16699 55 -6.5s30.667 -9.83301 44 -16.5l-23 -96c-9.33301 5.33301 -19.666 10 -30.999 14s-23.666 6 -36.999 6c-17.333 0 -29.833 -4.16699 -37.5 -12.5s-11.5 -18.166 -11.5 -29.499
c0 -10.667 3.66699 -20.167 11 -28.5s22.666 -19.166 45.999 -32.499c36 -20.667 61.5 -43.5 76.5 -68.5s22.5 -51.5 22.5 -79.5c0 -24.667 -4.33301 -46.667 -13 -66s-20.667 -35.5 -36 -48.5s-33.5 -22.833 -54.5 -29.5s-44.167 -10 -69.5 -10
c-20.667 0 -41.5 2.5 -62.5 7.5s-37.167 11.833 -48.5 20.5z" />
    <glyph glyph-name="t" unicode="t" horiz-adv-x="311" 
d="M200 616l-0.00195312 -127h96v-93h-96v-223c0 -28.667 5 -47.667 15 -57s21.333 -14 34 -14c11.333 0 23 1 35 3l1 -102c-9.33301 -2.66699 -20.666 -4.83398 -33.999 -6.50098s-28.666 -2.5 -45.999 -2.5c-19.333 0 -37 2.33301 -53 7s-30 12.667 -42 24
c-13.333 13.333 -23.5 30.333 -30.5 51s-10.5 50.334 -10.5 89.001v231h-58v93h58v86z" />
    <glyph glyph-name="u" unicode="u" horiz-adv-x="452" 
d="M404 149c0 -26 0.333008 -51.5 1 -76.5s1.66699 -49.167 3 -72.5h-113l-7 52h-2c-11.333 -16.667 -26.833 -30.834 -46.5 -42.501s-42.167 -17.5 -67.5 -17.5c-46.667 0 -80 16.833 -100 50.5s-30 83.834 -30 150.501v296h131v-282c0 -32 3.66699 -57.5 11 -76.5
s20 -28.5 38 -28.5c11.333 0 20.5 3.5 27.5 10.5s12.167 14.5 15.5 22.5c5.33301 10.667 8 24.667 8 42v312h131v-340z" />
    <glyph glyph-name="v" unicode="v" horiz-adv-x="395" 
d="M144 489l37 -219l10.5 -65.5c3.66699 -22.333 7.16699 -45.833 10.5 -70.5h2l9.5 70l9.5 66l38 219h129l-131 -489h-120l-134 489h139z" />
    <glyph glyph-name="w" unicode="w" horiz-adv-x="616" 
d="M146 489l26 -210.001l9.5 -77.5c3 -24.333 5.5 -48.166 7.5 -71.499h3c3.33301 23.333 7.33301 47.833 12 73.5s9.66699 50.167 15 73.5l43 212h101l41 -207l14.5 -79c4.33301 -24.667 8.16602 -49 11.499 -73h2c2 23.333 4.5 47.666 7.5 72.999l9.5 78l30 208h130
l-126 -489h-112l-36 171c-5.33301 22.667 -10 46.834 -14 72.501s-7.66699 52.5 -11 80.5h-2c-3.33301 -28.667 -7.66602 -55.667 -12.999 -81l-16 -73l-41 -170h-113l-120 489h141z" />
    <glyph glyph-name="x" unicode="x" horiz-adv-x="396" 
d="M149 489l30 -87c4.66699 -14.667 9 -29.167 13 -43.5l11 -38.5h2c3.33301 12 6.83301 25.333 10.5 40s7.83398 28.667 12.501 42l29 87h131l-110 -241l112 -248h-142l-34 92c-4.66699 12.667 -8.83398 25.167 -12.501 37.5s-7.16699 24.833 -10.5 37.5h-2
c-3.33301 -12.667 -7 -25.167 -11 -37.5s-7.66699 -24.833 -11 -37.5l-30 -92h-131l109 243l-108 246h142z" />
    <glyph glyph-name="y" unicode="y" horiz-adv-x="391" 
d="M145 489l47.9971 -255c3.33301 -14.667 6 -28.667 8 -42l6 -40h2l6 39.5l6 40.5l40 257h129l-100 -378c-12 -46 -26.5 -91.167 -43.5 -135.5s-38.833 -82.166 -65.5 -113.499c-21.333 -24.667 -42.666 -43 -63.999 -55s-37 -19.333 -47 -22l-40 113
c22.667 8.66699 44.334 22 65.001 40c9.33301 8.66699 17.333 18 24 28s12.334 20.333 17.001 31c2 4 3.66699 7.66699 5 11s2 6.66602 2 9.99902s-0.333008 6.33301 -1 9s-1.66699 5.66699 -3 9l-135 453h141z" />
    <glyph glyph-name="z" unicode="z" horiz-adv-x="351" 
d="M18 82l120 218l25 42.5l21 36.5v3h-151v107h293v-89l-117 -210c-8 -14.667 -16.333 -29.167 -25 -43.5s-15.667 -26.5 -21 -36.5v-3h168v-107h-313v82z" />
    <glyph glyph-name="braceleft" unicode="{" horiz-adv-x="258" 
d="M10 327c13.333 0 24.332 1.66602 32.999 4.99902s15.5 7.66602 20.5 12.999s8.33301 11.333 10 18s2.5 13.334 2.5 20.001c0 13.333 -0.666992 26.333 -2 39l-4 38l-4 40c-1.33301 13.333 -2 27 -2 41c0 48 13.5 84.167 40.5 108.5s64.5 36.5 112.5 36.5h18v-81h-15
c-19.333 -1.33301 -33.166 -8.16602 -41.499 -20.499s-12.5 -28.166 -12.5 -47.499c0 -11.333 0.333008 -22.5 1 -33.5s1.66699 -21.833 3 -32.5s2.33301 -20.834 3 -30.501s1 -19.167 1 -28.5c0 -66 -25.333 -107 -76 -123v-2c50.667 -15.333 76 -56.333 76 -123
c0 -10 -0.333008 -20.167 -1 -30.5s-1.66699 -21.166 -3 -32.499c-1.33301 -10 -2.33301 -20.167 -3 -30.5s-1 -20.833 -1 -31.5c0 -18.667 3.5 -34.5 10.5 -47.5s22.167 -20.5 45.5 -22.5h13v-81h-21c-20.667 0 -40 2.5 -58 7.5s-33.833 13.167 -47.5 24.5
s-24.5 26.166 -32.5 44.499s-12 40.833 -12 67.5c0 14 0.666992 27.667 2 41l4 40l4 39.5c1.33301 13 2 26.167 2 39.5c0 6 -0.833008 12.333 -2.5 19s-5 12.667 -10 18s-11.833 9.83301 -20.5 13.5s-19.667 5.5 -33 5.5v79z" />
    <glyph glyph-name="bar" unicode="|" horiz-adv-x="218" 
d="M158 750v-1000h-97v1000h97z" />
    <glyph glyph-name="braceright" unicode="}" horiz-adv-x="258" 
d="M248 248c-13.333 0 -24.334 -1.83203 -33.001 -5.49902s-15.5 -8.16699 -20.5 -13.5s-8.33301 -11.333 -10 -18s-2.5 -13 -2.5 -19c0 -13.333 0.666992 -26.5 2 -39.5l4 -39.5l4 -40c1.33301 -13.333 2 -27 2 -41c0 -26.667 -4 -49.167 -12 -67.5
s-18.833 -33.166 -32.5 -44.499s-29.5 -19.5 -47.5 -24.5s-37.333 -7.5 -58 -7.5h-21v81h13c23.333 2 38.5 9.5 45.5 22.5s10.5 28.833 10.5 47.5c0 10.667 -0.333008 21.167 -1 31.5l-2 30.5c-1.33301 11.333 -2.5 22.166 -3.5 32.499s-1.5 20.5 -1.5 30.5
c0 66.667 25.333 107.667 76 123v2c-50.667 16 -76 57 -76 123c0 9.33301 0.5 18.833 1.5 28.5s2.16699 19.834 3.5 30.501l2 32.5c0.666992 11 1 22.167 1 33.5c0 19.333 -4.16699 35.166 -12.5 47.499s-22.166 19.166 -41.499 20.499h-15v81h18
c48 0 85.5 -12.167 112.5 -36.5s40.5 -60.5 40.5 -108.5c0 -14 -0.666992 -27.667 -2 -41l-4 -40l-4 -38c-1.33301 -12.667 -2 -25.667 -2 -39c0 -6.66699 0.833008 -13.334 2.5 -20.001s5 -12.667 10 -18s11.833 -9.66602 20.5 -12.999s19.667 -5 33 -5v-79z" />
    <glyph glyph-name="asciitilde" unicode="~" horiz-adv-x="596" 
d="M57 202c0 31.333 3.99609 57.8311 11.9961 79.498s18.5 39 31.5 52s27.5 22.333 43.5 28s32 8.5 48 8.5c23.333 0.666992 45 -3.66602 65 -12.999s42.667 -21.666 68 -36.999c24.667 -15.333 42.834 -26 54.501 -32s22.834 -9 33.501 -9c14.667 0 25.5 6.5 32.5 19.5
s10.5 33.833 10.5 62.5h83c2.66699 -54.667 -6.66602 -96.667 -27.999 -126s-52.666 -44 -93.999 -44c-10.667 0 -20.834 0.666992 -30.501 2s-19.5 3.83301 -29.5 7.5s-20.667 8.5 -32 14.5s-24.333 13.667 -39 23c-27.333 17.333 -47.833 29.333 -61.5 36
s-26.167 10 -37.5 10c-13.333 0 -24.166 -5.66699 -32.499 -17s-12.833 -33 -13.5 -65h-84z" />
    <glyph glyph-name="uni00A0" unicode="&#xa0;" horiz-adv-x="159" 
 />
    <glyph glyph-name="exclamdown" unicode="&#xa1;" horiz-adv-x="236" 
d="M119 493c21.333 0 39 -7.5 53 -22.5s21 -34.833 21 -59.5c0 -22.667 -6.66699 -41.5 -20 -56.5s-31.333 -22.5 -54 -22.5c-21.333 0 -39.333 7.5 -54 22.5s-22 33.833 -22 56.5c0 24.667 7.33301 44.5 22 59.5s32.667 22.5 54 22.5zM47 -191l16 454h111l16 -454h-143z
" />
    <glyph glyph-name="cent" unicode="&#xa2;" horiz-adv-x="426" 
d="M212 -7l0.00195312 101.003c-22 4.66699 -42.333 12.5 -61 23.5s-35 25.5 -49 43.5c-14.667 19.333 -26.167 42.666 -34.5 69.999s-12.5 58.333 -12.5 93c0 29.333 3.83301 56.833 11.5 82.5s18.5 48.5 32.5 68.5s30.667 36.833 50 50.5s41 23.5 65 29.5v101h84v-94
c29.333 -2 52.666 -7.66699 69.999 -17l-16 -100c-13.333 6.66699 -25.833 11 -37.5 13s-24.167 3 -37.5 3c-14.667 0 -27.667 -3.5 -39 -10.5s-21 -16.833 -29 -29.5s-14 -27.334 -18 -44.001s-6 -34.667 -6 -54c0 -42 9.16699 -74.833 27.5 -98.5s41.833 -35.5 70.5 -35.5
c16.667 0 30.667 1.16699 42 3.5s23.666 6.16602 36.999 11.499l10 -99c-18 -9.33301 -43.333 -14.333 -76 -15v-97h-84z" />
    <glyph glyph-name="sterling" unicode="&#xa3;" horiz-adv-x="426" 
d="M37 0v81.998c14.667 6 27.5 14.5 38.5 25.5s20.333 23 28 36s13.334 26.833 17.001 41.5s5.5 28.334 5.5 41.001c0 10.667 -0.333008 20.5 -1 29.5s-1.66699 17.5 -3 25.5h-79v87h65c-3.33301 14.667 -6 30.5 -8 47.5s-3 33.5 -3 49.5c0 26.667 4.16699 51.667 12.5 75
s20.333 43.833 36 61.5s35 31.5 58 41.5s49.167 15 78.5 15c20.667 0 37.667 -1.83301 51 -5.5s23.666 -7.5 30.999 -11.5l-19 -106c-7.33301 3.33301 -15.333 6.33301 -24 9s-19.334 4 -32.001 4c-23.333 0 -40.5 -7.5 -51.5 -22.5s-16.5 -34.167 -16.5 -57.5
c0 -18 1 -35 3 -51s4.66699 -32.333 8 -49h103v-87h-91c1.33301 -16 1.33301 -31.167 0 -45.5s-4.66602 -28.5 -9.99902 -42.5c-4 -13.333 -9.83301 -27.166 -17.5 -41.499s-18.167 -27.5 -31.5 -39.5v-2h199v-110h-347z" />
    <glyph glyph-name="currency" unicode="&#xa4;" horiz-adv-x="426" 
d="M210 445c-20.667 0 -34.833 -11.668 -42.5 -35.001s-11.5 -52 -11.5 -86c0 -32 4.5 -59.5 13.5 -82.5s22.5 -34.5 40.5 -34.5c10.667 0 19.5 3 26.5 9s12.5 14.333 16.5 25s6.83301 23.334 8.5 38.001s2.5 30.334 2.5 47.001c0 14 -0.833008 28.167 -2.5 42.5
s-4.5 27.166 -8.5 38.499s-9.5 20.5 -16.5 27.5s-15.833 10.5 -26.5 10.5zM215.001 535.999c19.333 0 37.333 -3.16699 54 -9.5s31.334 -15.166 44.001 -26.499l64 76l55 -57l-79 -76c14.667 -33.333 22 -71.666 22 -114.999c0 -45.333 -7.66699 -84 -23 -116l78 -80
l-54 -56l-67 78c-14 -13.333 -29.833 -23 -47.5 -29s-34.834 -9 -51.501 -9c-38.667 0 -71.334 11.667 -98.001 35l-63 -75l-53 56l73 75c-16 32 -24 70.333 -24 115c0 23.333 2.33301 45.166 7 65.499s11.334 38.833 20.001 55.5l-78 76l55 57l65 -79
c14 13.333 29.833 23.166 47.5 29.499s35.5 9.5 53.5 9.5z" />
    <glyph glyph-name="yen" unicode="&#xa5;" horiz-adv-x="426" 
d="M152 0l0.000976562 165.002h-130v67h130v59h-130v67h102l-118 292h129l53 -181c6 -19.333 11.667 -38.833 17 -58.5s9.33301 -36.167 12 -49.5h2c3.33301 13.333 7.16602 29.666 11.499 48.999s9.5 39.666 15.5 60.999l54 179h121l-121 -292h102v-67h-130v-59h130v-67
h-130v-165h-120z" />
    <glyph glyph-name="brokenbar" unicode="&#xa6;" horiz-adv-x="218" 
d="M158 674v-350h-97v350h97zM158 174v-350h-97v350h97z" />
    <glyph glyph-name="section" unicode="&#xa7;" horiz-adv-x="431" 
d="M336 575c-12 6.66699 -25.8369 12.002 -41.5039 16.002s-32.834 6 -51.501 6c-18 0 -33.5 -4 -46.5 -12s-19.5 -19.333 -19.5 -34c0 -18 5.5 -31.5 16.5 -40.5s30.5 -18.833 58.5 -29.5c20.667 -8 39.834 -16.833 57.501 -26.5s33 -20.834 46 -33.501
s23.333 -27.5 31 -44.5s11.5 -37.5 11.5 -61.5c0 -25.333 -5 -48.333 -15 -69s-24 -39.667 -42 -57c6 -6 12.833 -16.333 20.5 -31s11.5 -32.334 11.5 -53.001c0 -24 -4.5 -45.5 -13.5 -64.5s-21.5 -35.167 -37.5 -48.5s-34.667 -23.666 -56 -30.999
s-44.666 -11 -69.999 -11c-26 0 -51.5 2.66699 -76.5 8s-45.167 13.333 -60.5 24l23 85c10.667 -6.66699 25.834 -13.667 45.501 -21s42.167 -11 67.5 -11c21.333 0 38.5 4.33301 51.5 13s19.5 21.667 19.5 39c0 16 -7.16699 29.667 -21.5 41s-38.166 24.666 -71.499 39.999
c-20.667 9.33301 -39.5 19 -56.5 29s-31.667 21.5 -44 34.5s-22 27.5 -29 43.5s-10.5 34 -10.5 54c0 20.667 5.66699 41.334 17 62.001s29 40 53 58c-9.33301 10 -17.166 22 -23.499 36s-9.5 29.667 -9.5 47c0 23.333 4.5 44.166 13.5 62.499s21.5 34 37.5 47
s34.833 23 56.5 30s45.167 10.5 70.5 10.5c42.667 0 78.667 -8.33301 108 -25zM126.996 349.002c0 -11.333 5 -22.999 15 -34.999s29.667 -24.333 59 -37c19.333 -8.66699 35.333 -16.667 48 -24l32 -19c6.66699 4.66699 12.5 12.167 17.5 22.5s7.5 20.833 7.5 31.5
c0 13.333 -5 26.333 -15 39s-24.667 23.334 -44 32.001c-17.333 7.33301 -33.5 14.666 -48.5 21.999s-28.167 14.666 -39.5 21.999c-8 -5.33301 -15.333 -12.833 -22 -22.5s-10 -20.167 -10 -31.5z" />
    <glyph glyph-name="dieresis" unicode="&#xa8;" 
d="M237 560c-16 0 -29.832 6 -41.499 18s-17.5 27.333 -17.5 46s6 34 18 46s26 18 42 18c17.333 0 31.666 -5.83301 42.999 -17.5s17 -27.167 17 -46.5c0 -18.667 -5.66699 -34 -17 -46s-26 -18 -44 -18zM60.001 560c-16 0 -29.832 6 -41.499 18s-17.5 27.333 -17.5 46
s6 34 18 46s26 18 42 18c17.333 0 31.666 -5.83301 42.999 -17.5s17 -27.167 17 -46.5c0 -18.667 -5.66699 -34 -17 -46s-26 -18 -44 -18z" />
    <glyph glyph-name="copyright" unicode="&#xa9;" horiz-adv-x="677" 
d="M459 440c-6.66699 3.33301 -18.165 7.66895 -34.498 13.002s-35.833 8 -58.5 8c-38 0 -68.5 -11 -91.5 -33s-34.5 -52.667 -34.5 -92c0 -37.333 11.167 -67.333 33.5 -90s51.833 -34 88.5 -34c19.333 0 37.166 2.16699 53.499 6.5s30.166 9.16602 41.499 14.499l15 -52
c-17.333 -9.33301 -35.5 -16.333 -54.5 -21s-40.833 -7 -65.5 -7c-28.667 0 -54.334 4.66699 -77.001 14s-41.667 22.166 -57 38.499s-27.166 35.5 -35.499 57.5s-12.5 45.667 -12.5 71c0 28.667 5 54.5 15 77.5s23.833 42.5 41.5 58.5s38.667 28.333 63 37
s50.833 13 79.5 13c22.667 0 44.167 -3 64.5 -9s33.833 -11.667 40.5 -17zM338.002 592.003c-33.333 0 -64.666 -6.66602 -93.999 -19.999s-55 -31.333 -77 -54s-39.333 -49.334 -52 -80.001s-19 -63.667 -19 -99c0 -34.667 6.33301 -67.334 19 -98.001s30 -57.5 52 -80.5
s47.667 -41.167 77 -54.5s61 -20 95 -20s65.667 6.5 95 19.5s54.833 31 76.5 54s38.834 50 51.501 81s19 63.833 19 98.5c0 35.333 -6.33301 68.333 -19 99s-29.834 57.334 -51.501 80.001s-47.334 40.667 -77.001 54s-61.5 20 -95.5 20zM341.002 648.004
c42.667 0 82.498 -8 119.498 -24s69.333 -38 97 -66s49.334 -60.667 65.001 -98s23.5 -77.333 23.5 -120s-8 -82.834 -24 -120.501s-37.667 -70.5 -65 -98.5s-59.666 -50.167 -96.999 -66.5s-77.333 -24.5 -120 -24.5s-82.834 8.16699 -120.501 24.5s-70.5 38.5 -98.5 66.5
s-50 60.833 -66 98.5s-24 77.834 -24 120.501s8.16699 82.667 24.5 120s38.5 70 66.5 98s60.833 50 98.5 66s77.834 24 120.501 24z" />
    <glyph glyph-name="ordfeminine" unicode="&#xaa;" horiz-adv-x="302" 
d="M184 415c-8.66699 0 -17.333 -0.833008 -26 -2.5s-16.667 -4.5 -24 -8.5s-13.333 -9.33301 -18 -16s-7 -15 -7 -25c0 -11.333 3.5 -20.5 10.5 -27.5s15.167 -10.5 24.5 -10.5c6 0 12.167 1.5 18.5 4.5s11.5 8.16699 15.5 15.5l4 8c1.33301 2.66699 2 5.66699 2 9v53z
M197.001 263l-5 33.001h-2c-18 -25.333 -42.667 -38 -74 -38c-24.667 0 -45 8.66699 -61 26s-24 40.666 -24 69.999c0 21.333 4.33301 39.333 13 54s20 26.667 34 36s30 16.333 48 21s36.667 7 56 7v8c0 9.33301 -3.83301 18.333 -11.5 27s-21.167 13 -40.5 13
c-13.333 0 -25.333 -1.83301 -36 -5.5s-19.667 -8.16699 -27 -13.5l-14 62c13.333 7.33301 27.833 13.333 43.5 18s32.167 7 49.5 7c24 0 43.667 -4.16699 59 -12.5s27.333 -19 36 -32s14.667 -27.667 18 -44s5 -32.5 5 -48.5v-113c0 -12.667 0.333008 -25.5 1 -38.5
s1.66699 -25.167 3 -36.5h-71z" />
    <glyph glyph-name="guillemotleft" unicode="&#xab;" horiz-adv-x="383" 
d="M268 252l108 -184h-94l-106 184l105 185h95zM108 252l108 -184h-95l-105 184l105 185h95z" />
    <glyph glyph-name="logicalnot" unicode="&#xac;" horiz-adv-x="596" 
d="M556 421v-315h-83v233h-433v82h516z" />
    <glyph glyph-name="uni00AD" unicode="&#xad;" horiz-adv-x="291" 
d="M229 323v-94h-199v94h199z" />
    <glyph glyph-name="registered" unicode="&#xae;" horiz-adv-x="374" 
d="M186 646c-16 0 -30.833 -3.16602 -44.5 -9.49902s-25.5 -15 -35.5 -26s-17.833 -23.833 -23.5 -38.5s-8.5 -30.667 -8.5 -48c0 -16.667 2.83301 -32.334 8.5 -47.001s13.5 -27.334 23.5 -38.001s22 -19.167 36 -25.5s29 -9.5 45 -9.5s31 3 45 9s26 14.5 36 25.5
s17.833 23.833 23.5 38.5s8.5 30.334 8.5 47.001c0 17.333 -2.83301 33.333 -8.5 48s-13.5 27.5 -23.5 38.5s-22 19.667 -36 26s-29.333 9.5 -46 9.5zM189 686.001c22 0 42.6631 -4.16699 61.9961 -12.5s36 -19.833 50 -34.5s25.167 -31.834 33.5 -51.501
s12.5 -40.5 12.5 -62.5s-4.16699 -42.833 -12.5 -62.5s-19.666 -36.834 -33.999 -51.501s-31.166 -26.167 -50.499 -34.5s-40 -12.5 -62 -12.5c-22.667 0 -43.667 4.16699 -63 12.5s-36.333 19.833 -51 34.5s-26.167 31.834 -34.5 51.501s-12.5 40.5 -12.5 62.5
s4.16699 42.833 12.5 62.5s19.833 36.834 34.5 51.501s31.834 26.167 51.501 34.5s40.834 12.5 63.501 12.5zM168.996 533.001l13 0.000976562c8 0 14.5 1.66699 19.5 5s7.5 7.66602 7.5 12.999c0 12.667 -8.33301 19 -25 19c-3.33301 0 -6.33301 -0.166992 -9 -0.5
s-4.66699 -0.5 -6 -0.5v-36zM166.996 449.002l-40.999 0.00195312v147c5.33301 1.33301 13 2.66602 23 3.99902s22.333 2 37 2c15.333 0 27 -1.16699 35 -3.5s14.667 -5.16602 20 -8.49902c10 -6.66699 15 -17.334 15 -32.001c0 -7.33301 -3 -14.166 -9 -20.499
s-14 -10.833 -24 -13.5v-2c15.333 -4.66699 25.333 -17.334 30 -38.001c2 -10.667 3.66699 -18.5 5 -23.5s2.66602 -8.83301 3.99902 -11.5h-45c-2.66699 3.33301 -4.66699 7.66602 -6 12.999s-3 11.333 -5 18c-2 14.667 -10 22 -24 22h-15v-53z" />
    <glyph glyph-name="macron" unicode="&#xaf;" 
d="M257 656v-75h-212v75h212z" />
    <glyph glyph-name="degree" unicode="&#xb0;" horiz-adv-x="287" 
d="M146 632c-16 0 -30.167 -7.16699 -42.5 -21.5s-18.5 -31.5 -18.5 -51.5c0 -18.667 6.16699 -34.5 18.5 -47.5s26.833 -19.5 43.5 -19.5c17.333 0 31.833 6.33301 43.5 19s17.5 29 17.5 49c0 18 -5 34.5 -15 49.5s-25.667 22.5 -47 22.5zM148 683
c18 0 34.334 -3.16699 49.001 -9.5s27.167 -15 37.5 -26s18.333 -23.667 24 -38s8.5 -29.5 8.5 -45.5c0 -20 -3.83301 -37.667 -11.5 -53s-17.334 -28.166 -29.001 -38.499s-24.667 -18.166 -39 -23.499s-28.5 -8 -42.5 -8c-17.333 0 -33.333 3 -48 9
s-27.167 14.167 -37.5 24.5s-18.5 22.666 -24.5 36.999s-9 29.833 -9 46.5c0 18 3.5 34.5 10.5 49.5s16.167 28.167 27.5 39.5s24.333 20.166 39 26.499s29.667 9.5 45 9.5z" />
    <glyph glyph-name="plusminus" unicode="&#xb1;" horiz-adv-x="596" 
d="M556 82v-82h-516v82h516zM340 566v-172h216v-82h-216v-176h-84v176h-216v82h216v172h84z" />
    <glyph glyph-name="twosuperior" unicode="&#xb2;" horiz-adv-x="274" 
d="M7 470l47 57.001l65 83c18 24 27 47 27 69c0 19.333 -4.66699 33.166 -14 41.499s-21.333 12.5 -36 12.5c-12.667 0 -24.5 -2.33301 -35.5 -7s-20.5 -10 -28.5 -16l-20 69c10.667 9.33301 25.5 17.166 44.5 23.499s40.5 9.5 64.5 9.5s44 -3.33301 60 -10
s29 -15.5 39 -26.5s17 -23.167 21 -36.5s6 -26.666 6 -39.999c0 -18 -3.16699 -35.167 -9.5 -51.5s-14.5 -31.833 -24.5 -46.5s-21.333 -28.667 -34 -42l-37 -40l-18 -19v-3h127v-80h-244v53z" />
    <glyph glyph-name="threesuperior" unicode="&#xb3;" horiz-adv-x="260" 
d="M20 789c11.333 6 25.3291 11.334 41.9961 16.001s34.334 7 53.001 7c20.667 0 38.334 -2.83301 53.001 -8.5s26.834 -13 36.501 -22s16.667 -19.167 21 -30.5s6.5 -22.666 6.5 -33.999c0 -22 -5.83301 -40.5 -17.5 -55.5s-27.5 -26.833 -47.5 -35.5v-2
c21.333 -4 39.333 -14.5 54 -31.5s22 -37.167 22 -60.5c0 -34.667 -13.5 -63.334 -40.5 -86.001s-64.167 -34 -111.5 -34c-18.667 0 -35.167 1.83301 -49.5 5.5s-26.166 8.16699 -35.499 13.5l14 69c8.66699 -4.66699 18.667 -8.66699 30 -12s23.666 -5 36.999 -5
c16.667 0 30.5 4.83301 41.5 14.5s16.5 22.167 16.5 37.5c0 19.333 -7 33.666 -21 42.999s-31.667 14.333 -53 15h-12v62h7c8 0 16.333 0.833008 25 2.5s16.5 4.16699 23.5 7.5s12.833 8 17.5 14s7 13 7 21c0 13.333 -4.16699 23.5 -12.5 30.5s-19.166 10.5 -32.499 10.5
c-11.333 0 -21.833 -1.5 -31.5 -4.5s-19.167 -7.16699 -28.5 -12.5z" />
    <glyph glyph-name="acute" unicode="&#xb4;" 
d="M287 689l-101 -140h-82l69 140h114z" />
    <glyph glyph-name="mu" unicode="&#xb5;" horiz-adv-x="455" 
d="M300 49c-6 -13.333 -15.666 -25.001 -28.999 -35.001s-28.666 -15 -45.999 -15c-10.667 0 -20.5 1.66699 -29.5 5s-17.167 9.66602 -24.5 18.999v-40c0 -18 0.333008 -35.667 1 -53s1.5 -33.833 2.5 -49.5s2.16699 -29.667 3.5 -42s2.66602 -22.5 3.99902 -30.5h-120
c-4.66699 12.667 -8.5 34.834 -11.5 66.501s-4.5 73.5 -4.5 125.5v489h131v-309c0 -55.333 15.667 -83 47 -83c12 0 21.667 3.83301 29 11.5s12.666 15.834 15.999 24.501c2.66699 4.66699 4.5 11 5.5 19s1.5 16.333 1.5 25v312h131v-347c0 -20.667 2.33301 -34.667 7 -42
s13.667 -11 27 -11l-12 -91c-4.66699 -2 -10.5 -3.5 -17.5 -4.5s-14.5 -1.5 -22.5 -1.5c-23.333 0 -41.5 5 -54.5 15s-23.5 24 -31.5 42h-3z" />
    <glyph glyph-name="paragraph" unicode="&#xb6;" horiz-adv-x="431" 
d="M171 -50l-0.000976562 314h-8c-6.66699 0 -17.5 2.83301 -32.5 8.5s-30.167 15.5 -45.5 29.5s-29.333 32.667 -42 56s-20 52.333 -22 87c-1.33301 28.667 2.16699 56.667 10.5 84s22.333 51.833 42 73.5s45.334 39 77.001 52s69.5 19.5 113.5 19.5
c27.333 0 48.5 -0.666992 63.5 -2s29.833 -3.33301 44.5 -6v-716h-71v651h-59v-651h-71z" />
    <glyph glyph-name="periodcentered" unicode="&#xb7;" horiz-adv-x="233" 
d="M115 183c-20 0 -37.501 7.83301 -52.501 23.5s-22.5 36.5 -22.5 62.5c0 25.333 7.66699 46.166 23 62.499s33.333 24.5 54 24.5c21.333 0 39.333 -7.66699 54 -23s22 -36.666 22 -63.999c0 -26 -7.16699 -46.833 -21.5 -62.5s-33.166 -23.5 -56.499 -23.5z" />
    <glyph glyph-name="cedilla" unicode="&#xb8;" 
d="M201 5l-25 -48.999c17.333 -3.33301 32.833 -11.5 46.5 -24.5s20.5 -29.167 20.5 -48.5c0 -16 -3.16699 -29.5 -9.5 -40.5s-14.5 -20 -24.5 -27s-21.667 -12 -35 -15s-27 -4.5 -41 -4.5c-13.333 0 -26.833 1.66699 -40.5 5s-25.167 7.66602 -34.5 12.999l18 56
c8.66699 -4 17.5 -7.33301 26.5 -10s17.833 -4 26.5 -4c8 0 15.333 1.83301 22 5.5s10 10.167 10 19.5c0 20.667 -22.667 33 -68 37l38 87h70z" />
    <glyph glyph-name="onesuperior" unicode="&#xb9;" horiz-adv-x="239" 
d="M98 417v307h-2l-70 -33l-17 68l99 48h84v-390h-94z" />
    <glyph glyph-name="ordmasculine" unicode="&#xba;" horiz-adv-x="311" 
d="M153 519c-8 0 -14.667 -3.49609 -20 -10.4961s-9.33301 -15.5 -12 -25.5s-4.5 -20.5 -5.5 -31.5s-1.5 -20.5 -1.5 -28.5c0 -26.667 2.83301 -49.334 8.5 -68.001s16.167 -28 31.5 -28c8.66699 0 15.5 2.83301 20.5 8.5s8.83301 13.167 11.5 22.5s4.5 19.666 5.5 30.999
s1.5 22.666 1.5 33.999s-0.5 22.666 -1.5 33.999s-3 21.5 -6 30.5s-7.16699 16.5 -12.5 22.5s-12 9 -20 9zM156 588.004c40 0 70.167 -14.668 90.5 -44.001s30.5 -69 30.5 -119c0 -33.333 -3.83301 -60.833 -11.5 -82.5s-17.5 -38.667 -29.5 -51s-25.167 -21 -39.5 -26
s-28.166 -7.5 -41.499 -7.5c-40 0 -70.833 14.333 -92.5 43s-32.5 69 -32.5 121c0 28 3.5 52.5 10.5 73.5s16.167 38.333 27.5 52s24.666 23.834 39.999 30.501s31.333 10 48 10z" />
    <glyph glyph-name="guillemotright" unicode="&#xbb;" horiz-adv-x="383" 
d="M167 437h94l106 -185l-105 -184h-95l108 184zM7 437h94l106 -185l-105 -184h-95l108 184z" />
    <glyph glyph-name="onequarter" unicode="&#xbc;" horiz-adv-x="667" 
d="M506 228c0 13.333 0.332031 25.667 0.999023 37s1.33398 21.333 2.00098 30h-2c-4.66699 -9.33301 -8.5 -18 -11.5 -26s-7.16699 -16.667 -12.5 -26l-46 -83v-2h69v70zM505.999 0.000976562v89h-147v59l140 243h92v-233h42v-69h-42v-89h-85zM116.999 -7.99902l349 666h67
l-347 -666h-69zM106.999 263.001v307h-2l-70 -33l-17 69l99 47h84v-390h-94z" />
    <glyph glyph-name="onehalf" unicode="&#xbd;" horiz-adv-x="667" 
d="M385 53l47 57.0029l65 83c18 24 27 47 27 69c0 19.333 -4.66699 33.166 -14 41.499s-21.333 12.5 -36 12.5c-12.667 0 -24.5 -2.33301 -35.5 -7s-20.5 -10 -28.5 -16l-20 69c10.667 9.33301 25.5 17.166 44.5 23.499s40.5 9.5 64.5 9.5s44 -3.33301 60 -10
s29 -15.5 39 -26.5s17 -23.167 21 -36.5s6 -26.666 6 -39.999c0 -18 -3.16699 -35.167 -9.5 -51.5s-14.5 -31.833 -24.5 -46.5s-21.167 -28.834 -33.5 -42.501s-24.833 -26.834 -37.5 -39.501l-18 -19v-3h127v-80h-244v53zM91 -7.99707l348 666h68l-348 -666h-68z
M96 263.003v307h-2l-70 -33l-17 69l99 47h84v-390h-94z" />
    <glyph glyph-name="threequarters" unicode="&#xbe;" horiz-adv-x="667" 
d="M512 228c0 13.333 0.331055 25.667 0.998047 37s1.33398 21.333 2.00098 30h-2c-4.66699 -9.33301 -8.66699 -18 -12 -26s-7.66602 -16.667 -12.999 -26l-46 -83v-2h70v70zM511.998 0.000976562v89h-147v59l140 243h92v-233h42v-69h-42v-89h-85zM132.998 -7.99902
l349 666h68l-349 -666h-68zM40.998 635.001c11.333 6 25.3291 11.335 41.9961 16.002s34.334 7 53.001 7c20.667 0 38.334 -2.83301 53.001 -8.5s26.834 -13 36.501 -22s16.667 -19 21 -30s6.5 -22.167 6.5 -33.5c0 -22.667 -5.83301 -41.5 -17.5 -56.5
s-27.5 -26.833 -47.5 -35.5v-2c21.333 -4 39.333 -14.5 54 -31.5s22 -37.167 22 -60.5c0 -34.667 -13.5 -63.334 -40.5 -86.001s-64.167 -34 -111.5 -34c-18.667 0 -35 1.83301 -49 5.5s-25.667 8.16699 -35 13.5l14 69c8 -4.66699 17.667 -8.66699 29 -12
s23.666 -5 36.999 -5c16.667 0 30.667 4.83301 42 14.5s17 22.167 17 37.5c0 19.333 -7.16699 33.666 -21.5 42.999s-32.166 14.333 -53.499 15h-12v62h7c8 0 16.333 0.833008 25 2.5s16.5 4.16699 23.5 7.5s12.833 8 17.5 14s7 13 7 21c0 13.333 -4.16699 23.5 -12.5 30.5
s-19.166 10.5 -32.499 10.5c-11.333 0 -21.833 -1.5 -31.5 -4.5s-19.167 -7.16699 -28.5 -12.5z" />
    <glyph glyph-name="questiondown" unicode="&#xbf;" horiz-adv-x="334" 
d="M246 275l2.00098 -18.002c3.33301 -30 0 -58.5 -10 -85.5s-24.333 -55.167 -43 -84.5c-14.667 -22 -25.5 -41.333 -32.5 -58s-10.5 -34.667 -10.5 -54c0 -18.667 5.66699 -33.667 17 -45s27.666 -17 48.999 -17c11.333 0 22.5 1.16699 33.5 3.5s21.167 6.83301 30.5 13.5
l22 -100c-10.667 -7.33301 -26.667 -14.166 -48 -20.499s-44.333 -9.5 -69 -9.5c-32.667 0 -60 4.83301 -82 14.5s-39.333 22 -52 37s-21.667 31.5 -27 49.5s-8 35.667 -8 53c0 34.667 8 66.5 24 95.5s33 56.167 51 81.5c13.333 20.667 23.833 40.334 31.5 59.001
s11.167 39.667 10.5 63l1 22h110zM193.001 492.998c21.333 0 39 -7.5 53 -22.5s21 -34.833 21 -59.5c0 -23.333 -6.66699 -42.5 -20 -57.5s-31.333 -22.5 -54 -22.5c-21.333 0 -39.333 7.5 -54 22.5s-22 34.167 -22 57.5c0 24.667 7.33301 44.5 22 59.5s32.667 22.5 54 22.5
z" />
    <glyph glyph-name="Agrave" unicode="&#xc0;" horiz-adv-x="458" 
d="M216 823l82 -113h-93l-122 113h133zM274 256l-22 140.999c-2 10 -3.83301 21.667 -5.5 35s-3.5 26.833 -5.5 40.5l-6 41c-2 13.667 -3.66699 25.834 -5 36.501h-3c-2 -11.333 -4 -23.833 -6 -37.5l-6 -41.5l-6 -40s-4 -24 -6 -34l-25 -141h96zM165 153.999l-30 -154h-127
l146 674h157l131 -674h-127l-29 154h-121z" />
    <glyph glyph-name="Aacute" unicode="&#xc1;" horiz-adv-x="458" 
d="M388 823l-122 -113h-93l82 113h133zM274 256l-22 140.999c-2 10 -3.83301 21.667 -5.5 35s-3.5 26.833 -5.5 40.5l-6 41c-2 13.667 -3.66699 25.834 -5 36.501h-3c-2 -11.333 -4 -23.833 -6 -37.5l-6 -41.5l-6 -40s-4 -24 -6 -34l-25 -141h96zM165 153.999l-30 -154h-127
l146 674h157l131 -674h-127l-29 154h-121z" />
    <glyph glyph-name="Acircumflex" unicode="&#xc2;" horiz-adv-x="458" 
d="M283 820l84 -110h-96l-39 52h-2l-38 -52h-93l81 110h103zM274 256l-22 140.999c-2 10 -3.83301 21.667 -5.5 35s-3.5 26.833 -5.5 40.5l-6 41c-2 13.667 -3.66699 25.834 -5 36.501h-3c-2 -11.333 -4 -23.833 -6 -37.5l-6 -41.5l-6 -40s-4 -24 -6 -34l-25 -141h96z
M165 153.999l-30 -154h-127l146 674h157l131 -674h-127l-29 154h-121z" />
    <glyph glyph-name="Atilde" unicode="&#xc3;" horiz-adv-x="458" 
d="M118 718c-1.33301 37.333 4.16992 65.833 16.5029 85.5s28.833 29.5 49.5 29.5c11.333 0 21.166 -1.66699 29.499 -5s16.166 -7.33301 23.499 -12s14 -8.66699 20 -12s11.667 -5 17 -5c7.33301 0 12.666 2.66699 15.999 8s6 15.333 8 30h58
c1.33301 -42 -4 -71.667 -16 -89s-29.667 -26 -53 -26c-11.333 0 -21.333 1.5 -30 4.5s-16.667 6.83301 -24 11.5c-7.33301 4 -13.5 7.5 -18.5 10.5s-10.5 4.5 -16.5 4.5c-12 0 -19 -11.667 -21 -35h-59zM274.003 256l-22 140.999c-2 10 -3.83301 21.667 -5.5 35
s-3.5 26.833 -5.5 40.5l-6 41c-2 13.667 -3.66699 25.834 -5 36.501h-3c-2 -11.333 -4 -23.833 -6 -37.5l-6 -41.5l-6 -40s-4 -24 -6 -34l-25 -141h96zM165.003 153.999l-30 -154h-127l146 674h157l131 -674h-127l-29 154h-121z" />
    <glyph glyph-name="Adieresis" unicode="&#xc4;" horiz-adv-x="458" 
d="M327 712c-16 0 -29.832 6.16699 -41.499 18.5s-17.5 27.5 -17.5 45.5c0 17.333 6 32.166 18 44.499s26 18.5 42 18.5s29.833 -6.16699 41.5 -18.5s17.5 -27.166 17.5 -44.499c0 -18 -5.83301 -33.167 -17.5 -45.5s-25.834 -18.5 -42.501 -18.5zM143.001 712
c-15.333 0 -28.832 6.16699 -40.499 18.5s-17.5 27.5 -17.5 45.5c0 17.333 6 32.166 18 44.499s25.667 18.5 41 18.5c16 0 29.833 -6.16699 41.5 -18.5s17.5 -27.166 17.5 -44.499c0 -18 -5.83301 -33.167 -17.5 -45.5s-25.834 -18.5 -42.501 -18.5zM274.002 256
l-22 140.999c-2 10 -3.83301 21.667 -5.5 35s-3.5 26.833 -5.5 40.5l-6 41c-2 13.667 -3.66699 25.834 -5 36.501h-3c-2 -11.333 -4 -23.833 -6 -37.5l-6 -41.5l-6 -40s-4 -24 -6 -34l-25 -141h96zM165.002 153.999l-30 -154h-127l146 674h157l131 -674h-127l-29 154h-121z
" />
    <glyph glyph-name="Aring" unicode="&#xc5;" horiz-adv-x="458" 
d="M229 837c-13.333 0 -22.667 -4.99902 -28 -14.999s-8 -20.333 -8 -31c0 -10 2.83301 -19.667 8.5 -29s15.167 -14 28.5 -14c14 0 23.833 4.5 29.5 13.5s8.5 19.167 8.5 30.5s-3 21.666 -9 30.999s-16 14 -30 14zM231.999 884.001
c18.667 0 34.499 -2.50098 47.499 -7.50098s23.667 -11.667 32 -20s14.5 -18 18.5 -29s6 -22.5 6 -34.5c0 -24 -8.5 -45.5 -25.5 -64.5s-43.5 -28.5 -79.5 -28.5c-18.667 0 -34.667 2.5 -48 7.5s-24.333 11.833 -33 20.5s-15 18.334 -19 29.001s-6 21.667 -6 33
c0 12 2.16699 23.5 6.5 34.5s10.833 21 19.5 30s19.834 16.167 33.501 21.5s29.5 8 47.5 8zM273.998 256l-22 140.999c-2 10 -3.83301 21.667 -5.5 35s-3.5 26.833 -5.5 40.5l-6 41c-2 13.667 -3.66699 25.834 -5 36.501h-3c-2 -11.333 -4 -23.833 -6 -37.5l-6 -41.5l-6 -40
s-4 -24 -6 -34l-25 -141h96zM164.998 153.999l-30 -154h-127l146 674h157l131 -674h-127l-29 154h-121z" />
    <glyph glyph-name="AE" unicode="&#xc6;" horiz-adv-x="595" 
d="M280 286l-8 167.001c-1.33301 19.333 -2.5 40.166 -3.5 62.499s-2.16699 44.833 -3.5 67.5h-4l-19.5 -87c-7 -30 -12.833 -54 -17.5 -72l-33 -138h89zM-7 0.000976562l203 674h369l-1 -114h-177l9 -166h163v-109h-152l10 -171h163v-114h-278l-12 184h-123l-45 -184h-129z
" />
    <glyph glyph-name="Ccedilla" unicode="&#xc7;" horiz-adv-x="402" 
d="M380 10c-9.33301 -4.66699 -22.165 -8.49805 -38.498 -11.498s-33.166 -4.5 -50.499 -4.5l-20 -37c17.333 -3.33301 32.833 -11.5 46.5 -24.5s20.5 -29.167 20.5 -48.5c0 -16 -3.16699 -29.5 -9.5 -40.5s-14.5 -20 -24.5 -27s-21.667 -12 -35 -15s-27 -4.5 -41 -4.5
c-13.333 0 -26.833 1.66699 -40.5 5s-25.167 7.66602 -34.5 12.999l19 56c8 -4 16.5 -7.33301 25.5 -10s17.833 -4 26.5 -4c8 0 15.333 1.83301 22 5.5s10 10.167 10 19.5c0 20.667 -22.667 33 -68 37l37 80c-68.667 14.667 -119.167 51 -151.5 109s-48.5 131 -48.5 219
c0 63.333 8 117.333 24 162s36.833 81.167 62.5 109.5s54.667 49 87 62s64.833 19.5 97.5 19.5c23.333 0 42.666 -1.83301 57.999 -5.5s26.333 -7.83398 33 -12.501l-21 -110c-8 3.33301 -16.667 6.33301 -26 9s-21 4 -35 4c-18.667 0 -36.5 -4.16699 -53.5 -12.5
s-32 -21.833 -45 -40.5s-23.333 -42.5 -31 -71.5s-11.5 -64.5 -11.5 -106.5c0 -40 3.66699 -74.167 11 -102.5s17.166 -51.5 29.499 -69.5s27 -31.167 44 -39.5s35.5 -12.5 55.5 -12.5c11.333 0 22.666 1 33.999 3s21 4.33301 29 7z" />
    <glyph glyph-name="Egrave" unicode="&#xc8;" horiz-adv-x="394" 
d="M195 823l82 -113h-93l-122 113h133zM342 296h-153v-182h173v-114h-304v674h293v-114h-162v-155h153v-109z" />
    <glyph glyph-name="Eacute" unicode="&#xc9;" horiz-adv-x="394" 
d="M364 823l-122 -113h-93l82 113h133zM342 296h-153v-182h173v-114h-304v674h293v-114h-162v-155h153v-109z" />
    <glyph glyph-name="Ecircumflex" unicode="&#xca;" horiz-adv-x="394" 
d="M259 820l84 -110h-96l-39 52h-2l-38 -52h-93l81 110h103zM342 296h-153v-182h173v-114h-304v674h293v-114h-162v-155h153v-109z" />
    <glyph glyph-name="Edieresis" unicode="&#xcb;" horiz-adv-x="394" 
d="M299 715c-16 0 -29.832 6.16699 -41.499 18.5s-17.5 27.5 -17.5 45.5c0 17.333 6 32.166 18 44.499s26 18.5 42 18.5s29.833 -6.16699 41.5 -18.5s17.5 -27.166 17.5 -44.499c0 -18 -5.83301 -33.167 -17.5 -45.5s-25.834 -18.5 -42.501 -18.5zM114.001 715
c-15.333 0 -28.832 6.16699 -40.499 18.5s-17.5 27.5 -17.5 45.5c0 17.333 6 32.166 18 44.499s25.667 18.5 41 18.5c16 0 29.833 -6.16699 41.5 -18.5s17.5 -27.166 17.5 -44.499c0 -18 -5.83301 -33.167 -17.5 -45.5s-25.834 -18.5 -42.501 -18.5zM343.002 296h-154v-182
h174v-114h-305v674h294v-114h-163v-155h154v-109z" />
    <glyph glyph-name="Igrave" unicode="&#xcc;" horiz-adv-x="248" 
d="M103 823l82 -113h-93l-122 113h133zM189 674v-674h-131v674h131z" />
    <glyph glyph-name="Iacute" unicode="&#xcd;" horiz-adv-x="248" 
d="M275 823l-122 -113h-93l82 113h133zM189 674v-674h-131v674h131z" />
    <glyph glyph-name="Icircumflex" unicode="&#xce;" horiz-adv-x="248" 
d="M174 820l84 -110h-96l-39 52h-2l-38 -52h-93l81 110h103zM189 674v-674h-131v674h131z" />
    <glyph glyph-name="Idieresis" unicode="&#xcf;" horiz-adv-x="248" 
d="M215 715c-16 0 -29.832 6.16699 -41.499 18.5s-17.5 27.5 -17.5 45.5c0 17.333 6 32.166 18 44.499s26 18.5 42 18.5s29.833 -6.16699 41.5 -18.5s17.5 -27.166 17.5 -44.499c0 -18 -5.83301 -33.167 -17.5 -45.5s-25.834 -18.5 -42.501 -18.5zM31.001 715
c-15.333 0 -28.832 6.16699 -40.499 18.5s-17.5 27.5 -17.5 45.5c0 17.333 6 32.166 18 44.499s25.667 18.5 41 18.5c16 0 29.833 -6.16699 41.5 -18.5s17.5 -27.166 17.5 -44.499c0 -18 -5.83301 -33.167 -17.5 -45.5s-25.834 -18.5 -42.501 -18.5zM189.002 674v-674h-131
v674h131z" />
    <glyph glyph-name="Eth" unicode="&#xd0;" horiz-adv-x="493" 
d="M265 303l-73.999 -0.000976562v-200c3.33301 -1.33301 7.16602 -2 11.499 -2h11.5c16 0 31.167 4.16699 45.5 12.5s27 22.333 38 42s19.667 45.334 26 77.001s9.5 70.834 9.5 117.501c0 69.333 -9.33301 123.666 -28 162.999s-48 59 -88 59c-9.33301 0 -18 -1 -26 -3
v-175h74v-91zM0.000976562 393.999h60v270c16.667 4 36.5 7.16699 59.5 9.5s47.5 3.5 73.5 3.5c43.333 0 80.166 -5 110.499 -15s56.166 -25 77.499 -45c29.333 -26 51.333 -61.333 66 -106s22 -100 22 -166c0 -68.667 -8.16699 -127 -24.5 -175s-39.5 -85 -69.5 -111
c-23.333 -21.333 -51.666 -37.5 -84.999 -48.5s-73.666 -16.5 -120.999 -16.5c-21.333 0 -41.5 0.833008 -60.5 2.5s-35.167 3.5 -48.5 5.5v301h-60v91z" />
    <glyph glyph-name="Ntilde" unicode="&#xd1;" horiz-adv-x="516" 
d="M142 718c-1.33301 37.333 4.16992 65.833 16.5029 85.5s28.833 29.5 49.5 29.5c11.333 0 21.166 -1.66699 29.499 -5s16.166 -7.33301 23.499 -12s14 -8.66699 20 -12s11.667 -5 17 -5c7.33301 0 12.666 2.66699 15.999 8s6 15.333 8 30h58
c1.33301 -42 -4 -71.667 -16 -89s-29.667 -26 -53 -26c-11.333 0 -21.333 1.5 -30 4.5s-16.667 6.83301 -24 11.5c-7.33301 4 -13.5 7.5 -18.5 10.5s-10.5 4.5 -16.5 4.5c-12 0 -19 -11.667 -21 -35h-59zM58.0029 0l0.000976562 673.999h120l104 -264
c5.33301 -12.667 11.166 -27.5 17.499 -44.5l19.5 -52l19 -52.5l16 -48h2c-2 36 -4.66699 81.333 -8 136s-5 113.334 -5 176.001v149h115v-674h-120l-103 256c-6 14 -12.167 29.667 -18.5 47l-18.5 53l-17.5 54c-5.66699 18 -10.5 34.333 -14.5 49h-2
c2 -34 4 -76.667 6 -128s3 -111.333 3 -180v-151h-115z" />
    <glyph glyph-name="Ograve" unicode="&#xd2;" horiz-adv-x="481" 
d="M223 823l82 -113h-93l-122 113h133zM242 568c-26 0 -46 -20.3311 -60 -60.998s-21 -97.334 -21 -170.001c0 -154 27.333 -231 82 -231c14 0 25.833 6 35.5 18s17.667 28.5 24 49.5s10.833 46 13.5 75s4 60.5 4 94.5c0 29.333 -1.16699 57.666 -3.5 84.999
s-6.5 51.333 -12.5 72s-14 37.167 -24 49.5s-22.667 18.5 -38 18.5zM248 682.002c40.667 0 74.334 -10.168 101.001 -30.501s48 -46.5 64 -78.5s27.167 -67.667 33.5 -107s9.5 -78.333 9.5 -117c0 -63.333 -5.33301 -117.666 -16 -162.999s-25.667 -82.333 -45 -111
s-42.333 -49.667 -69 -63s-56 -20 -88 -20c-38 0 -70.5 9.33301 -97.5 28s-49 44 -66 76s-29.5 69 -37.5 111s-12 86 -12 132s4.66699 89.667 14 131s23.166 77.833 41.499 109.5s41.5 56.667 69.5 75s60.667 27.5 98 27.5z" />
    <glyph glyph-name="Oacute" unicode="&#xd3;" horiz-adv-x="481" 
d="M400 823l-122 -113h-93l82 113h133zM242 568c-26 0 -46 -20.3311 -60 -60.998s-21 -97.334 -21 -170.001c0 -154 27.333 -231 82 -231c14 0 25.833 6 35.5 18s17.667 28.5 24 49.5s10.833 46 13.5 75s4 60.5 4 94.5c0 29.333 -1.16699 57.666 -3.5 84.999
s-6.5 51.333 -12.5 72s-14 37.167 -24 49.5s-22.667 18.5 -38 18.5zM248 682.002c40.667 0 74.334 -10.168 101.001 -30.501s48 -46.5 64 -78.5s27.167 -67.667 33.5 -107s9.5 -78.333 9.5 -117c0 -63.333 -5.33301 -117.666 -16 -162.999s-25.667 -82.333 -45 -111
s-42.333 -49.667 -69 -63s-56 -20 -88 -20c-38 0 -70.5 9.33301 -97.5 28s-49 44 -66 76s-29.5 69 -37.5 111s-12 86 -12 132s4.66699 89.667 14 131s23.166 77.833 41.499 109.5s41.5 56.667 69.5 75s60.667 27.5 98 27.5z" />
    <glyph glyph-name="Ocircumflex" unicode="&#xd4;" horiz-adv-x="481" 
d="M291 820l84 -110h-96l-39 52h-2l-38 -52h-93l81 110h103zM242 568c-26 0 -46 -20.3311 -60 -60.998s-21 -97.334 -21 -170.001c0 -154 27.333 -231 82 -231c14 0 25.833 6 35.5 18s17.667 28.5 24 49.5s10.833 46 13.5 75s4 60.5 4 94.5
c0 29.333 -1.16699 57.666 -3.5 84.999s-6.5 51.333 -12.5 72s-14 37.167 -24 49.5s-22.667 18.5 -38 18.5zM248 682.002c40.667 0 74.334 -10.168 101.001 -30.501s48 -46.5 64 -78.5s27.167 -67.667 33.5 -107s9.5 -78.333 9.5 -117
c0 -63.333 -5.33301 -117.666 -16 -162.999s-25.667 -82.333 -45 -111s-42.333 -49.667 -69 -63s-56 -20 -88 -20c-38 0 -70.5 9.33301 -97.5 28s-49 44 -66 76s-29.5 69 -37.5 111s-12 86 -12 132s4.66699 89.667 14 131s23.166 77.833 41.499 109.5s41.5 56.667 69.5 75
s60.667 27.5 98 27.5z" />
    <glyph glyph-name="Otilde" unicode="&#xd5;" horiz-adv-x="481" 
d="M122 713c-1.33301 38 4.1709 66.833 16.5039 86.5s28.833 29.5 49.5 29.5c11.333 0 21.166 -1.66699 29.499 -5s15.833 -7.33301 22.5 -12c7.33301 -4.66699 14.166 -8.66699 20.499 -12s12.166 -5 17.499 -5c7.33301 0 12.666 2.66699 15.999 8s6 15.333 8 30h58
c1.33301 -42 -4 -71.667 -16 -89s-29.667 -26 -53 -26c-11.333 0 -21.333 1.5 -30 4.5s-16.667 6.83301 -24 11.5c-7.33301 4 -13.5 7.5 -18.5 10.5s-10.5 4.5 -16.5 4.5c-12 0 -19 -12 -21 -36h-59zM242.004 568c-26 0 -46 -20.3311 -60 -60.998s-21 -97.334 -21 -170.001
c0 -154 27.333 -231 82 -231c14 0 25.833 6 35.5 18s17.667 28.5 24 49.5s10.833 46 13.5 75s4 60.5 4 94.5c0 29.333 -1.16699 57.666 -3.5 84.999s-6.5 51.333 -12.5 72s-14 37.167 -24 49.5s-22.667 18.5 -38 18.5zM248.004 682.002
c40.667 0 74.334 -10.168 101.001 -30.501s48 -46.5 64 -78.5s27.167 -67.667 33.5 -107s9.5 -78.333 9.5 -117c0 -63.333 -5.33301 -117.666 -16 -162.999s-25.667 -82.333 -45 -111s-42.333 -49.667 -69 -63s-56 -20 -88 -20c-38 0 -70.5 9.33301 -97.5 28s-49 44 -66 76
s-29.5 69 -37.5 111s-12 86 -12 132s4.66699 89.667 14 131s23.166 77.833 41.499 109.5s41.5 56.667 69.5 75s60.667 27.5 98 27.5z" />
    <glyph glyph-name="Odieresis" unicode="&#xd6;" horiz-adv-x="481" 
d="M331 715c-16 0 -29.832 6.16699 -41.499 18.5s-17.5 27.5 -17.5 45.5c0 17.333 6 32.166 18 44.499s26 18.5 42 18.5s29.833 -6.16699 41.5 -18.5s17.5 -27.166 17.5 -44.499c0 -18 -5.83301 -33.167 -17.5 -45.5s-25.834 -18.5 -42.501 -18.5zM146.001 715
c-15.333 0 -28.832 6.16699 -40.499 18.5s-17.5 27.5 -17.5 45.5c0 17.333 6 32.166 18 44.499s25.667 18.5 41 18.5c16 0 29.833 -6.16699 41.5 -18.5s17.5 -27.166 17.5 -44.499c0 -18 -5.83301 -33.167 -17.5 -45.5s-25.834 -18.5 -42.501 -18.5zM242.002 568
c-26 0 -46 -20.3311 -60 -60.998s-21 -97.334 -21 -170.001c0 -154 27.333 -231 82 -231c14 0 25.833 6 35.5 18s17.667 28.5 24 49.5s10.833 46 13.5 75s4 60.5 4 94.5c0 29.333 -1.16699 57.666 -3.5 84.999s-6.5 51.333 -12.5 72s-14 37.167 -24 49.5
s-22.667 18.5 -38 18.5zM248.002 682.002c40.667 0 74.334 -10.168 101.001 -30.501s48 -46.5 64 -78.5s27.167 -67.667 33.5 -107s9.5 -78.333 9.5 -117c0 -63.333 -5.33301 -117.666 -16 -162.999s-25.667 -82.333 -45 -111s-42.333 -49.667 -69 -63s-56 -20 -88 -20
c-38 0 -70.5 9.33301 -97.5 28s-49 44 -66 76s-29.5 69 -37.5 111s-12 86 -12 132s4.66699 89.667 14 131s23.166 77.833 41.499 109.5s41.5 56.667 69.5 75s60.667 27.5 98 27.5z" />
    <glyph glyph-name="multiply" unicode="&#xd7;" horiz-adv-x="596" 
d="M96 526l202 -205l202 205l56 -59l-200 -204l200 -202l-59 -61l-199 204l-200 -204l-58 61l199 202l-199 204z" />
    <glyph glyph-name="Oslash" unicode="&#xd8;" horiz-adv-x="481" 
d="M188 139c5.33301 -11.333 13 -19.667 23 -25s20.333 -8 31 -8c28 0 49.333 20 64 60s22 99 22 177c0 16 -0.333008 32.333 -1 49s-2 33.667 -4 51h-2zM289 539.999c-10.667 18.667 -26.333 28 -47 28c-27.333 0 -49 -19.167 -65 -57.5s-24 -95.166 -24 -170.499
c0 -16.667 0.333008 -33.834 1 -51.501s2 -35.5 4 -53.5h2zM41.001 -15.001l42.998 96c-21.333 32.667 -36.5 71.334 -45.5 116.001s-13.5 92 -13.5 142c0 45.333 4.5 88.666 13.5 129.999s22.5 77.666 40.5 108.999s40.667 56.5 68 75.5s59.333 28.5 96 28.5
c36 0 68 -9 96 -27l31 70l69 -29l-42 -95c11.333 -16.667 20.833 -35.334 28.5 -56.001s13.834 -42 18.501 -64s7.83398 -44.167 9.50098 -66.5s2.5 -44.166 2.5 -65.499c0 -63.333 -5.33301 -117.666 -16 -162.999s-25.5 -82.333 -44.5 -111s-41.667 -49.667 -68 -63
s-55.166 -20 -86.499 -20c-38.667 0 -72.334 10.333 -101.001 31l-33 -74z" />
    <glyph glyph-name="Ugrave" unicode="&#xd9;" horiz-adv-x="500" 
d="M235 823l82 -113h-93l-122 113h133zM185 674l0.000976562 -438.001c0 -24.667 1.66699 -45.334 5 -62.001s8 -30 14 -40s12.833 -17 20.5 -21s15.834 -6 24.501 -6c9.33301 0 18 2 26 6s14.833 10.833 20.5 20.5s10.167 22.834 13.5 39.501s5 37.667 5 63v438h131v-415
c0 -87.333 -16.333 -153.666 -49 -198.999s-81.334 -68 -146.001 -68c-35.333 0 -65.333 6 -90 18s-44.834 29.333 -60.501 52s-27.167 50.5 -34.5 83.5s-11 70.5 -11 112.5v416h131z" />
    <glyph glyph-name="Uacute" unicode="&#xda;" horiz-adv-x="500" 
d="M396 823l-122 -113h-93l82 113h133zM185 674l0.000976562 -438.001c0 -24.667 1.66699 -45.334 5 -62.001s8 -30 14 -40s12.833 -17 20.5 -21s15.834 -6 24.501 -6c9.33301 0 18 2 26 6s14.833 10.833 20.5 20.5s10.167 22.834 13.5 39.501s5 37.667 5 63v438h131v-415
c0 -87.333 -16.333 -153.666 -49 -198.999s-81.334 -68 -146.001 -68c-35.333 0 -65.333 6 -90 18s-44.834 29.333 -60.501 52s-27.167 50.5 -34.5 83.5s-11 70.5 -11 112.5v416h131z" />
    <glyph glyph-name="Ucircumflex" unicode="&#xdb;" horiz-adv-x="500" 
d="M304 820l84 -110h-96l-39 52h-2l-38 -52h-93l81 110h103zM185 674l0.000976562 -438.001c0 -24.667 1.66699 -45.334 5 -62.001s8 -30 14 -40s12.833 -17 20.5 -21s15.834 -6 24.501 -6c9.33301 0 18 2 26 6s14.833 10.833 20.5 20.5s10.167 22.834 13.5 39.501
s5 37.667 5 63v438h131v-415c0 -87.333 -16.333 -153.666 -49 -198.999s-81.334 -68 -146.001 -68c-35.333 0 -65.333 6 -90 18s-44.834 29.333 -60.501 52s-27.167 50.5 -34.5 83.5s-11 70.5 -11 112.5v416h131z" />
    <glyph glyph-name="Udieresis" unicode="&#xdc;" horiz-adv-x="500" 
d="M340 715c-16 0 -29.832 6.16699 -41.499 18.5s-17.5 27.5 -17.5 45.5c0 17.333 6 32.166 18 44.499s26 18.5 42 18.5s29.833 -6.16699 41.5 -18.5s17.5 -27.166 17.5 -44.499c0 -18 -5.83301 -33.167 -17.5 -45.5s-25.834 -18.5 -42.501 -18.5zM156.001 715
c-15.333 0 -28.832 6.16699 -40.499 18.5s-17.5 27.5 -17.5 45.5c0 17.333 6 32.166 18 44.499s25.667 18.5 41 18.5c16 0 29.833 -6.16699 41.5 -18.5s17.5 -27.166 17.5 -44.499c0 -18 -5.83301 -33.167 -17.5 -45.5s-25.834 -18.5 -42.501 -18.5zM185.002 674
l0.000976562 -438.001c0 -24.667 1.66699 -45.334 5 -62.001s8 -30 14 -40s12.833 -17 20.5 -21s15.834 -6 24.501 -6c9.33301 0 18 2 26 6s14.833 10.833 20.5 20.5s10.167 22.834 13.5 39.501s5 37.667 5 63v438h131v-415c0 -87.333 -16.333 -153.666 -49 -198.999
s-81.334 -68 -146.001 -68c-35.333 0 -65.333 6 -90 18s-44.834 29.333 -60.501 52s-27.167 50.5 -34.5 83.5s-11 70.5 -11 112.5v416h131z" />
    <glyph glyph-name="Yacute" unicode="&#xdd;" horiz-adv-x="402" 
d="M362 823l-122 -113h-93l82 113h133zM133 0v257.998l-148 416h140l45 -161c6.66699 -21.333 13 -44.166 19 -68.499s11.667 -49.166 17 -74.499h2c4 24.667 8.66699 49.167 14 73.5s11 48.5 17 72.5l40 158h136l-151 -411v-263h-131z" />
    <glyph glyph-name="Thorn" unicode="&#xde;" horiz-adv-x="453" 
d="M186 250c4 -1.33301 8.50098 -2.16699 13.501 -2.5s10.167 -0.5 15.5 -0.5c29.333 0 51.666 10 66.999 30s23 45.333 23 76c0 28.667 -6.33301 52.667 -19 72s-34.667 29 -66 29c-14 0 -25.333 -1.33301 -34 -4v-200zM58.001 673.999l128 -0.000976562v-116
c6 0.666992 12.5 1.16699 19.5 1.5s14.5 0.5 22.5 0.5c27.333 0 53.166 -2.83301 77.499 -8.5s47.166 -18.167 68.499 -37.5s36.5 -42.166 45.5 -68.499s13.5 -53.833 13.5 -82.5c0 -42 -6.66699 -77.333 -20 -106s-30.166 -51.667 -50.499 -69s-42.833 -29.833 -67.5 -37.5
s-48.667 -11.5 -72 -11.5c-15.333 0 -27.666 1 -36.999 3v-142h-128v674z" />
    <glyph glyph-name="germandbls" unicode="&#xdf;" horiz-adv-x="493" 
d="M46 0l0.00585938 432.008c0 54.667 5.66699 98 17 130s27.666 58.667 48.999 80c40 38.667 90.333 58 151 58c30 0 56.333 -4.5 79 -13.5s41.5 -21.333 56.5 -37s26.167 -33.667 33.5 -54s11 -42.166 11 -65.499c0 -14 -2.16699 -28.167 -6.5 -42.5
s-9.83301 -25.833 -16.5 -34.5c-15.333 -8.66699 -27.5 -18.834 -36.5 -30.501s-13.5 -24.167 -13.5 -37.5s3.16699 -25.333 9.5 -36s15.166 -23 26.499 -37c23.333 -26.667 39.833 -51.667 49.5 -75s14.5 -50 14.5 -80c0 -24.667 -4.33301 -47.167 -13 -67.5
s-20.667 -37.833 -36 -52.5s-33.5 -25.834 -54.5 -33.501s-43.5 -11.5 -67.5 -11.5c-32.667 0 -61.334 4.33301 -86.001 13l15 100c9.33301 -4.66699 19.166 -7.83398 29.499 -9.50098s21.166 -2.5 32.499 -2.5c19.333 0 33.666 5.5 42.999 16.5s14 23.167 14 36.5
c0 15.333 -3.5 29.166 -10.5 41.499s-17.833 27.166 -32.5 44.499c-18 21.333 -32.333 41.666 -43 60.999s-16 42.666 -16 69.999c0 25.333 6.5 48.166 19.5 68.499s28.833 36.166 47.5 47.499c3.33301 7.33301 5.33301 15 6 23s1 15.667 1 23c0 21.333 -6 38.333 -18 51
s-27 19 -45 19c-11.333 0 -21.833 -2.66699 -31.5 -8s-18 -14 -25 -26s-12.5 -27.667 -16.5 -47s-6 -43 -6 -71v-443h-131z" />
    <glyph glyph-name="agrave" unicode="&#xe0;" horiz-adv-x="422" 
d="M192 689l69 -140h-82l-101 140h114zM247 238c-10.667 0 -22.168 -1.33398 -34.501 -4.00098s-23.666 -7 -33.999 -13s-18.833 -14.333 -25.5 -25s-10 -24.667 -10 -42c0 -24 5.33301 -41 16 -51s21 -15 31 -15c11.333 0 22 3.33301 32 10s17.333 17.334 22 32.001
c2 7.33301 3 15 3 23v85zM375.999 111.999c0 -19.333 0.499023 -38.667 1.49902 -58s2.83301 -37.333 5.5 -54h-117l-7 48h-3c-13.333 -18.667 -29.333 -32.667 -48 -42s-38.667 -14 -60 -14c-18.667 0 -35.834 3.66699 -51.501 11s-29.167 17.5 -40.5 30.5
s-20.333 28.667 -27 47s-10 38.166 -10 59.499c0 32 6.5 59.5 19.5 82.5s30 41.833 51 56.5s44.833 25.5 71.5 32.5s54 10.5 82 10.5v11c0 19.333 -5.66699 35.333 -17 48s-28.666 19 -51.999 19c-19.333 0 -37 -2.5 -53 -7.5s-31.667 -12.167 -47 -21.5l-24 89
c14 7.33301 34.333 15.333 61 24s57.334 13 92.001 13c37.333 0 67.333 -6 90 -18s40.167 -27.5 52.5 -46.5s20.5 -40.667 24.5 -65s6 -49.166 6 -74.499v-181z" />
    <glyph glyph-name="aacute" unicode="&#xe1;" horiz-adv-x="422" 
d="M344 689l-101 -140h-82l69 140h114zM247 238c-10.667 0 -22.168 -1.33398 -34.501 -4.00098s-23.666 -7 -33.999 -13s-18.833 -14.333 -25.5 -25s-10 -24.667 -10 -42c0 -24 5.33301 -41 16 -51s21 -15 31 -15c11.333 0 22 3.33301 32 10s17.333 17.334 22 32.001
c2 7.33301 3 15 3 23v85zM375.999 111.999c0 -19.333 0.499023 -38.667 1.49902 -58s2.83301 -37.333 5.5 -54h-117l-7 48h-3c-13.333 -18.667 -29.333 -32.667 -48 -42s-38.667 -14 -60 -14c-18.667 0 -35.834 3.66699 -51.501 11s-29.167 17.5 -40.5 30.5
s-20.333 28.667 -27 47s-10 38.166 -10 59.499c0 32 6.5 59.5 19.5 82.5s30 41.833 51 56.5s44.833 25.5 71.5 32.5s54 10.5 82 10.5v11c0 19.333 -5.66699 35.333 -17 48s-28.666 19 -51.999 19c-19.333 0 -37 -2.5 -53 -7.5s-31.667 -12.167 -47 -21.5l-24 89
c14 7.33301 34.333 15.333 61 24s57.334 13 92.001 13c37.333 0 67.333 -6 90 -18s40.167 -27.5 52.5 -46.5s20.5 -40.667 24.5 -65s6 -49.166 6 -74.499v-181z" />
    <glyph glyph-name="acircumflex" unicode="&#xe2;" horiz-adv-x="422" 
d="M256 689l85 -140h-89l-40 80h-2l-40 -80h-91l86 140h91zM247 238c-10.667 0 -22.168 -1.33398 -34.501 -4.00098s-23.666 -7 -33.999 -13s-18.833 -14.333 -25.5 -25s-10 -24.667 -10 -42c0 -24 5.33301 -41 16 -51s21 -15 31 -15c11.333 0 22 3.33301 32 10
s17.333 17.334 22 32.001c2 7.33301 3 15 3 23v85zM375.999 111.999c0 -19.333 0.499023 -38.667 1.49902 -58s2.83301 -37.333 5.5 -54h-117l-7 48h-3c-13.333 -18.667 -29.333 -32.667 -48 -42s-38.667 -14 -60 -14c-18.667 0 -35.834 3.66699 -51.501 11
s-29.167 17.5 -40.5 30.5s-20.333 28.667 -27 47s-10 38.166 -10 59.499c0 32 6.5 59.5 19.5 82.5s30 41.833 51 56.5s44.833 25.5 71.5 32.5s54 10.5 82 10.5v11c0 19.333 -5.66699 35.333 -17 48s-28.666 19 -51.999 19c-19.333 0 -37 -2.5 -53 -7.5
s-31.667 -12.167 -47 -21.5l-24 89c14 7.33301 34.333 15.333 61 24s57.334 13 92.001 13c37.333 0 67.333 -6 90 -18s40.167 -27.5 52.5 -46.5s20.5 -40.667 24.5 -65s6 -49.166 6 -74.499v-181z" />
    <glyph glyph-name="atilde" unicode="&#xe3;" horiz-adv-x="422" 
d="M88 557c0 32 5.83008 59.502 17.4971 82.502s29.5 34.5 53.5 34.5c12.667 0 23.5 -2 32.5 -6l25.5 -11c6 -4 12 -7.66699 18 -11s12.333 -5 19 -5c6 0 11 2.16699 15 6.5s6 14.5 6 30.5h58c0 -40 -6.33301 -69 -19 -87s-29.667 -27 -51 -27
c-9.33301 0 -18.666 1.66699 -27.999 5s-17.666 6.66602 -24.999 9.99902c-8 4 -14.667 7.83301 -20 11.5s-11.666 5.5 -18.999 5.5c-6 0 -11.333 -3.33301 -16 -10s-7 -16.334 -7 -29.001h-60zM246.997 238.002c-10.667 0 -22.168 -1.33398 -34.501 -4.00098
s-23.666 -7 -33.999 -13s-18.833 -14.333 -25.5 -25s-10 -24.667 -10 -42c0 -24 5.33301 -41 16 -51s21 -15 31 -15c11.333 0 22 3.33301 32 10s17.333 17.334 22 32.001c2 7.33301 3 15 3 23v85zM375.996 112.001c0 -19.333 0.499023 -38.667 1.49902 -58
s2.83301 -37.333 5.5 -54h-117l-7 48h-3c-13.333 -18.667 -29.333 -32.667 -48 -42s-38.667 -14 -60 -14c-18.667 0 -35.834 3.66699 -51.501 11s-29.167 17.5 -40.5 30.5s-20.333 28.667 -27 47s-10 38.166 -10 59.499c0 32 6.5 59.5 19.5 82.5s30 41.833 51 56.5
s44.833 25.5 71.5 32.5s54 10.5 82 10.5v11c0 19.333 -5.66699 35.333 -17 48s-28.666 19 -51.999 19c-19.333 0 -37 -2.5 -53 -7.5s-31.667 -12.167 -47 -21.5l-24 89c14 7.33301 34.333 15.333 61 24s57.334 13 92.001 13c37.333 0 67.333 -6 90 -18
s40.167 -27.5 52.5 -46.5s20.5 -40.667 24.5 -65s6 -49.166 6 -74.499v-181z" />
    <glyph glyph-name="adieresis" unicode="&#xe4;" horiz-adv-x="422" 
d="M298 560c-16 0 -29.832 6 -41.499 18s-17.5 27.333 -17.5 46s6 34 18 46s26 18 42 18c17.333 0 31.666 -5.83301 42.999 -17.5s17 -27.167 17 -46.5c0 -18.667 -5.66699 -34 -17 -46s-26 -18 -44 -18zM120.001 560c-16 0 -29.832 6 -41.499 18s-17.5 27.333 -17.5 46
s6 34 18 46s26 18 42 18c17.333 0 31.666 -5.83301 42.999 -17.5s17 -27.167 17 -46.5c0 -18.667 -5.5 -34 -16.5 -46s-25.167 -18 -42.5 -18h-2zM247.002 238c-10.667 0 -22.168 -1.33398 -34.501 -4.00098s-23.666 -7 -33.999 -13s-18.833 -14.333 -25.5 -25
s-10 -24.667 -10 -42c0 -24 5.33301 -41 16 -51s21 -15 31 -15c11.333 0 22 3.33301 32 10s17.333 17.334 22 32.001c2 7.33301 3 15 3 23v85zM376.001 111.999c0 -19.333 0.499023 -38.667 1.49902 -58s2.83301 -37.333 5.5 -54h-117l-7 48h-3
c-13.333 -18.667 -29.333 -32.667 -48 -42s-38.667 -14 -60 -14c-18.667 0 -35.834 3.66699 -51.501 11s-29.167 17.5 -40.5 30.5s-20.333 28.667 -27 47s-10 38.166 -10 59.499c0 32 6.5 59.5 19.5 82.5s30 41.833 51 56.5s44.833 25.5 71.5 32.5s54 10.5 82 10.5v11
c0 19.333 -5.66699 35.333 -17 48s-28.666 19 -51.999 19c-19.333 0 -37 -2.5 -53 -7.5s-31.667 -12.167 -47 -21.5l-24 89c14 7.33301 34.333 15.333 61 24s57.334 13 92.001 13c37.333 0 67.333 -6 90 -18s40.167 -27.5 52.5 -46.5s20.5 -40.667 24.5 -65
s6 -49.166 6 -74.499v-181z" />
    <glyph glyph-name="aring" unicode="&#xe5;" horiz-adv-x="422" 
d="M212 582c16 0 26.8311 5.33301 32.498 16s8.5 21.334 8.5 32.001c0 11.333 -2.66699 22.166 -8 32.499s-16.666 15.5 -33.999 15.5c-15.333 0 -25.666 -5.5 -30.999 -16.5s-8 -22.167 -8 -33.5c0 -8.66699 2.83301 -18.5 8.5 -29.5s16.167 -16.5 31.5 -16.5zM212.998 539
c-34 0 -59.666 8.5 -76.999 25.5s-26 37.833 -26 62.5c0 26 8.33301 48.167 25 66.5s43 27.5 79 27.5c34 0 59.333 -8.5 76 -25.5s25 -38.833 25 -65.5c0 -25.333 -8.83301 -46.833 -26.5 -64.5s-42.834 -26.5 -75.501 -26.5zM246.999 238
c-10.667 0 -22.168 -1.33398 -34.501 -4.00098s-23.666 -7 -33.999 -13s-18.833 -14.333 -25.5 -25s-10 -24.667 -10 -42c0 -24 5.33301 -41 16 -51s21 -15 31 -15c10.667 0 21.167 3.33301 31.5 10s17.833 17.334 22.5 32.001c2 7.33301 3 15 3 23v85zM375.998 111.999
c0 -19.333 0.499023 -38.667 1.49902 -58s2.83301 -37.333 5.5 -54h-117l-7 48h-3c-13.333 -18.667 -29.333 -32.667 -48 -42s-38.667 -14 -60 -14c-18.667 0 -35.834 3.66699 -51.501 11s-29.167 17.5 -40.5 30.5s-20.333 28.667 -27 47s-10 38.166 -10 59.499
c0 32 6.5 59.5 19.5 82.5s30 41.833 51 56.5s44.833 25.5 71.5 32.5s54 10.5 82 10.5v11c0 19.333 -5.66699 35.333 -17 48s-28.666 19 -51.999 19c-19.333 0 -37 -2.5 -53 -7.5s-31.667 -12.167 -47 -21.5l-24 89c14 7.33301 34.333 15.333 61 24s57.334 13 92.001 13
c37.333 0 67.333 -6 90 -18s40.167 -27.5 52.5 -46.5s20.5 -40.667 24.5 -65s6 -49.166 6 -74.499v-181z" />
    <glyph glyph-name="ae" unicode="&#xe6;" horiz-adv-x="633" 
d="M485 299c0 14 -0.832031 27.335 -2.49902 40.002s-4.66699 24 -9 34s-10 18 -17 24s-15.5 9 -25.5 9c-10.667 0 -19.834 -3.5 -27.501 -10.5s-14 -15.833 -19 -26.5s-8.83301 -22.334 -11.5 -35.001s-4 -24.334 -4 -35.001h116zM242.001 234.002
c-10.667 0 -22.333 -1.16699 -35 -3.5s-24.167 -6.5 -34.5 -12.5s-19 -14.333 -26 -25s-10.5 -24.667 -10.5 -42c0 -21.333 5.5 -36.833 16.5 -46.5s22.167 -14.5 33.5 -14.5s21.833 3.66699 31.5 11s16.5 18 20.5 32c2.66699 7.33301 4 16.333 4 27v74zM369.002 214.002
c0 -22.667 2.83203 -42.0039 8.49902 -58.0039s13.334 -28.833 23.001 -38.5s21 -16.667 34 -21s26.833 -6.5 41.5 -6.5c18 0 34.5 1.83301 49.5 5.5s28.5 8.5 40.5 14.5l18 -91c-21.333 -10.667 -43.166 -17.834 -65.499 -21.501s-44.166 -5.5 -65.499 -5.5
c-33.333 0 -64 7 -92 21s-48.667 35.333 -62 64h-3c-33.333 -56.667 -80.666 -85 -141.999 -85c-19.333 0 -37.333 3.83301 -54 11.5s-31 18.334 -43 32.001s-21.333 29.834 -28 48.501s-10 39.334 -10 62.001c0 30 6.33301 55.833 19 77.5s29.5 39.167 50.5 52.5
s44.667 23.333 71 30s53.166 10 80.499 10v15c0 19.333 -6.33301 35.666 -19 48.999s-31.667 20 -57 20c-16 0 -32.333 -2.66699 -49 -8s-30.334 -11.666 -41.001 -18.999l-24 87c18.667 11.333 40.167 20.333 64.5 27s49.166 10 74.499 10c30 0 56 -6.5 78 -19.5
s38 -32.167 48 -57.5h2c15.333 26 34.333 45.333 57 58s48 19 76 19c47.333 0 84.833 -20.167 112.5 -60.5s41.5 -97.166 41.5 -170.499c0 -9.33301 -0.333008 -18.166 -1 -26.499l-2 -25.5h-232z" />
    <glyph glyph-name="ccedilla" unicode="&#xe7;" horiz-adv-x="323" 
d="M317 9c-6.66699 -3.33301 -16.999 -6.49902 -30.999 -9.49902s-29.667 -4.83301 -47 -5.5l-20 -38c17.333 -3.33301 32.833 -11.5 46.5 -24.5s20.5 -29.167 20.5 -48.5c0 -16 -3.16699 -29.5 -9.5 -40.5s-14.5 -20 -24.5 -27s-21.667 -12 -35 -15s-27 -4.5 -41 -4.5
c-13.333 0 -26.833 1.66699 -40.5 5s-25.167 7.66602 -34.5 12.999l19 56c8 -4 16.5 -7.33301 25.5 -10s17.833 -4 26.5 -4c8 0 15.333 1.83301 22 5.5s10 10.167 10 19.5c0 20.667 -22.667 33 -68 37l37 84c-44.667 12 -79.834 37.833 -105.501 77.5
s-38.5 92.834 -38.5 159.501c0 38 5.33301 72.667 16 104s25.834 58.166 45.501 80.499s43.167 39.833 70.5 52.5s58 19 92 19c15.333 0 29.5 -1.33301 42.5 -4s22.5 -5.66699 28.5 -9l-17 -103c-5.33301 2 -12 4 -20 6s-17.333 3 -28 3c-32 0 -56.667 -13.5 -74 -40.5
s-26 -61.833 -26 -104.5c0 -44 8.66699 -78.667 26 -104s41.333 -38 72 -38c19.333 0 35.666 3.33301 48.999 10z" />
    <glyph glyph-name="egrave" unicode="&#xe8;" horiz-adv-x="419" 
d="M207 689l69 -140h-82l-101 140h114zM272 290c0 32 -4.33301 58.667 -13 80s-22.667 32 -42 32c-10.667 0 -19.667 -3.5 -27 -10.5s-13.5 -16 -18.5 -27s-8.83301 -23.167 -11.5 -36.5s-4 -26 -4 -38h116zM156 198c0.666992 -38 10.832 -64.835 30.499 -80.502
s43.834 -23.5 72.501 -23.5c18.667 0 35.834 1.66699 51.501 5s29.5 7 41.5 11l17 -94c-16.667 -6.66699 -36.834 -12 -60.501 -16s-47.834 -6 -72.501 -6c-67.333 0 -118.666 21 -153.999 63s-53 101.333 -53 178c0 41.333 5 78.333 15 111s23.833 60.167 41.5 82.5
s38.5 39.5 62.5 51.5s49.667 18 77 18c52.667 0 93.5 -20 122.5 -60s43.5 -97.333 43.5 -172c0 -17.333 -0.333008 -31.166 -1 -41.499s-1.66699 -19.166 -3 -26.499h-231z" />
    <glyph glyph-name="eacute" unicode="&#xe9;" horiz-adv-x="419" 
d="M362 689l-101 -140h-82l69 140h114zM272 290c0 32 -4.33301 58.667 -13 80s-22.667 32 -42 32c-10.667 0 -19.667 -3.5 -27 -10.5s-13.5 -16 -18.5 -27s-8.83301 -23.167 -11.5 -36.5s-4 -26 -4 -38h116zM156 198c0.666992 -38 10.832 -64.835 30.499 -80.502
s43.834 -23.5 72.501 -23.5c18.667 0 35.834 1.66699 51.501 5s29.5 7 41.5 11l17 -94c-16.667 -6.66699 -36.834 -12 -60.501 -16s-47.834 -6 -72.501 -6c-67.333 0 -118.666 21 -153.999 63s-53 101.333 -53 178c0 41.333 5 78.333 15 111s23.833 60.167 41.5 82.5
s38.5 39.5 62.5 51.5s49.667 18 77 18c52.667 0 93.5 -20 122.5 -60s43.5 -97.333 43.5 -172c0 -17.333 -0.333008 -31.166 -1 -41.499s-1.66699 -19.166 -3 -26.499h-231z" />
    <glyph glyph-name="ecircumflex" unicode="&#xea;" horiz-adv-x="419" 
d="M270 689l85 -140h-89l-41 80h-2l-39 -80h-91l86 140h91zM272 290c0 32 -4.33301 58.667 -13 80s-22.667 32 -42 32c-10.667 0 -19.667 -3.5 -27 -10.5s-13.5 -16 -18.5 -27s-8.83301 -23.167 -11.5 -36.5s-4 -26 -4 -38h116zM156 198
c0.666992 -38 10.832 -64.835 30.499 -80.502s43.834 -23.5 72.501 -23.5c18.667 0 35.834 1.66699 51.501 5s29.5 7 41.5 11l17 -94c-16.667 -6.66699 -36.834 -12 -60.501 -16s-47.834 -6 -72.501 -6c-67.333 0 -118.666 21 -153.999 63s-53 101.333 -53 178
c0 41.333 5 78.333 15 111s23.833 60.167 41.5 82.5s38.5 39.5 62.5 51.5s49.667 18 77 18c52.667 0 93.5 -20 122.5 -60s43.5 -97.333 43.5 -172c0 -17.333 -0.333008 -31.166 -1 -41.499s-1.66699 -19.166 -3 -26.499h-231z" />
    <glyph glyph-name="edieresis" unicode="&#xeb;" horiz-adv-x="419" 
d="M316 560c-16 0 -29.832 6 -41.499 18s-17.5 27.333 -17.5 46s6 34 18 46s26 18 42 18c17.333 0 31.666 -5.83301 42.999 -17.5s17 -27.167 17 -46.5c0 -18.667 -5.66699 -34 -17 -46s-26 -18 -44 -18zM138.001 560c-16 0 -29.832 6 -41.499 18s-17.5 27.333 -17.5 46
s6 34 18 46s26 18 42 18c17.333 0 31.666 -5.83301 42.999 -17.5s17 -27.167 17 -46.5c0 -18.667 -5.66699 -34 -17 -46s-26 -18 -44 -18zM272.002 290c0 32 -4.33301 58.667 -13 80s-22.667 32 -42 32c-10.667 0 -19.667 -3.5 -27 -10.5s-13.5 -16 -18.5 -27
s-8.83301 -23.167 -11.5 -36.5s-4 -26 -4 -38h116zM156.002 198c0.666992 -38 10.832 -64.835 30.499 -80.502s43.834 -23.5 72.501 -23.5c18.667 0 35.834 1.66699 51.501 5s29.5 7 41.5 11l17 -94c-16.667 -6.66699 -36.834 -12 -60.501 -16s-47.834 -6 -72.501 -6
c-67.333 0 -118.666 21 -153.999 63s-53 101.333 -53 178c0 41.333 5 78.333 15 111s23.833 60.167 41.5 82.5s38.5 39.5 62.5 51.5s49.667 18 77 18c52.667 0 93.5 -20 122.5 -60s43.5 -97.333 43.5 -172c0 -17.333 -0.333008 -31.166 -1 -41.499
s-1.66699 -19.166 -3 -26.499h-231z" />
    <glyph glyph-name="igrave" unicode="&#xec;" horiz-adv-x="223" 
d="M90 689l69 -140h-82l-101 140h114zM46 0v489h131v-489h-131z" />
    <glyph glyph-name="iacute" unicode="&#xed;" horiz-adv-x="223" 
d="M249 689l-101 -140h-82l68 140h115zM46 0v489h131v-489h-131z" />
    <glyph glyph-name="icircumflex" unicode="&#xee;" horiz-adv-x="223" 
d="M158 689l85 -140h-89l-40 80h-2l-40 -80h-91l86 140h91zM46 0v489h131v-489h-131z" />
    <glyph glyph-name="idieresis" unicode="&#xef;" horiz-adv-x="223" 
d="M199 560c-16 0 -29.832 6 -41.499 18s-17.5 27.333 -17.5 46s6 34 18 46s26 18 42 18c17.333 0 31.666 -5.83301 42.999 -17.5s17 -27.167 17 -46.5c0 -18.667 -5.66699 -34 -17 -46s-26 -18 -44 -18zM22.001 560c-16 0 -29.832 6 -41.499 18s-17.5 27.333 -17.5 46
s6 34 18 46s26 18 42 18c17.333 0 31.666 -5.83301 42.999 -17.5s17 -27.167 17 -46.5c0 -18.667 -5.66699 -34 -17 -46s-26 -18 -44 -18zM46.002 0v489h131v-489h-131z" />
    <glyph glyph-name="eth" unicode="&#xf0;" horiz-adv-x="431" 
d="M57 547l81.002 42.998c-8 8 -17.5 16.333 -28.5 25l-33.5 26l75 67c13.333 -8.66699 27.166 -18.667 41.499 -30s28.833 -23.666 43.5 -36.999l93 49l27 -46l-80 -42c17.333 -17.333 32.833 -36.666 46.5 -57.999s26.5 -43.666 38.5 -66.999
c15.333 -32 26 -66.167 32 -102.5s9 -74.5 9 -114.5c0 -54 -6.16699 -98.333 -18.5 -133s-28 -62 -47 -82s-39.5 -33.833 -61.5 -41.5s-42.667 -11.5 -62 -11.5c-58.667 0 -104 22 -136 66s-48 105.667 -48 185c0 38.667 4.33301 72.334 13 101.001s20.167 52.667 34.5 72
s30.5 34.5 48.5 45.5s36.333 17.833 55 20.5c10 1.33301 19.5 1.66602 28.5 0.999023s18.167 -3.33398 27.5 -8.00098l2 4c-7.33301 13.333 -15.833 26.833 -25.5 40.5s-19.834 25.167 -30.501 34.5l-97 -51zM218.002 91.998c11.333 0 20.5 4.33496 27.5 13.002
s12.5 20 16.5 34s6.66699 29.833 8 47.5s2 35.5 2 53.5c0 23.333 -0.333008 44.666 -1 63.999s-3.33398 36.333 -8.00098 51c-4 13.333 -9.33301 24.166 -16 32.499s-16.334 12.5 -29.001 12.5s-22.834 -5.33301 -30.501 -16s-13.667 -24 -18 -40
s-7.16602 -32.833 -8.49902 -50.5s-2 -33.5 -2 -47.5c0 -21.333 1 -41.333 3 -60s5.33301 -35 10 -49s10.834 -25 18.501 -33s16.834 -12 27.501 -12z" />
    <glyph glyph-name="ntilde" unicode="&#xf1;" horiz-adv-x="458" 
d="M110 557c0 32 5.83008 59.502 17.4971 82.502s29.5 34.5 53.5 34.5c12.667 0 23.5 -2 32.5 -6l25.5 -11c6 -4 11.833 -7.66699 17.5 -11s12.167 -5 19.5 -5c6 0 11 2.16699 15 6.5s6 14.5 6 30.5h58c0 -40 -6.33301 -69 -19 -87s-29.667 -27 -51 -27
c-9.33301 0 -18.666 1.66699 -27.999 5s-17.666 6.66602 -24.999 9.99902c-8 4 -14.667 7.83301 -20 11.5s-11.666 5.5 -18.999 5.5c-6.66699 0 -12.167 -3.33301 -16.5 -10s-6.5 -16.334 -6.5 -29.001h-60zM45.9971 342.002c0 26.667 -0.333984 51.999 -1.00098 75.999
s-1.66699 47.667 -3 71h113l7 -56h2c12.667 19.333 29.167 34.833 49.5 46.5s43.166 17.5 68.499 17.5c23.333 0 43.166 -4.5 59.499 -13.5s29.833 -21.5 40.5 -37.5s18.334 -35.167 23.001 -57.5s7 -47.166 7 -74.499v-314h-131v306c0 10 -0.666992 20 -2 30
s-3.83301 18.667 -7.5 26s-8.66699 13.333 -15 18s-14.166 7 -23.499 7c-23.333 0 -39.666 -14.667 -48.999 -44c-4.66699 -11.333 -7 -26.333 -7 -45v-298h-131v342z" />
    <glyph glyph-name="ograve" unicode="&#xf2;" horiz-adv-x="431" 
d="M198 689l69 -140h-82l-101 140h114zM217 398c-12 0 -21.834 -4.83203 -29.501 -14.499s-13.5 -21.834 -17.5 -36.501s-6.83301 -31 -8.5 -49s-2.5 -35.333 -2.5 -52c0 -20.667 1 -40.334 3 -59.001s5.16699 -35 9.5 -49s10.333 -25.167 18 -33.5s17.5 -12.5 29.5 -12.5
c10.667 0 19.5 4.66699 26.5 14s12.5 21.333 16.5 36s6.83301 31.167 8.5 49.5s2.5 36.5 2.5 54.5c0 16.667 -0.833008 34 -2.5 52s-4.5 34.333 -8.5 49s-9.66699 26.834 -17 36.501s-16.666 14.5 -27.999 14.5zM217.999 498.001c58.667 0 104.17 -22.5 136.503 -67.5
s48.5 -106.5 48.5 -184.5c0 -50.667 -6.33301 -92.5 -19 -125.5s-28.334 -59 -47.001 -78s-38.834 -32.167 -60.501 -39.5s-41.834 -11 -60.501 -11c-58.667 0 -104.5 21.833 -137.5 65.5s-49.5 105.5 -49.5 185.5c0 44 5.33301 82 16 114s24.667 58.5 42 79.5
s37.5 36.5 60.5 46.5s46.5 15 70.5 15z" />
    <glyph glyph-name="oacute" unicode="&#xf3;" horiz-adv-x="431" 
d="M357 689l-101 -140h-82l69 140h114zM217 398c-12 0 -21.834 -4.83203 -29.501 -14.499s-13.5 -21.834 -17.5 -36.501s-6.83301 -31 -8.5 -49s-2.5 -35.333 -2.5 -52c0 -20.667 1 -40.334 3 -59.001s5.16699 -35 9.5 -49s10.333 -25.167 18 -33.5s17.5 -12.5 29.5 -12.5
c10.667 0 19.5 4.66699 26.5 14s12.5 21.333 16.5 36s6.83301 31.167 8.5 49.5s2.5 36.5 2.5 54.5c0 16.667 -0.833008 34 -2.5 52s-4.5 34.333 -8.5 49s-9.66699 26.834 -17 36.501s-16.666 14.5 -27.999 14.5zM217.999 498.001c58.667 0 104.17 -22.5 136.503 -67.5
s48.5 -106.5 48.5 -184.5c0 -50.667 -6.33301 -92.5 -19 -125.5s-28.334 -59 -47.001 -78s-38.834 -32.167 -60.501 -39.5s-41.834 -11 -60.501 -11c-58.667 0 -104.5 21.833 -137.5 65.5s-49.5 105.5 -49.5 185.5c0 44 5.33301 82 16 114s24.667 58.5 42 79.5
s37.5 36.5 60.5 46.5s46.5 15 70.5 15z" />
    <glyph glyph-name="ocircumflex" unicode="&#xf4;" horiz-adv-x="431" 
d="M262 689l85 -140h-89l-40 80h-2l-40 -80h-91l86 140h91zM217 398c-12 0 -21.834 -4.83203 -29.501 -14.499s-13.5 -21.834 -17.5 -36.501s-6.83301 -31 -8.5 -49s-2.5 -35.333 -2.5 -52c0 -20.667 1 -40.334 3 -59.001s5.16699 -35 9.5 -49s10.333 -25.167 18 -33.5
s17.5 -12.5 29.5 -12.5c10.667 0 19.5 4.66699 26.5 14s12.5 21.333 16.5 36s6.83301 31.167 8.5 49.5s2.5 36.5 2.5 54.5c0 16.667 -0.833008 34 -2.5 52s-4.5 34.333 -8.5 49s-9.66699 26.834 -17 36.501s-16.666 14.5 -27.999 14.5zM217.999 498.001
c58.667 0 104.17 -22.5 136.503 -67.5s48.5 -106.5 48.5 -184.5c0 -50.667 -6.33301 -92.5 -19 -125.5s-28.334 -59 -47.001 -78s-38.834 -32.167 -60.501 -39.5s-41.834 -11 -60.501 -11c-58.667 0 -104.5 21.833 -137.5 65.5s-49.5 105.5 -49.5 185.5
c0 44 5.33301 82 16 114s24.667 58.5 42 79.5s37.5 36.5 60.5 46.5s46.5 15 70.5 15z" />
    <glyph glyph-name="otilde" unicode="&#xf5;" horiz-adv-x="431" 
d="M93 557c0 32 5.83008 59.502 17.4971 82.502s29.5 34.5 53.5 34.5c12.667 0 23.5 -2 32.5 -6l25.5 -11c6 -4 12 -7.66699 18 -11s12.333 -5 19 -5c6 0 11 2.16699 15 6.5s6 14.5 6 30.5h58c0 -40 -6.33301 -69 -19 -87s-29.667 -27 -51 -27
c-9.33301 0 -18.666 1.66699 -27.999 5s-17.666 6.66602 -24.999 9.99902c-8 4 -14.667 7.83301 -20 11.5s-11.666 5.5 -18.999 5.5c-6 0 -11.333 -3.33301 -16 -10s-7 -16.334 -7 -29.001h-60zM216.997 398.002c-12 0 -21.834 -4.83203 -29.501 -14.499
s-13.5 -21.834 -17.5 -36.501s-6.83301 -31 -8.5 -49s-2.5 -35.333 -2.5 -52c0 -20.667 1 -40.334 3 -59.001s5.16699 -35 9.5 -49s10.333 -25.167 18 -33.5s17.5 -12.5 29.5 -12.5c10.667 0 19.5 4.66699 26.5 14s12.5 21.333 16.5 36s6.83301 31.167 8.5 49.5
s2.5 36.5 2.5 54.5c0 16.667 -0.833008 34 -2.5 52s-4.5 34.333 -8.5 49s-9.66699 26.834 -17 36.501s-16.666 14.5 -27.999 14.5zM217.996 498.003c58.667 0 104.17 -22.5 136.503 -67.5s48.5 -106.5 48.5 -184.5c0 -50.667 -6.33301 -92.5 -19 -125.5
s-28.334 -59 -47.001 -78s-38.834 -32.167 -60.501 -39.5s-41.834 -11 -60.501 -11c-58.667 0 -104.5 21.833 -137.5 65.5s-49.5 105.5 -49.5 185.5c0 44 5.33301 82 16 114s24.667 58.5 42 79.5s37.5 36.5 60.5 46.5s46.5 15 70.5 15z" />
    <glyph glyph-name="odieresis" unicode="&#xf6;" horiz-adv-x="431" 
d="M303 560c-16 0 -29.832 6 -41.499 18s-17.5 27.333 -17.5 46s6 34 18 46s26 18 42 18c17.333 0 31.666 -5.83301 42.999 -17.5s17 -27.167 17 -46.5c0 -18.667 -5.66699 -34 -17 -46s-26 -18 -44 -18zM125.001 560c-16 0 -29.832 6 -41.499 18s-17.5 27.333 -17.5 46
s6 34 18 46s26 18 42 18c17.333 0 31.666 -5.83301 42.999 -17.5s17 -27.167 17 -46.5c0 -18.667 -5.66699 -34 -17 -46s-26 -18 -44 -18zM217.002 398c-12 0 -21.834 -4.83203 -29.501 -14.499s-13.5 -21.834 -17.5 -36.501s-6.83301 -31 -8.5 -49s-2.5 -35.333 -2.5 -52
c0 -20.667 1 -40.334 3 -59.001s5.16699 -35 9.5 -49s10.333 -25.167 18 -33.5s17.5 -12.5 29.5 -12.5c10.667 0 19.5 4.66699 26.5 14s12.5 21.333 16.5 36s6.83301 31.167 8.5 49.5s2.5 36.5 2.5 54.5c0 16.667 -0.833008 34 -2.5 52s-4.5 34.333 -8.5 49
s-9.66699 26.834 -17 36.501s-16.666 14.5 -27.999 14.5zM218.001 498.001c58.667 0 104.17 -22.5 136.503 -67.5s48.5 -106.5 48.5 -184.5c0 -50.667 -6.33301 -92.5 -19 -125.5s-28.334 -59 -47.001 -78s-38.834 -32.167 -60.501 -39.5s-41.834 -11 -60.501 -11
c-58.667 0 -104.5 21.833 -137.5 65.5s-49.5 105.5 -49.5 185.5c0 44 5.33301 82 16 114s24.667 58.5 42 79.5s37.5 36.5 60.5 46.5s46.5 15 70.5 15z" />
    <glyph glyph-name="divide" unicode="&#xf7;" horiz-adv-x="596" 
d="M297 34c-17.333 0 -31.167 5.83301 -41.5 17.5s-15.5 26.167 -15.5 43.5s5.5 31.833 16.5 43.5s25.167 17.5 42.5 17.5s31.333 -5.83301 42 -17.5s16 -26.167 16 -43.5s-5 -31.833 -15 -43.5s-25 -17.5 -45 -17.5zM39.999 226v82h516v-82h-516zM296.999 378
c-17.333 0 -31.167 5.83301 -41.5 17.5s-15.5 26.167 -15.5 43.5s5.5 31.833 16.5 43.5s25.167 17.5 42.5 17.5s31.333 -5.83301 42 -17.5s16 -26.167 16 -43.5s-5 -31.833 -15 -43.5s-25 -17.5 -45 -17.5z" />
    <glyph glyph-name="oslash" unicode="&#xf8;" horiz-adv-x="431" 
d="M179 118c6 -17.333 18.667 -25.999 38 -25.999c12 0 22.167 4.16699 30.5 12.5s15 19.166 20 32.499s8.5 28.333 10.5 45s3 33.667 3 51c0 10 -0.166992 20.667 -0.5 32s-1.5 23 -3.5 35h-4zM255 373.001c-7.33301 16.667 -20.666 25.001 -39.999 25.001
c-14 0 -25.333 -5.33301 -34 -16s-15.334 -23.834 -20.001 -39.501s-7.66699 -32.334 -9 -50.001s-2 -33.167 -2 -46.5c0 -9.33301 0.333008 -19.166 1 -29.499s1.66699 -20.833 3 -31.5l3 -3zM218 498.002c30.667 0 59.668 -8.33203 87.001 -24.999l32 58l58 -32l-40 -72
c15.333 -21.333 27 -47.333 35 -78s12 -65 12 -103c0 -50.667 -6.16699 -92.5 -18.5 -125.5s-27.833 -59 -46.5 -78s-38.834 -32.167 -60.501 -39.5s-41.5 -11 -59.5 -11c-34.667 0 -65 8 -91 24l-32 -57l-55 36l38 67c-32 43.333 -48 103.666 -48 180.999
c0 44 5.33301 82 16 114s24.667 58.5 42 79.5s37.5 36.5 60.5 46.5s46.5 15 70.5 15z" />
    <glyph glyph-name="ugrave" unicode="&#xf9;" horiz-adv-x="452" 
d="M211 689l69 -140h-82l-101 140h114zM404 149c0 -26 0.333008 -51.5 1 -76.5s1.66699 -49.167 3 -72.5h-113l-7 52h-2c-11.333 -16.667 -26.833 -30.834 -46.5 -42.501s-42.167 -17.5 -67.5 -17.5c-46.667 0 -80 16.833 -100 50.5s-30 83.834 -30 150.501v296h131v-282
c0 -32 3.66699 -57.5 11 -76.5s20 -28.5 38 -28.5c11.333 0 20.5 3.5 27.5 10.5s12.167 14.5 15.5 22.5c5.33301 10.667 8 24.667 8 42v312h131v-340z" />
    <glyph glyph-name="uacute" unicode="&#xfa;" horiz-adv-x="452" 
d="M366 689l-101 -140h-82l68 140h115zM404 149c0 -26 0.333008 -51.5 1 -76.5s1.66699 -49.167 3 -72.5h-113l-7 52h-2c-11.333 -16.667 -26.833 -30.834 -46.5 -42.501s-42.167 -17.5 -67.5 -17.5c-46.667 0 -80 16.833 -100 50.5s-30 83.834 -30 150.501v296h131v-282
c0 -32 3.66699 -57.5 11 -76.5s20 -28.5 38 -28.5c11.333 0 20.5 3.5 27.5 10.5s12.167 14.5 15.5 22.5c5.33301 10.667 8 24.667 8 42v312h131v-340z" />
    <glyph glyph-name="ucircumflex" unicode="&#xfb;" horiz-adv-x="452" 
d="M273 689l85 -140h-89l-41 80h-2l-39 -80h-91l85 140h92zM404 149c0 -26 0.333008 -51.5 1 -76.5s1.66699 -49.167 3 -72.5h-113l-7 52h-2c-11.333 -16.667 -26.833 -30.834 -46.5 -42.501s-42.167 -17.5 -67.5 -17.5c-46.667 0 -80 16.833 -100 50.5
s-30 83.834 -30 150.501v296h131v-282c0 -32 3.66699 -57.5 11 -76.5s20 -28.5 38 -28.5c11.333 0 20.5 3.5 27.5 10.5s12.167 14.5 15.5 22.5c5.33301 10.667 8 24.667 8 42v312h131v-340z" />
    <glyph glyph-name="udieresis" unicode="&#xfc;" horiz-adv-x="452" 
d="M316 560c-16 0 -29.832 6 -41.499 18s-17.5 27.333 -17.5 46s6 34 18 46s26 18 42 18c17.333 0 31.666 -5.83301 42.999 -17.5s17 -27.167 17 -46.5c0 -18.667 -5.5 -34 -16.5 -46s-25.167 -18 -42.5 -18h-2zM139.001 560c-16 0 -29.832 6 -41.499 18
s-17.5 27.333 -17.5 46s6 34 18 46s26 18 42 18c17.333 0 31.666 -5.83301 42.999 -17.5s17 -27.167 17 -46.5c0 -18.667 -5.66699 -34 -17 -46s-26 -18 -44 -18zM404.002 149c0 -26 0.333008 -51.5 1 -76.5s1.66699 -49.167 3 -72.5h-113l-7 52h-2
c-11.333 -16.667 -26.833 -30.834 -46.5 -42.501s-42.167 -17.5 -67.5 -17.5c-46.667 0 -80 16.833 -100 50.5s-30 83.834 -30 150.501v296h131v-282c0 -32 3.66699 -57.5 11 -76.5s20 -28.5 38 -28.5c11.333 0 20.5 3.5 27.5 10.5s12.167 14.5 15.5 22.5
c5.33301 10.667 8 24.667 8 42v312h131v-340z" />
    <glyph glyph-name="yacute" unicode="&#xfd;" horiz-adv-x="391" 
d="M334 689l-101 -140h-82l68 140h115zM145 489l47.9971 -255c3.33301 -14.667 6 -28.667 8 -42l6 -40h2l6 39.5l6 40.5l40 257h129l-100 -378c-12 -46 -26.5 -91.167 -43.5 -135.5s-38.833 -82.166 -65.5 -113.499c-21.333 -24.667 -42.666 -43 -63.999 -55
s-37 -19.333 -47 -22l-40 113c22.667 8.66699 44.334 22 65.001 40c9.33301 8.66699 17.333 18 24 28s12.334 20.333 17.001 31c2 4 3.66699 7.66699 5 11s2 6.66602 2 9.99902s-0.333008 6.33301 -1 9s-1.66699 5.66699 -3 9l-135 453h141z" />
    <glyph glyph-name="thorn" unicode="&#xfe;" horiz-adv-x="447" 
d="M176 180c0 -20.667 2.66797 -35.666 8.00098 -44.999c4.66699 -14 10.667 -23.5 18 -28.5s14.666 -7.5 21.999 -7.5c12 0 22 3.83301 30 11.5s14.5 18.167 19.5 31.5s8.66699 28.833 11 46.5s3.5 36.167 3.5 55.5c0 46 -5.33301 81.333 -16 106s-25.667 37 -45 37
c-10 0 -19 -3.83301 -27 -11.5s-13.667 -16.834 -17 -27.501c-4.66699 -10 -7 -22.333 -7 -37v-131zM175.001 672.001v-242h2c10 21.333 23.167 38 39.5 50s35.833 18 58.5 18c24.667 0 46 -6.83301 64 -20.5s32.833 -32 44.5 -55s20.334 -49.833 26.001 -80.5
s8.5 -63 8.5 -97c0 -43.333 -4.33301 -80.833 -13 -112.5s-20 -58 -34 -79s-30 -36.5 -48 -46.5s-36.333 -15 -55 -15c-24 0 -43.333 5.5 -58 16.5s-25.334 23.167 -32.001 36.5h-2v-237h-131v864h130z" />
    <glyph glyph-name="ydieresis" unicode="&#xff;" horiz-adv-x="391" 
d="M287 560c-16 0 -29.832 6 -41.499 18s-17.5 27.333 -17.5 46s6 34 18 46s26 18 42 18c17.333 0 31.666 -5.83301 42.999 -17.5s17 -27.167 17 -46.5c0 -18.667 -5.66699 -34 -17 -46s-26 -18 -44 -18zM109.001 560c-16 0 -29.832 6 -41.499 18s-17.5 27.333 -17.5 46
s6 34 18 46s26 18 42 18c17.333 0 31.666 -5.83301 42.999 -17.5s17 -27.167 17 -46.5c0 -18.667 -5.66699 -34 -17 -46s-26 -18 -44 -18zM145.002 489l47.9971 -255c3.33301 -14.667 6 -28.667 8 -42l6 -40h2l6 39.5l6 40.5l40 257h129l-100 -378
c-12 -46 -26.5 -91.167 -43.5 -135.5s-38.833 -82.166 -65.5 -113.499c-21.333 -24.667 -42.666 -43 -63.999 -55s-37 -19.333 -47 -22l-40 113c22.667 8.66699 44.334 22 65.001 40c9.33301 8.66699 17.333 18 24 28s12.334 20.333 17.001 31c2 4 3.66699 7.66699 5 11
s2 6.66602 2 9.99902s-0.333008 6.33301 -1 9s-1.66699 5.66699 -3 9l-135 453h141z" />
    <glyph glyph-name="Amacron" unicode="&#x100;" horiz-adv-x="458" 
d="M347 815v-79h-235v79h235zM274 256l-22 140.999c-2 10 -3.83301 21.667 -5.5 35s-3.5 26.833 -5.5 40.5l-6 41c-2 13.667 -3.66699 25.834 -5 36.501h-3c-2 -11.333 -4 -23.833 -6 -37.5l-6 -41.5l-6 -40s-4 -24 -6 -34l-25 -141h96zM165 153.999l-30 -154h-127l146 674
h157l131 -674h-127l-29 154h-121z" />
    <glyph glyph-name="amacron" unicode="&#x101;" horiz-adv-x="422" 
d="M317 656v-75h-212v75h212zM247 238c-10.667 0 -22.168 -1.33398 -34.501 -4.00098s-23.666 -7 -33.999 -13s-18.833 -14.333 -25.5 -25s-10 -24.667 -10 -42c0 -24 5.33301 -41 16 -51s21 -15 31 -15c11.333 0 22 3.33301 32 10s17.333 17.334 22 32.001
c2 7.33301 3 15 3 23v85zM375.999 111.999c0 -19.333 0.499023 -38.667 1.49902 -58s2.83301 -37.333 5.5 -54h-117l-7 48h-3c-13.333 -18.667 -29.333 -32.667 -48 -42s-38.667 -14 -60 -14c-18.667 0 -35.834 3.66699 -51.501 11s-29.167 17.5 -40.5 30.5
s-20.333 28.667 -27 47s-10 38.166 -10 59.499c0 32 6.5 59.5 19.5 82.5s30 41.833 51 56.5s44.833 25.5 71.5 32.5s54 10.5 82 10.5v11c0 19.333 -5.66699 35.333 -17 48s-28.666 19 -51.999 19c-19.333 0 -37 -2.5 -53 -7.5s-31.667 -12.167 -47 -21.5l-24 89
c14 7.33301 34.333 15.333 61 24s57.334 13 92.001 13c37.333 0 67.333 -6 90 -18s40.167 -27.5 52.5 -46.5s20.5 -40.667 24.5 -65s6 -49.166 6 -74.499v-181z" />
    <glyph glyph-name="Abreve" unicode="&#x102;" horiz-adv-x="458" 
d="M179 825c0.666992 -13.333 5.33301 -24.001 14 -32.001s20.667 -12 36 -12s27.333 4 36 12s13.667 18.667 15 32h70c0 -35.333 -10 -63.666 -30 -84.999s-50 -32 -90 -32c-40.667 0 -71 10.5 -91 31.5s-30 49.5 -30 85.5h70zM273.999 255.999l-22 140.999
c-2 10 -3.83301 21.667 -5.5 35s-3.5 26.833 -5.5 40.5l-6 41c-2 13.667 -3.66699 25.834 -5 36.501h-3c-2 -11.333 -4 -23.833 -6 -37.5l-6 -41.5l-6 -40s-4 -24 -6 -34l-25 -141h96zM164.999 153.998l-30 -154h-127l146 674h157l131 -674h-127l-29 154h-121z" />
    <glyph glyph-name="abreve" unicode="&#x103;" horiz-adv-x="422" 
d="M157 679c1.33301 -17.333 6.82812 -30.498 16.4951 -39.498s21.834 -13.5 36.501 -13.5c18 0 31.667 5.33301 41 16s14 23 14 37h64c1.33301 -36 -9.16699 -66 -31.5 -90s-52.166 -36 -89.499 -36c-18 0 -34.167 3.16699 -48.5 9.5s-26.666 15.166 -36.999 26.499
s-18.166 24.666 -23.499 39.999s-7.66602 32 -6.99902 50h65zM246.995 238.002c-10.667 0 -22.168 -1.33398 -34.501 -4.00098s-23.666 -7 -33.999 -13s-18.833 -14.333 -25.5 -25s-10 -24.667 -10 -42c0 -24 5.33301 -41 16 -51s21 -15 31 -15c11.333 0 22 3.33301 32 10
s17.333 17.334 22 32.001c2 7.33301 3 15 3 23v85zM375.994 112.001c0 -19.333 0.499023 -38.667 1.49902 -58s2.83301 -37.333 5.5 -54h-117l-7 48h-3c-13.333 -18.667 -29.333 -32.667 -48 -42s-38.667 -14 -60 -14c-18.667 0 -35.834 3.66699 -51.501 11
s-29.167 17.5 -40.5 30.5s-20.333 28.667 -27 47s-10 38.166 -10 59.499c0 32 6.5 59.5 19.5 82.5s30 41.833 51 56.5s44.833 25.5 71.5 32.5s54 10.5 82 10.5v11c0 19.333 -5.66699 35.333 -17 48s-28.666 19 -51.999 19c-19.333 0 -37 -2.5 -53 -7.5
s-31.667 -12.167 -47 -21.5l-24 89c14 7.33301 34.333 15.333 61 24s57.334 13 92.001 13c37.333 0 67.333 -6 90 -18s40.167 -27.5 52.5 -46.5s20.5 -40.667 24.5 -65s6 -49.166 6 -74.499v-181z" />
    <glyph glyph-name="Aogonek" unicode="&#x104;" horiz-adv-x="458" 
d="M274 256l-22 140.998c-1.33301 10 -3 21.667 -5 35l-6 40.5c-2 13.667 -3.83301 27.334 -5.5 41.001s-3.5 25.834 -5.5 36.501h-3c-2 -11.333 -4 -23.833 -6 -37.5l-6 -41.5l-6 -40.5c-2 -13 -4 -24.167 -6 -33.5l-24 -141h95zM442 -0.00195312l-47.002 -0.00195312
c-7.33301 -12 -13.666 -24.833 -18.999 -38.5s-8 -26.834 -8 -39.501c0 -12 3.83301 -22 11.5 -30s17.167 -12 28.5 -12c16 0 29 2 39 6l16 -66c-14.667 -10 -29.667 -16.667 -45 -20s-29.666 -5 -42.999 -5c-32.667 0 -57 8.83301 -73 26.5s-24 40.834 -24 69.501
c0 12 1.33301 23.667 4 35s6 21.833 10 31.5s8 18.334 12 26.001s7.33301 13.834 10 18.501l-28 152h-121l-30 -154h-127l146 674h157z" />
    <glyph glyph-name="aogonek" unicode="&#x105;" horiz-adv-x="422" 
d="M247 238c-10.667 0 -22.168 -1.33398 -34.501 -4.00098s-23.666 -7 -33.999 -13s-18.833 -14.333 -25.5 -25s-10 -24.667 -10 -42c0 -24 5.33301 -41 16 -51s21 -15 31 -15c11.333 0 22 3.33301 32 10s17.333 17.334 22 32.001c2 6 3 13.667 3 23v85zM375.999 111.999
c0 -22 0.498047 -42.1699 1.49805 -60.5029s2.83301 -35.5 5.5 -51.5h-38c-7.33301 -12 -13.333 -25 -18 -39s-7 -27.667 -7 -41c0 -12 3.83301 -22 11.5 -30s17.167 -12 28.5 -12c17.333 0 30.333 2 39 6l16 -66c-14.667 -10.667 -29.667 -17.5 -45 -20.5
s-29.666 -4.5 -42.999 -4.5c-32.667 0 -57 8.83301 -73 26.5s-24 40.834 -24 69.501c0 12 1.33301 23.667 4 35s6 21.833 10 31.5s8 18.334 12 26.001s7.33301 13.834 10 18.501l-7 48h-3c-13.333 -18.667 -29.333 -32.667 -48 -42s-38.667 -14 -60 -14
c-18.667 0 -35.834 3.66699 -51.501 11s-29.167 17.5 -40.5 30.5s-20.333 28.667 -27 47s-10 38.166 -10 59.499c0 32 6.5 59.5 19.5 82.5s30 41.833 51 56.5s44.833 25.5 71.5 32.5s54 10.5 82 10.5v11c0 19.333 -5.66699 35.333 -17 48s-28.666 19 -51.999 19
c-19.333 0 -37 -2.5 -53 -7.5s-31.667 -12.167 -47 -21.5l-24 89c14 7.33301 34.333 15.333 61 24s57.334 13 92.001 13c37.333 0 67.333 -6 90 -18s40.167 -27.5 52.5 -46.5s20.5 -40.667 24.5 -65s6 -49.166 6 -74.499v-181z" />
    <glyph glyph-name="Cacute" unicode="&#x106;" horiz-adv-x="395" 
d="M408 823l-122 -113h-93l82 113h133zM381 10c-9.33301 -4.66699 -22.8291 -8.50098 -40.4961 -11.501s-37.834 -4.5 -60.501 -4.5c-43.333 0 -81 8.33301 -113 25s-58.5 39.834 -79.5 69.501s-36.667 64.834 -47 105.501s-15.5 85 -15.5 133c0 63.333 8 117.333 24 162
s37 81.167 63 109.5s55.167 49 87.5 62s64.833 19.5 97.5 19.5c23.333 0 42.666 -1.83301 57.999 -5.5s26.333 -7.83398 33 -12.501l-22 -110c-7.33301 3.33301 -15.666 6.33301 -24.999 9s-21.333 4 -36 4c-18.667 0 -36.5 -4.16699 -53.5 -12.5s-32 -21.833 -45 -40.5
s-23.333 -42.5 -31 -71.5s-11.5 -64.5 -11.5 -106.5c0 -40 3.66699 -74.167 11 -102.5s17.166 -51.5 29.499 -69.5s27.166 -31.167 44.499 -39.5s36 -12.5 56 -12.5c11.333 0 22.666 1 33.999 3s21 4.33301 29 7z" />
    <glyph glyph-name="cacute" unicode="&#x107;" horiz-adv-x="323" 
d="M344 689l-101 -140h-82l69 140h114zM317 8c-6.66699 -3.33301 -17.5 -6.49902 -32.5 -9.49902s-31.833 -4.5 -50.5 -4.5c-62 0 -111.667 21 -149 63s-56 102.667 -56 182c0 38 5.33301 72.667 16 104s25.834 58.166 45.501 80.499s43.167 39.833 70.5 52.5s58 19 92 19
c15.333 0 29.5 -1.33301 42.5 -4s22.833 -5.66699 29.5 -9l-17 -103c-5.33301 2 -12 4 -20 6s-17.667 3 -29 3c-32 0 -56.667 -13.5 -74 -40.5s-26 -61.833 -26 -104.5c0 -44 8.66699 -78.667 26 -104s41.333 -38 72 -38c19.333 0 35.666 3.33301 48.999 10z" />
    <glyph glyph-name="Ccircumflex" unicode="&#x108;" horiz-adv-x="395" 
d="M301 820l84 -110h-96l-39 52h-2l-38 -52h-93l81 110h103zM381 10c-9.33301 -4.66699 -22.8291 -8.50098 -40.4961 -11.501s-37.834 -4.5 -60.501 -4.5c-43.333 0 -81 8.33301 -113 25s-58.5 39.834 -79.5 69.501s-36.667 64.834 -47 105.501s-15.5 85 -15.5 133
c0 63.333 8 117.333 24 162s37 81.167 63 109.5s55.167 49 87.5 62s64.833 19.5 97.5 19.5c23.333 0 42.666 -1.83301 57.999 -5.5s26.333 -7.83398 33 -12.501l-22 -110c-7.33301 3.33301 -15.666 6.33301 -24.999 9s-21.333 4 -36 4c-18.667 0 -36.5 -4.16699 -53.5 -12.5
s-32 -21.833 -45 -40.5s-23.333 -42.5 -31 -71.5s-11.5 -64.5 -11.5 -106.5c0 -40 3.66699 -74.167 11 -102.5s17.166 -51.5 29.499 -69.5s27.166 -31.167 44.499 -39.5s36 -12.5 56 -12.5c11.333 0 22.666 1 33.999 3s21 4.33301 29 7z" />
    <glyph glyph-name="ccircumflex" unicode="&#x109;" horiz-adv-x="323" 
d="M250 689l85 -140h-89l-41 80h-2l-39 -80h-91l86 140h91zM317 8c-6.66699 -3.33301 -17.5 -6.49902 -32.5 -9.49902s-31.833 -4.5 -50.5 -4.5c-62 0 -111.667 21 -149 63s-56 102.667 -56 182c0 38 5.33301 72.667 16 104s25.834 58.166 45.501 80.499
s43.167 39.833 70.5 52.5s58 19 92 19c15.333 0 29.5 -1.33301 42.5 -4s22.833 -5.66699 29.5 -9l-17 -103c-5.33301 2 -12 4 -20 6s-17.667 3 -29 3c-32 0 -56.667 -13.5 -74 -40.5s-26 -61.833 -26 -104.5c0 -44 8.66699 -78.667 26 -104s41.333 -38 72 -38
c19.333 0 35.666 3.33301 48.999 10z" />
    <glyph glyph-name="Cdotaccent" unicode="&#x10a;" horiz-adv-x="395" 
d="M252 713c-16.667 0 -30.999 6.33301 -42.999 19s-18 27.667 -18 45c0 18 6.16699 33.167 18.5 45.5s26.833 18.5 43.5 18.5c17.333 0 32.166 -6.16699 44.499 -18.5s18.5 -27.5 18.5 -45.5c0 -17.333 -6.16699 -32.333 -18.5 -45s-27.5 -19 -45.5 -19zM381.001 10
c-9.33301 -4.66699 -22.8291 -8.50098 -40.4961 -11.501s-37.834 -4.5 -60.501 -4.5c-43.333 0 -81 8.33301 -113 25s-58.5 39.834 -79.5 69.501s-36.667 64.834 -47 105.501s-15.5 85 -15.5 133c0 63.333 8 117.333 24 162s37 81.167 63 109.5s55.167 49 87.5 62
s64.833 19.5 97.5 19.5c23.333 0 42.666 -1.83301 57.999 -5.5s26.333 -7.83398 33 -12.501l-22 -110c-7.33301 3.33301 -15.666 6.33301 -24.999 9s-21.333 4 -36 4c-18.667 0 -36.5 -4.16699 -53.5 -12.5s-32 -21.833 -45 -40.5s-23.333 -42.5 -31 -71.5
s-11.5 -64.5 -11.5 -106.5c0 -40 3.66699 -74.167 11 -102.5s17.166 -51.5 29.499 -69.5s27.166 -31.167 44.499 -39.5s36 -12.5 56 -12.5c11.333 0 22.666 1 33.999 3s21 4.33301 29 7z" />
    <glyph glyph-name="cdotaccent" unicode="&#x10b;" horiz-adv-x="323" 
d="M202 560c-16 0 -29.832 6 -41.499 18s-17.5 27.333 -17.5 46s6 34 18 46s26 18 42 18c17.333 0 31.666 -5.83301 42.999 -17.5s17 -27.167 17 -46.5c0 -18.667 -5.66699 -34 -17 -46s-26 -18 -44 -18zM317.001 8c-6.66699 -3.33301 -17.5 -6.49902 -32.5 -9.49902
s-31.833 -4.5 -50.5 -4.5c-62 0 -111.667 21 -149 63s-56 102.667 -56 182c0 38 5.33301 72.667 16 104s25.834 58.166 45.501 80.499s43.167 39.833 70.5 52.5s58 19 92 19c15.333 0 29.5 -1.33301 42.5 -4s22.833 -5.66699 29.5 -9l-17 -103c-5.33301 2 -12 4 -20 6
s-17.667 3 -29 3c-32 0 -56.667 -13.5 -74 -40.5s-26 -61.833 -26 -104.5c0 -44 8.66699 -78.667 26 -104s41.333 -38 72 -38c19.333 0 35.666 3.33301 48.999 10z" />
    <glyph glyph-name="Ccaron" unicode="&#x10c;" horiz-adv-x="395" 
d="M210 710l-84 110h96l39 -52h2l38 52h93l-81 -110h-103zM381 10c-9.33301 -4.66699 -22.8291 -8.50098 -40.4961 -11.501s-37.834 -4.5 -60.501 -4.5c-43.333 0 -81 8.33301 -113 25s-58.5 39.834 -79.5 69.501s-36.667 64.834 -47 105.501s-15.5 85 -15.5 133
c0 63.333 8 117.333 24 162s37 81.167 63 109.5s55.167 49 87.5 62s64.833 19.5 97.5 19.5c23.333 0 42.666 -1.83301 57.999 -5.5s26.333 -7.83398 33 -12.501l-22 -110c-7.33301 3.33301 -15.666 6.33301 -24.999 9s-21.333 4 -36 4c-18.667 0 -36.5 -4.16699 -53.5 -12.5
s-32 -21.833 -45 -40.5s-23.333 -42.5 -31 -71.5s-11.5 -64.5 -11.5 -106.5c0 -40 3.66699 -74.167 11 -102.5s17.166 -51.5 29.499 -69.5s27.166 -31.167 44.499 -39.5s36 -12.5 56 -12.5c11.333 0 22.666 1 33.999 3s21 4.33301 29 7z" />
    <glyph glyph-name="ccaron" unicode="&#x10d;" horiz-adv-x="323" 
d="M157 549l-85 140h89l41 -80h2l40 80h91l-87 -140h-91zM317 8c-6.66699 -3.33301 -17.5 -6.49902 -32.5 -9.49902s-31.833 -4.5 -50.5 -4.5c-62 0 -111.667 21 -149 63s-56 102.667 -56 182c0 38 5.33301 72.667 16 104s25.834 58.166 45.501 80.499
s43.167 39.833 70.5 52.5s58 19 92 19c15.333 0 29.5 -1.33301 42.5 -4s22.833 -5.66699 29.5 -9l-17 -103c-5.33301 2 -12 4 -20 6s-17.667 3 -29 3c-32 0 -56.667 -13.5 -74 -40.5s-26 -61.833 -26 -104.5c0 -44 8.66699 -78.667 26 -104s41.333 -38 72 -38
c19.333 0 35.666 3.33301 48.999 10z" />
    <glyph glyph-name="Dcaron" unicode="&#x10e;" horiz-adv-x="491" 
d="M166 710l-84 110h96l39 -52h2l38 52h93l-81 -110h-103zM189 104c3.33301 -1.33301 7.16699 -2 11.5 -2h11.5c16 0 31 4.16699 45 12.5s26.5 22.166 37.5 41.499s19.667 44.833 26 76.5s9.5 70.834 9.5 117.501c0 69.333 -9.16699 123.666 -27.5 162.999
s-47.5 59 -87.5 59c-4.66699 0 -9.16699 -0.166992 -13.5 -0.5s-8.5 -1.16602 -12.5 -2.49902v-465zM58.001 664c16.667 4 36.5 7.16797 59.5 9.50098s47.5 3.5 73.5 3.5c42.667 0 79.167 -5 109.5 -15s56.166 -25 77.499 -45c29.333 -26 51.333 -61.333 66 -106
s22 -100 22 -166c0 -68.667 -8.16699 -126.834 -24.5 -174.501s-39.5 -84.5 -69.5 -110.5c-23.333 -21.333 -51.666 -37.5 -84.999 -48.5s-73.333 -16.5 -120 -16.5c-21.333 0 -41.5 0.833008 -60.5 2.5s-35.167 3.5 -48.5 5.5v661z" />
    <glyph glyph-name="dcaron" unicode="&#x10f;" horiz-adv-x="457" 
d="M443 528c7.33301 9.33301 14.333 21.667 21 37s10 32.333 10 51c0 14.667 -3 27.667 -9 39s-12.333 20.333 -19 27l81 13c8.66699 -5.33301 16.5 -14.5 23.5 -27.5s10.5 -28.167 10.5 -45.5s-2.66699 -33 -8 -47s-11.666 -26.5 -18.999 -37.5s-14.833 -20.333 -22.5 -28
s-13.834 -13.5 -18.501 -17.5zM270 301.001l0.000976562 14.501c0 5 -0.666992 9.83301 -2 14.5c-2 15.333 -6.83301 28.666 -14.5 39.999s-18.167 17 -31.5 17c-11.333 0 -21 -3.83301 -29 -11.5s-14.5 -18.167 -19.5 -31.5s-8.66699 -28.833 -11 -46.5
s-3.5 -36.5 -3.5 -56.5c0 -46.667 5.66699 -82 17 -106s26 -36 44 -36c8.66699 0 17.167 2.83301 25.5 8.5s15.166 17.167 20.499 34.5c2.66699 6 4 16.333 4 31v128zM401.001 692.002l-0.00195312 -547.003c0 -23.333 0.333008 -47.666 1 -72.999s1.66699 -49.333 3 -72
h-113l-7 55h-3c-9.33301 -17.333 -23 -32.166 -41 -44.499s-38 -18.5 -60 -18.5c-26 0 -48.5 6.66699 -67.5 20s-34.833 31.5 -47.5 54.5s-22 49.833 -28 80.5s-9 63 -9 97c0 42.667 4.33301 79.834 13 111.501s20.334 58 35.001 79s31.334 36.833 50.001 47.5
s38.334 16 59.001 16c21.333 0 38.666 -4.83301 51.999 -14.5s23.333 -21.5 30 -35.5h2v244h131z" />
    <glyph glyph-name="Dcroat" unicode="&#x110;" horiz-adv-x="493" 
d="M265 303l-73.999 -0.000976562v-200c3.33301 -1.33301 7.16602 -2 11.499 -2h11.5c16 0 31.167 4.16699 45.5 12.5s27 22.333 38 42s19.667 45.334 26 77.001s9.5 70.834 9.5 117.501c0 69.333 -9.33301 123.666 -28 162.999s-48 59 -88 59c-9.33301 0 -18 -1 -26 -3
v-175h74v-91zM0.000976562 393.999h60v270c16.667 4 36.5 7.16699 59.5 9.5s47.5 3.5 73.5 3.5c43.333 0 80.166 -5 110.499 -15s56.166 -25 77.499 -45c29.333 -26 51.333 -61.333 66 -106s22 -100 22 -166c0 -68.667 -8.16699 -127 -24.5 -175s-39.5 -85 -69.5 -111
c-23.333 -21.333 -51.666 -37.5 -84.999 -48.5s-73.666 -16.5 -120.999 -16.5c-21.333 0 -41.5 0.833008 -60.5 2.5s-35.167 3.5 -48.5 5.5v301h-60v91z" />
    <glyph glyph-name="dcroat" unicode="&#x111;" horiz-adv-x="447" 
d="M270 301l0.000976562 14.501c0 5 -0.666992 9.83301 -2 14.5c-2 15.333 -6.83301 28.666 -14.5 39.999s-18.167 17 -31.5 17c-11.333 0 -21 -3.83301 -29 -11.5s-14.5 -18.167 -19.5 -31.5s-8.66699 -28.833 -11 -46.5s-3.5 -36.5 -3.5 -56.5
c0 -46.667 5.66699 -82 17 -106s26 -36 44 -36c8.66699 0 17.167 2.83301 25.5 8.5s15.166 17.167 20.499 34.5c2.66699 6 4 16.333 4 31v128zM401.001 533.001l-0.00195312 -388.003c0 -23.333 0.333008 -47.666 1 -72.999s1.66699 -49.333 3 -72h-113l-7 55h-3
c-9.33301 -17.333 -23 -32.166 -41 -44.499s-38 -18.5 -60 -18.5c-26 0 -48.5 6.66699 -67.5 20s-34.833 31.5 -47.5 54.5s-22 49.833 -28 80.5s-9 63 -9 97c0 42.667 4.33301 79.834 13 111.501s20.334 58 35.001 79s31.334 36.833 50.001 47.5s38.334 16 59.001 16
c21.333 0 38.666 -4.83301 51.999 -14.5s23.333 -21.5 30 -35.5h2v85h-128v82h128v77h131v-77h60v-82h-60z" />
    <glyph glyph-name="Emacron" unicode="&#x112;" horiz-adv-x="394" 
d="M320 815v-79h-235v79h235zM342 296h-153v-182h173v-114h-304v674h293v-114h-162v-155h153v-109z" />
    <glyph glyph-name="emacron" unicode="&#x113;" horiz-adv-x="419" 
d="M318 656v-75h-212v75h212zM272 290c0 32 -4.33301 58.667 -13 80s-22.667 32 -42 32c-10.667 0 -19.667 -3.5 -27 -10.5s-13.5 -16 -18.5 -27s-8.83301 -23.167 -11.5 -36.5s-4 -26 -4 -38h116zM156 198c0.666992 -38 10.832 -64.835 30.499 -80.502
s43.834 -23.5 72.501 -23.5c18.667 0 35.834 1.66699 51.501 5s29.5 7 41.5 11l17 -94c-16.667 -6.66699 -36.834 -12 -60.501 -16s-47.834 -6 -72.501 -6c-67.333 0 -118.666 21 -153.999 63s-53 101.333 -53 178c0 41.333 5 78.333 15 111s23.833 60.167 41.5 82.5
s38.5 39.5 62.5 51.5s49.667 18 77 18c52.667 0 93.5 -20 122.5 -60s43.5 -97.333 43.5 -172c0 -17.333 -0.333008 -31.166 -1 -41.499s-1.66699 -19.166 -3 -26.499h-231z" />
    <glyph glyph-name="Ebreve" unicode="&#x114;" horiz-adv-x="394" 
d="M157 829c0.666992 -13.333 5.33301 -24.001 14 -32.001s20.667 -12 36 -12s27.333 4 36 12s13.667 18.667 15 32h70c0 -35.333 -10 -63.666 -30 -84.999s-50 -32 -90 -32c-40.667 0 -71 10.5 -91 31.5s-30 49.5 -30 85.5h70zM341.999 295.999h-153v-182h173v-114h-304
v674h293v-114h-162v-155h153v-109z" />
    <glyph glyph-name="ebreve" unicode="&#x115;" horiz-adv-x="419" 
d="M163 679c1.33301 -17.333 6.82812 -30.498 16.4951 -39.498s21.834 -13.5 36.501 -13.5c18 0 31.667 5.33301 41 16s14 23 14 37h64c1.33301 -36 -9.16699 -66 -31.5 -90s-52.166 -36 -89.499 -36c-18 0 -34.167 3.16699 -48.5 9.5s-26.666 15.166 -36.999 26.499
s-18.166 24.666 -23.499 39.999s-7.66602 32 -6.99902 50h65zM271.995 290.002c0 32 -4.33301 58.667 -13 80s-22.667 32 -42 32c-10.667 0 -19.667 -3.5 -27 -10.5s-13.5 -16 -18.5 -27s-8.83301 -23.167 -11.5 -36.5s-4 -26 -4 -38h116zM155.995 198.002
c0.666992 -38 10.832 -64.835 30.499 -80.502s43.834 -23.5 72.501 -23.5c18.667 0 35.834 1.66699 51.501 5s29.5 7 41.5 11l17 -94c-16.667 -6.66699 -36.834 -12 -60.501 -16s-47.834 -6 -72.501 -6c-67.333 0 -118.666 21 -153.999 63s-53 101.333 -53 178
c0 41.333 5 78.333 15 111s23.833 60.167 41.5 82.5s38.5 39.5 62.5 51.5s49.667 18 77 18c52.667 0 93.5 -20 122.5 -60s43.5 -97.333 43.5 -172c0 -17.333 -0.333008 -31.166 -1 -41.499s-1.66699 -19.166 -3 -26.499h-231z" />
    <glyph glyph-name="Edotaccent" unicode="&#x116;" horiz-adv-x="394" 
d="M201 715c-16.667 0 -30.999 6.33301 -42.999 19s-18 27.667 -18 45c0 18 6.16699 33.167 18.5 45.5s26.833 18.5 43.5 18.5c17.333 0 32.166 -6.16699 44.499 -18.5s18.5 -27.5 18.5 -45.5c0 -17.333 -6.16699 -32.333 -18.5 -45s-27.5 -19 -45.5 -19zM342.001 296h-153
v-182h173v-114h-304v674h293v-114h-162v-155h153v-109z" />
    <glyph glyph-name="edotaccent" unicode="&#x117;" horiz-adv-x="419" 
d="M217 560c-16 0 -29.832 6 -41.499 18s-17.5 27.333 -17.5 46s6 34 18 46s26 18 42 18c17.333 0 31.666 -5.83301 42.999 -17.5s17 -27.167 17 -46.5c0 -18.667 -5.66699 -34 -17 -46s-26 -18 -44 -18zM272.001 290c0 32 -4.33301 58.667 -13 80s-22.667 32 -42 32
c-10.667 0 -19.667 -3.5 -27 -10.5s-13.5 -16 -18.5 -27s-8.83301 -23.167 -11.5 -36.5s-4 -26 -4 -38h116zM156.001 198c0.666992 -38 10.832 -64.835 30.499 -80.502s43.834 -23.5 72.501 -23.5c18.667 0 35.834 1.66699 51.501 5s29.5 7 41.5 11l17 -94
c-16.667 -6.66699 -36.834 -12 -60.501 -16s-47.834 -6 -72.501 -6c-67.333 0 -118.666 21 -153.999 63s-53 101.333 -53 178c0 41.333 5 78.333 15 111s23.833 60.167 41.5 82.5s38.5 39.5 62.5 51.5s49.667 18 77 18c52.667 0 93.5 -20 122.5 -60s43.5 -97.333 43.5 -172
c0 -17.333 -0.333008 -31.166 -1 -41.499s-1.66699 -19.166 -3 -26.499h-231z" />
    <glyph glyph-name="Eogonek" unicode="&#x118;" horiz-adv-x="394" 
d="M376 -181c-15.333 -10 -31.1719 -16.666 -47.5049 -19.999s-32.166 -5 -47.499 -5c-29.333 0 -51.666 8 -66.999 24s-23 36.667 -23 62c0 23.333 6.5 45.166 19.5 65.499s28.167 38.5 45.5 54.5h-198v674h293v-114h-162v-155h153v-109h-153v-182h174v-114
c-2.66699 -0 -5.16699 -0.166992 -7.5 -0.5s-5.16602 -0.5 -8.49902 -0.5c-19.333 -15.333 -34.666 -30.5 -45.999 -45.5s-17 -29.5 -17 -43.5c0 -10.667 3.5 -18.5 10.5 -23.5s15.5 -7.5 25.5 -7.5c16.667 0 30.334 2 41.001 6z" />
    <glyph glyph-name="eogonek" unicode="&#x119;" horiz-adv-x="419" 
d="M272 290c0 32 -4.33301 58.667 -13 80s-23 32 -43 32c-10.667 0 -19.667 -3.5 -27 -10.5s-13.5 -16 -18.5 -27s-8.66699 -23.167 -11 -36.5s-3.5 -26 -3.5 -38h116zM350 -172c-16 -13.333 -32.335 -22.167 -49.002 -26.5s-31.334 -6.5 -44.001 -6.5
c-32 0 -55.667 7.83301 -71 23.5s-23 35.167 -23 58.5c0 12 2 23.5 6 34.5s9.33301 21.5 16 31.5s14 19.167 22 27.5s16.333 15.833 25 22.5v1h-5c-64.667 2 -113.834 23.833 -147.501 65.5s-50.5 100.167 -50.5 175.5c0 41.333 5 78.333 15 111s23.833 60.167 41.5 82.5
s38.5 39.5 62.5 51.5s49.667 18 77 18c52.667 0 93.5 -20 122.5 -60s43.5 -97.333 43.5 -172c0 -17.333 -0.333008 -31.166 -1 -41.499s-1.66699 -19.166 -3 -26.499h-231c0.666992 -38 10.834 -64.833 30.501 -80.5s43.834 -23.5 72.501 -23.5
c18.667 0 35.834 1.66699 51.501 5s29.5 7 41.5 11l17 -94c-7.33301 -2.66699 -14.666 -5.16699 -21.999 -7.5l-17 -5.5c-24.667 -15.333 -43.667 -31.5 -57 -48.5s-20 -32.167 -20 -45.5c0 -10.667 3 -18.334 9 -23.001s12.667 -7 20 -7c8 0 15.833 1.16699 23.5 3.5
s15.167 5.16602 22.5 8.49902z" />
    <glyph glyph-name="Ecaron" unicode="&#x11a;" horiz-adv-x="394" 
d="M154 710l-84 110h96l39 -52h2l38 52h93l-81 -110h-103zM342 296h-153v-182h173v-114h-304v674h293v-114h-162v-155h153v-109z" />
    <glyph glyph-name="ecaron" unicode="&#x11b;" horiz-adv-x="419" 
d="M168 549l-85 140h89l41 -80h2l40 80h91l-86 -140h-92zM272 290c0 32 -4.33301 58.667 -13 80s-22.667 32 -42 32c-10.667 0 -19.667 -3.5 -27 -10.5s-13.5 -16 -18.5 -27s-8.83301 -23.167 -11.5 -36.5s-4 -26 -4 -38h116zM156 198
c0.666992 -38 10.832 -64.835 30.499 -80.502s43.834 -23.5 72.501 -23.5c18.667 0 35.834 1.66699 51.501 5s29.5 7 41.5 11l17 -94c-16.667 -6.66699 -36.834 -12 -60.501 -16s-47.834 -6 -72.501 -6c-67.333 0 -118.666 21 -153.999 63s-53 101.333 -53 178
c0 41.333 5 78.333 15 111s23.833 60.167 41.5 82.5s38.5 39.5 62.5 51.5s49.667 18 77 18c52.667 0 93.5 -20 122.5 -60s43.5 -97.333 43.5 -172c0 -17.333 -0.333008 -31.166 -1 -41.499s-1.66699 -19.166 -3 -26.499h-231z" />
    <glyph glyph-name="Gcircumflex" unicode="&#x11c;" horiz-adv-x="472" 
d="M320 820l84 -110h-96l-39 52h-2l-38 -52h-93l81 110h103zM432 18c-14.667 -6 -35.332 -11.501 -61.999 -16.501s-52.334 -7.5 -77.001 -7.5c-76.667 0 -137 22.333 -181 67c-29.333 28 -51.5 65.667 -66.5 113s-21.833 100.333 -20.5 159
c0.666992 61.333 9.16699 113.833 25.5 157.5s37.833 79.5 64.5 107.5s57.167 48.667 91.5 62s69.5 20 105.5 20c25.333 0 47.166 -2 65.499 -6s32.833 -8.66699 43.5 -14l-22 -113c-20 10 -45.667 15 -77 15c-22.667 0 -43.667 -4.16699 -63 -12.5
s-36.333 -21.666 -51 -39.999s-26.167 -42.5 -34.5 -72.5s-12.5 -67 -12.5 -111c0 -40.667 3.66699 -75 11 -103s16.833 -50.667 28.5 -68s25 -30 40 -38s30.167 -12 45.5 -12c12.667 0 21.334 1 26.001 3v163h-61v107h181v-360z" />
    <glyph glyph-name="gcircumflex" unicode="&#x11d;" horiz-adv-x="447" 
d="M275 689l85 -140h-89l-41 80h-2l-39 -80h-91l86 140h91zM272 311c0 12.667 -1.66895 24.667 -5.00195 36c-3.33301 10.667 -8.33301 20 -15 28s-15.667 12 -27 12c-12 0 -22.167 -3.66699 -30.5 -11s-15.166 -17.5 -20.499 -30.5s-9.16602 -28.333 -11.499 -46
s-3.5 -36.5 -3.5 -56.5c0 -46 5.83301 -80.333 17.5 -103s27.167 -34 46.5 -34c8.66699 0 16.667 2.5 24 7.5s13.666 14.167 18.999 27.5c2.66699 5.33301 4.33398 11.5 5.00098 18.5s1 13.833 1 20.5v131zM402.998 55c0 -52.667 -4.99902 -94.499 -14.999 -125.499
s-24.667 -56.167 -44 -75.5c-18 -17.333 -40 -30.666 -66 -39.999s-57 -14 -93 -14c-45.333 0 -86 7.66699 -122 23l24 101c12 -6 25.667 -11 41 -15s32.666 -6 51.999 -6c33.333 0 57 10.333 71 31s21 50 21 88v30h-2c-8.66699 -15.333 -20.834 -27.333 -36.501 -36
s-32.834 -13 -51.501 -13c-27.333 0 -50.666 6.83301 -69.999 20.5s-35 31.667 -47 54s-20.833 47.666 -26.5 75.999s-8.5 57.166 -8.5 86.499c0 40.667 4.33301 77 13 109s20.5 59 35.5 81s32.333 38.833 52 50.5s40.834 17.5 63.501 17.5c40.667 0 70.667 -19.667 90 -59
h2l7 50h115c-1.33301 -22.667 -2.5 -46.667 -3.5 -72s-1.5 -53 -1.5 -83v-279z" />
    <glyph glyph-name="Gbreve" unicode="&#x11e;" horiz-adv-x="472" 
d="M225 825c0.666992 -13.333 5.5 -24.001 14.5 -32.001s21.167 -12 36.5 -12s27.333 4 36 12s13.667 18.667 15 32h70c0 -35.333 -10 -63.666 -30 -84.999s-50 -32 -90 -32c-41.333 0 -72 10.5 -92 31.5s-30 49.5 -30 85.5h70zM432 17.999
c-14.667 -6 -35.332 -11.501 -61.999 -16.501s-52.334 -7.5 -77.001 -7.5c-76.667 0 -137 22.333 -181 67c-29.333 28 -51.5 65.667 -66.5 113s-21.833 100.333 -20.5 159c0.666992 61.333 9.16699 113.833 25.5 157.5s37.833 79.5 64.5 107.5s57.167 48.667 91.5 62
s69.5 20 105.5 20c25.333 0 47.166 -2 65.499 -6s32.833 -8.66699 43.5 -14l-22 -113c-20 10 -45.667 15 -77 15c-22.667 0 -43.667 -4.16699 -63 -12.5s-36.333 -21.666 -51 -39.999s-26.167 -42.5 -34.5 -72.5s-12.5 -67 -12.5 -111c0 -40.667 3.66699 -75 11 -103
s16.833 -50.667 28.5 -68s25 -30 40 -38s30.167 -12 45.5 -12c12.667 0 21.334 1 26.001 3v163h-61v107h181v-360z" />
    <glyph glyph-name="gbreve" unicode="&#x11f;" horiz-adv-x="447" 
d="M179 679c1.33301 -17.333 6.82812 -30.498 16.4951 -39.498s21.834 -13.5 36.501 -13.5c18 0 31.667 5.33301 41 16s14 23 14 37h64c1.33301 -36 -9.16699 -66 -31.5 -90s-52.166 -36 -89.499 -36c-18 0 -34.167 3.16699 -48.5 9.5s-26.666 15.166 -36.999 26.499
s-18.166 24.666 -23.499 39.999s-7.66602 32 -6.99902 50h65zM271.995 311.002c0 12.667 -1.66895 24.667 -5.00195 36c-3.33301 10.667 -8.33301 20 -15 28s-15.667 12 -27 12c-12 0 -22.167 -3.66699 -30.5 -11s-15.166 -17.5 -20.499 -30.5s-9.16602 -28.333 -11.499 -46
s-3.5 -36.5 -3.5 -56.5c0 -46 5.83301 -80.333 17.5 -103s27.167 -34 46.5 -34c8.66699 0 16.667 2.5 24 7.5s13.666 14.167 18.999 27.5c2.66699 5.33301 4.33398 11.5 5.00098 18.5s1 13.833 1 20.5v131zM402.993 55.002c0 -52.667 -4.99902 -94.499 -14.999 -125.499
s-24.667 -56.167 -44 -75.5c-18 -17.333 -40 -30.666 -66 -39.999s-57 -14 -93 -14c-45.333 0 -86 7.66699 -122 23l24 101c12 -6 25.667 -11 41 -15s32.666 -6 51.999 -6c33.333 0 57 10.333 71 31s21 50 21 88v30h-2c-8.66699 -15.333 -20.834 -27.333 -36.501 -36
s-32.834 -13 -51.501 -13c-27.333 0 -50.666 6.83301 -69.999 20.5s-35 31.667 -47 54s-20.833 47.666 -26.5 75.999s-8.5 57.166 -8.5 86.499c0 40.667 4.33301 77 13 109s20.5 59 35.5 81s32.333 38.833 52 50.5s40.834 17.5 63.501 17.5c40.667 0 70.667 -19.667 90 -59
h2l7 50h115c-1.33301 -22.667 -2.5 -46.667 -3.5 -72s-1.5 -53 -1.5 -83v-279z" />
    <glyph glyph-name="Gdotaccent" unicode="&#x120;" horiz-adv-x="472" 
d="M271 713c-16.667 0 -30.999 6.33301 -42.999 19s-18 27.667 -18 45c0 18 6.16699 33.167 18.5 45.5s26.833 18.5 43.5 18.5c17.333 0 32.166 -6.16699 44.499 -18.5s18.5 -27.5 18.5 -45.5c0 -17.333 -6 -32.333 -18 -45s-26.667 -19 -44 -19h-2zM432.001 18
c-14.667 -6 -35.332 -11.501 -61.999 -16.501s-52.334 -7.5 -77.001 -7.5c-76.667 0 -137 22.333 -181 67c-29.333 28 -51.5 65.667 -66.5 113s-21.833 100.333 -20.5 159c0.666992 61.333 9.16699 113.833 25.5 157.5s37.833 79.5 64.5 107.5s57.167 48.667 91.5 62
s69.5 20 105.5 20c25.333 0 47.166 -2 65.499 -6s32.833 -8.66699 43.5 -14l-22 -113c-20 10 -45.667 15 -77 15c-22.667 0 -43.667 -4.16699 -63 -12.5s-36.333 -21.666 -51 -39.999s-26.167 -42.5 -34.5 -72.5s-12.5 -67 -12.5 -111c0 -40.667 3.66699 -75 11 -103
s16.833 -50.667 28.5 -68s25 -30 40 -38s30.167 -12 45.5 -12c12.667 0 21.334 1 26.001 3v163h-61v107h181v-360z" />
    <glyph glyph-name="gdotaccent" unicode="&#x121;" horiz-adv-x="447" 
d="M228 560c-16 0 -29.832 6 -41.499 18s-17.5 27.333 -17.5 46s6 34 18 46s26 18 42 18c17.333 0 31.666 -5.83301 42.999 -17.5s17 -27.167 17 -46.5c0 -18.667 -5.5 -34 -16.5 -46s-25.167 -18 -42.5 -18h-2zM272.001 311c0 12.667 -1.66895 24.667 -5.00195 36
c-3.33301 10.667 -8.33301 20 -15 28s-15.667 12 -27 12c-12 0 -22.167 -3.66699 -30.5 -11s-15.166 -17.5 -20.499 -30.5s-9.16602 -28.333 -11.499 -46s-3.5 -36.5 -3.5 -56.5c0 -46 5.83301 -80.333 17.5 -103s27.167 -34 46.5 -34c8.66699 0 16.667 2.5 24 7.5
s13.666 14.167 18.999 27.5c2.66699 5.33301 4.33398 11.5 5.00098 18.5s1 13.833 1 20.5v131zM402.999 55c0 -52.667 -4.99902 -94.499 -14.999 -125.499s-24.667 -56.167 -44 -75.5c-18 -17.333 -40 -30.666 -66 -39.999s-57 -14 -93 -14c-45.333 0 -86 7.66699 -122 23
l24 101c12 -6 25.667 -11 41 -15s32.666 -6 51.999 -6c33.333 0 57 10.333 71 31s21 50 21 88v30h-2c-8.66699 -15.333 -20.834 -27.333 -36.501 -36s-32.834 -13 -51.501 -13c-27.333 0 -50.666 6.83301 -69.999 20.5s-35 31.667 -47 54s-20.833 47.666 -26.5 75.999
s-8.5 57.166 -8.5 86.499c0 40.667 4.33301 77 13 109s20.5 59 35.5 81s32.333 38.833 52 50.5s40.834 17.5 63.501 17.5c40.667 0 70.667 -19.667 90 -59h2l7 50h115c-1.33301 -22.667 -2.5 -46.667 -3.5 -72s-1.5 -53 -1.5 -83v-279z" />
    <glyph glyph-name="Gcommaaccent" unicode="&#x122;" horiz-adv-x="472" 
d="M186 -166c12.667 3.33301 25.499 9.33203 38.499 17.999s19.5 19.667 19.5 33c0 12.667 -3.66699 24.5 -11 35.5s-14.333 19.5 -21 25.5l95 13c8.66699 -5.33301 17 -14.166 25 -26.499s12 -27.833 12 -46.5c0 -17.333 -3.66699 -32.5 -11 -45.5s-17.166 -24 -29.499 -33
s-26.833 -16 -43.5 -21s-34.667 -8.5 -54 -10.5zM431.999 17.999c-14.667 -6 -35.332 -11.501 -61.999 -16.501s-52.334 -7.5 -77.001 -7.5c-76.667 0 -137 22.333 -181 67c-29.333 28 -51.5 65.667 -66.5 113s-21.833 100.333 -20.5 159
c0.666992 61.333 9.16699 113.833 25.5 157.5s37.833 79.5 64.5 107.5s57.167 48.667 91.5 62s69.5 20 105.5 20c25.333 0 47.166 -2 65.499 -6s32.833 -8.66699 43.5 -14l-22 -113c-20 10 -45.667 15 -77 15c-22.667 0 -43.667 -4.16699 -63 -12.5
s-36.333 -21.666 -51 -39.999s-26.167 -42.5 -34.5 -72.5s-12.5 -67 -12.5 -111c0 -40.667 3.66699 -75 11 -103s16.833 -50.667 28.5 -68s25 -30 40 -38s30.167 -12 45.5 -12c12.667 0 21.334 1 26.001 3v163h-61v107h181v-360z" />
    <glyph glyph-name="gcommaaccent" unicode="&#x123;" horiz-adv-x="447" 
d="M318 671c-18.667 -3.33301 -34.334 -9.50098 -47.001 -18.501s-19 -21.833 -19 -38.5c0 -13.333 3.83301 -25.333 11.5 -36s15.834 -19.334 24.501 -26.001l-90 -12c-8.66699 6.66699 -17 16.334 -25 29.001s-12 27.334 -12 44.001c0 18 3.66699 33.5 11 46.5
s17.166 24 29.499 33s26.833 15.833 43.5 20.5s34.334 8 53.001 10zM272 310.999c0 12.667 -1.66895 24.667 -5.00195 36c-3.33301 10.667 -8.33301 20 -15 28s-15.667 12 -27 12c-12 0 -22.167 -3.66699 -30.5 -11s-15.166 -17.5 -20.499 -30.5
s-9.16602 -28.333 -11.499 -46s-3.5 -36.5 -3.5 -56.5c0 -46 5.83301 -80.333 17.5 -103s27.167 -34 46.5 -34c8.66699 0 16.667 2.5 24 7.5s13.666 14.167 18.999 27.5c2.66699 5.33301 4.33398 11.5 5.00098 18.5s1 13.833 1 20.5v131zM402.998 54.999
c0 -52.667 -4.99902 -94.499 -14.999 -125.499s-24.667 -56.167 -44 -75.5c-18 -17.333 -40 -30.666 -66 -39.999s-57 -14 -93 -14c-45.333 0 -86 7.66699 -122 23l24 101c12 -6 25.667 -11 41 -15s32.666 -6 51.999 -6c33.333 0 57 10.333 71 31s21 50 21 88v30h-2
c-8.66699 -15.333 -20.834 -27.333 -36.501 -36s-32.834 -13 -51.501 -13c-27.333 0 -50.666 6.83301 -69.999 20.5s-35 31.667 -47 54s-20.833 47.666 -26.5 75.999s-8.5 57.166 -8.5 86.499c0 40.667 4.33301 77 13 109s20.5 59 35.5 81s32.333 38.833 52 50.5
s40.834 17.5 63.501 17.5c40.667 0 70.667 -19.667 90 -59h2l7 50h115c-1.33301 -22.667 -2.5 -46.667 -3.5 -72s-1.5 -53 -1.5 -83v-279z" />
    <glyph glyph-name="Hcircumflex" unicode="&#x124;" horiz-adv-x="515" 
d="M308 820l84 -110h-96l-39 52h-2l-38 -52h-93l81 110h103zM189 674v-270h137v270h131v-674h-131v282h-137v-282h-131v674h131z" />
    <glyph glyph-name="hcircumflex" unicode="&#x125;" horiz-adv-x="458" 
d="M163 834l84 -110h-96l-39 52h-2l-38 -52h-93l81 110h103zM46 692l131 0.000976562v-254h2c11.333 16 25.333 29.667 42 41c9.33301 5.33301 19.666 9.66602 30.999 12.999s23 5 35 5c45.333 0 77.5 -17.833 96.5 -53.5s28.5 -84.5 28.5 -146.5v-297h-131v297
c0 24 -3.16699 45 -9.5 63s-19.166 27 -38.499 27c-11.333 0 -21.333 -3.5 -30 -10.5s-15.667 -18.833 -21 -35.5c-1.33301 -4 -2.5 -9.83301 -3.5 -17.5s-1.5 -14.167 -1.5 -19.5v-304h-131v692z" />
    <glyph glyph-name="Hbar" unicode="&#x126;" horiz-adv-x="515" 
d="M326 470h-137v-83h137v83zM457 470v-470h-131v265h-137v-265h-131v470h-44v89h44v115h131v-115h137v115h131v-115h44v-89h-44z" />
    <glyph glyph-name="hbar" unicode="&#x127;" horiz-adv-x="458" 
d="M281 0v297.001c0 24 -3.16699 45 -9.5 63s-19.166 27 -38.499 27c-11.333 0 -21.333 -3.5 -30 -10.5s-15.667 -18.833 -21 -35.5c-1.33301 -4 -2.5 -9.83301 -3.5 -17.5s-1.5 -14.167 -1.5 -19.5v-304h-131v533h-61v82h61v77h131v-77h132v-82h-132v-95h2
c11.333 16 25.333 29.667 42 41c9.33301 5.33301 19.666 9.66602 30.999 12.999s23 5 35 5c45.333 0 77.5 -17.833 96.5 -53.5s28.5 -84.5 28.5 -146.5v-297h-131z" />
    <glyph glyph-name="Itilde" unicode="&#x128;" horiz-adv-x="248" 
d="M6 718c-1.33301 37.333 4.16992 65.833 16.5029 85.5s28.833 29.5 49.5 29.5c11.333 0 21.166 -1.66699 29.499 -5s16.166 -7.33301 23.499 -12s14 -8.66699 20 -12s11.667 -5 17 -5c7.33301 0 12.666 2.66699 15.999 8s6 15.333 8 30h58c1.33301 -42 -4 -71.667 -16 -89
s-29.667 -26 -53 -26c-11.333 0 -21.333 1.5 -30 4.5s-16.667 6.83301 -24 11.5c-7.33301 4 -13.5 7.5 -18.5 10.5s-10.5 4.5 -16.5 4.5c-12 0 -19 -11.667 -21 -35h-59zM189.003 674v-674h-131v674h131z" />
    <glyph glyph-name="itilde" unicode="&#x129;" horiz-adv-x="223" 
d="M-11 557c0 32 5.83008 59.502 17.4971 82.502s29.5 34.5 53.5 34.5c12.667 0 23.5 -2 32.5 -6l25.5 -11l18.5 -11c5.66699 -3.33301 11.834 -5 18.501 -5s12 2.16699 16 6.5s6 14.5 6 30.5h58c0 -40 -6.33301 -69 -19 -87s-29.667 -27 -51 -27
c-10 0 -19.667 1.66699 -29 5s-17.666 6.66602 -24.999 9.99902c-8 4 -14.667 7.83301 -20 11.5s-11.666 5.5 -18.999 5.5c-6.66699 0 -12.167 -3.33301 -16.5 -10s-6.5 -16.334 -6.5 -29.001h-60zM45.9971 0.00195312v489h131v-489h-131z" />
    <glyph glyph-name="Imacron" unicode="&#x12a;" horiz-adv-x="248" 
d="M242 815v-79h-235v79h235zM189 674v-674h-131v674h131z" />
    <glyph glyph-name="imacron" unicode="&#x12b;" horiz-adv-x="223" 
d="M218 656v-75h-212v75h212zM46 0v489h131v-489h-131z" />
    <glyph glyph-name="Ibreve" unicode="&#x12c;" horiz-adv-x="248" 
d="M72 831c0.666992 -13.333 5.5 -24.001 14.5 -32.001s21.167 -12 36.5 -12s27.333 4 36 12s13.667 18.667 15 32h70c0 -35.333 -10 -63.666 -30 -84.999s-50 -32 -90 -32c-41.333 0 -72 10.5 -92 31.5s-30 49.5 -30 85.5h70zM189 673.999v-674h-131v674h131z" />
    <glyph glyph-name="ibreve" unicode="&#x12d;" horiz-adv-x="223" 
d="M58 679c1.33301 -17.333 6.82812 -30.498 16.4951 -39.498s21.834 -13.5 36.501 -13.5c18 0 31.667 5.33301 41 16s14 23 14 37h64c1.33301 -36 -9.16699 -66 -31.5 -90s-52.166 -36 -89.499 -36c-18 0 -34.167 3.16699 -48.5 9.5s-26.666 15.166 -36.999 26.499
s-18.166 24.666 -23.499 39.999s-7.66602 32 -6.99902 50h65zM45.9951 0.00195312v489h131v-489h-131z" />
    <glyph glyph-name="Iogonek" unicode="&#x12e;" horiz-adv-x="248" 
d="M189 0l-51.002 -0.00292969c-7.33301 -12 -13.333 -24.833 -18 -38.5s-7 -26.834 -7 -39.501c0 -14.667 3.83301 -25.667 11.5 -33s17.167 -11 28.5 -11c17.333 0 30.333 2 39 6l16 -66c-14.667 -10.667 -29.667 -17.5 -45 -20.5s-29.666 -4.5 -42.999 -4.5
c-32.667 0 -57 8.66699 -73 26s-24 40 -24 68c0 12.667 1.33301 24.834 4 36.501s5.83398 22.334 9.50098 32.001s7.5 18.334 11.5 26.001s7.33301 13.834 10 18.501v674h131v-674z" />
    <glyph glyph-name="iogonek" unicode="&#x12f;" horiz-adv-x="223" 
d="M177 0l-52.001 -0.00292969c-7.33301 -12 -13.333 -25 -18 -39s-7 -27.667 -7 -41c0 -12 3.83301 -22 11.5 -30s17.167 -12 28.5 -12c17.333 0 30.333 2 39 6l16 -66c-14.667 -10.667 -29.667 -17.5 -45 -20.5s-29.666 -4.5 -42.999 -4.5c-32.667 0 -57 8.83301 -73 26.5
s-24 40.834 -24 69.501c0 12 1.33301 23.667 4 35s6 21.833 10 31.5s8 18.334 12 26.001s7.33301 13.834 10 18.501v489h131v-489zM107.999 546.997c-18 0 -33.5 6.5 -46.5 19.5s-19.167 30.167 -18.5 51.5c-0.666992 22 5.66602 39.5 18.999 52.5s29.333 19.5 48 19.5
s34.5 -6.5 47.5 -19.5s19.5 -30.5 19.5 -52.5c0 -21.333 -6.66699 -38.5 -20 -51.5s-29.666 -19.5 -48.999 -19.5z" />
    <glyph glyph-name="Idotaccent" unicode="&#x130;" horiz-adv-x="248" 
d="M123 715c-16.667 0 -30.999 6.33301 -42.999 19s-18 27.667 -18 45c0 18 6.16699 33.167 18.5 45.5s26.833 18.5 43.5 18.5c17.333 0 32.166 -6.16699 44.499 -18.5s18.5 -27.5 18.5 -45.5c0 -17.333 -6.16699 -32.333 -18.5 -45s-27.5 -19 -45.5 -19zM189.001 674v-674
h-131v674h131z" />
    <glyph glyph-name="dotlessi" unicode="&#x131;" horiz-adv-x="223" 
d="M46 0v489h131v-489h-131z" />
    <glyph glyph-name="IJ" unicode="&#x132;" horiz-adv-x="544" 
d="M363 674l131.002 0.00195312v-459c0 -48.667 -5.33301 -87.667 -16 -117s-24.834 -51.833 -42.501 -67.5s-37.834 -26 -60.501 -31s-46 -7.5 -70 -7.5c-28.667 0 -50.667 3.33301 -66 10l11 110c6 -2 12.5 -3.33301 19.5 -4s14.833 -1 23.5 -1
c9.33301 0 18.333 1.16699 27 3.5s16.167 7.16602 22.5 14.499s11.333 17.666 15 30.999s5.5 31 5.5 53v465zM189.002 674.002v-674h-131v674h131z" />
    <glyph glyph-name="ij" unicode="&#x133;" horiz-adv-x="447" 
d="M335 690c19.333 0 35.332 -6.5 47.999 -19.5s19 -30.5 19 -52.5c0.666992 -21.333 -5.66602 -38.5 -18.999 -51.5s-30 -19.5 -50 -19.5c-18 0 -33.5 6.5 -46.5 19.5s-19.167 30.167 -18.5 51.5c-0.666992 22 5.83301 39.5 19.5 52.5s29.5 19.5 47.5 19.5zM183.999 -96
c11.333 1.33301 22.833 3.6709 34.5 7.00391s21.5 9.66602 29.5 18.999c9.33301 10 15.333 24.667 18 44s4 48 4 86v429h131v-454c0 -54.667 -5.5 -96.334 -16.5 -125.001s-27.167 -51.334 -48.5 -68.001c-18 -14.667 -40.333 -25.334 -67 -32.001s-51.667 -10 -75 -10z
M109.999 690.005c19.333 0 35.332 -6.5 47.999 -19.5s19 -30.5 19 -52.5c0.666992 -21.333 -5.66602 -38.5 -18.999 -51.5s-30 -19.5 -50 -19.5c-18 0 -33.5 6.5 -46.5 19.5s-19.167 30.167 -18.5 51.5c-0.666992 22 5.83301 39.5 19.5 52.5s29.5 19.5 47.5 19.5z
M45.998 0.00488281v489h131v-489h-131z" />
    <glyph glyph-name="Jcircumflex" unicode="&#x134;" horiz-adv-x="296" 
d="M230 820l84 -110h-96l-39 52h-2l-38 -52h-93l81 110h103zM115 674l131.002 0.00195312v-459c0 -48.667 -5.33301 -87.667 -16 -117s-24.834 -51.833 -42.501 -67.5s-37.834 -26 -60.501 -31s-46 -7.5 -70 -7.5c-28.667 0 -50.667 3.33301 -66 10l11 110
c6 -2 12.5 -3.33301 19.5 -4s14.833 -1 23.5 -1c9.33301 0 18.333 1.16699 27 3.5s16.167 7.16602 22.5 14.499s11.333 17.666 15 30.999s5.5 31 5.5 53v465z" />
    <glyph glyph-name="jcircumflex" unicode="&#x135;" horiz-adv-x="224" 
d="M157 686l85 -140h-89l-40 80h-2l-40 -80h-91l86 140h91zM-38 -96c11.333 1.33301 22.833 3.6709 34.5 7.00391s21.5 9.66602 29.5 18.999c9.33301 10 15.333 24.667 18 44s4 48 4 86v429h131v-454c0 -54.667 -5.5 -96.334 -16.5 -125.001s-27.167 -51.334 -48.5 -68.001
c-18 -14.667 -40.333 -25.334 -67 -32.001s-51.667 -10 -75 -10z" />
    <glyph glyph-name="Kcommaaccent" unicode="&#x136;" horiz-adv-x="459" 
d="M153 -164c12.667 3.33301 25.5 9.33203 38.5 17.999s19.5 19.667 19.5 33c0 12.667 -3.66699 24.5 -11 35.5s-14.333 19.5 -21 25.5l95 13c8.66699 -5.33301 17 -14.166 25 -26.499s12 -27.833 12 -46.5c0 -17.333 -3.66699 -32.5 -11 -45.5s-17.166 -24 -29.499 -33
s-26.833 -16 -43.5 -21s-34.334 -8.5 -53.001 -10.5zM58 673.999h131v-303h3l16 43l16 44l90 216h145l-152 -293l154 -381h-144l-98 279l-30 -55v-224h-131v674z" />
    <glyph glyph-name="kcommaaccent" unicode="&#x137;" horiz-adv-x="413" 
d="M122 -166c12.667 3.33301 25.5 9.33203 38.5 17.999s19.5 19.667 19.5 33c0 12.667 -3.66699 24.5 -11 35.5s-14.333 19.5 -21 25.5l95 13c8.66699 -5.33301 17 -14.166 25 -26.499s12 -27.833 12 -46.5c0 -17.333 -3.66699 -32.5 -11 -45.5s-17.166 -24 -29.499 -33
s-26.833 -16 -43.5 -21s-34.334 -8.5 -53.001 -10.5zM176 274.999h2l12.5 37c3.66699 10.667 7.5 21 11.5 31l64 146h141l-119 -205l126 -284h-146l-70 201l-22 -42v-159h-131v692h131v-417z" />
    <glyph glyph-name="kgreenlandic" unicode="&#x138;" horiz-adv-x="413" 
d="M176 275h2l12.5 37c3.66699 10.667 7.5 21 11.5 31l64 146h141l-119 -205l126 -284h-146l-70 201l-22 -42v-159h-131v489h131v-214z" />
    <glyph glyph-name="Lacute" unicode="&#x139;" horiz-adv-x="380" 
d="M290 823l-122 -113h-93l82 113h133zM58 674h131v-563h172v-111h-303v674z" />
    <glyph glyph-name="lacute" unicode="&#x13a;" horiz-adv-x="225" 
d="M266 837l-122 -113h-93l82 113h133zM46 692h131v-692h-131v692z" />
    <glyph glyph-name="Lcommaaccent" unicode="&#x13b;" horiz-adv-x="380" 
d="M107 -166c12.667 3.33301 25.5 9.33203 38.5 17.999s19.5 19.667 19.5 33c0 12.667 -3.66699 24.5 -11 35.5s-14.333 19.5 -21 25.5l95 13c8.66699 -5.33301 17 -14.166 25 -26.499s12 -27.833 12 -46.5c0 -17.333 -3.66699 -32.5 -11 -45.5s-17.166 -24 -29.499 -33
s-26.833 -16 -43.5 -21s-34.334 -8.5 -53.001 -10.5zM58 673.999h131v-563h172v-111h-303v674z" />
    <glyph glyph-name="lcommaaccent" unicode="&#x13c;" horiz-adv-x="225" 
d="M27 -166c12.667 3.33301 25.5 9.33203 38.5 17.999s19.5 19.667 19.5 33c0 12.667 -3.66699 24.5 -11 35.5s-14.333 19.5 -21 25.5l95 13c8.66699 -5.33301 17 -14.166 25 -26.499s12 -27.833 12 -46.5c0 -17.333 -3.66699 -32.5 -11 -45.5s-17.166 -24 -29.499 -33
s-26.833 -16 -43.5 -21s-34.334 -8.5 -53.001 -10.5zM46 691.999h131v-692h-131v692z" />
    <glyph glyph-name="Lcaron" unicode="&#x13d;" horiz-adv-x="380" 
d="M216 549c12.667 3.33301 25.5 9.33203 38.5 17.999s19.5 19.667 19.5 33c0 12.667 -3.66699 24.5 -11 35.5s-14.333 19.5 -21 25.5l95 13c8.66699 -5.33301 17 -14.166 25 -26.499s12 -27.833 12 -46.5c0 -17.333 -3.66699 -32.5 -11 -45.5s-17.166 -24 -29.499 -33
s-26.833 -16 -43.5 -21s-34.334 -8.5 -53.001 -10.5zM58 673.999h131v-563h172v-111h-303v674z" />
    <glyph glyph-name="lcaron" unicode="&#x13e;" horiz-adv-x="233" 
d="M215 528c6.66699 8.66699 13.333 20.835 20 36.502s10 32.5 10 50.5c0 15.333 -3 28.666 -9 39.999s-12.333 20.333 -19 27l81 13c8.66699 -5.33301 16.5 -14.5 23.5 -27.5s10.5 -28.5 10.5 -46.5c0 -17.333 -2.66699 -33 -8 -47s-11.666 -26.333 -18.999 -37
s-14.833 -19.834 -22.5 -27.501s-13.834 -13.5 -18.501 -17.5zM45.999 692.001h131v-692h-131v692z" />
    <glyph glyph-name="Ldot" unicode="&#x13f;" horiz-adv-x="380" 
d="M293 301c-16.667 0 -30.999 6.33301 -42.999 19s-18 27.667 -18 45c0 18 6.16699 33.167 18.5 45.5s26.833 18.5 43.5 18.5c17.333 0 32.166 -6.16699 44.499 -18.5s18.5 -27.5 18.5 -45.5c0 -17.333 -6.16699 -32.333 -18.5 -45s-27.5 -19 -45.5 -19zM58.001 674h131
v-563h172v-111h-303v674z" />
    <glyph glyph-name="ldot" unicode="&#x140;" horiz-adv-x="321" 
d="M273 353c-15.333 0 -28.333 5.83301 -39 17.5s-16 26.5 -16 44.5s5.5 32.833 16.5 44.5s24.167 17.5 39.5 17.5s28.333 -5.66699 39 -17s16 -26.333 16 -45c0 -18 -5.16699 -32.833 -15.5 -44.5s-23.833 -17.5 -40.5 -17.5zM46 692h131v-692h-131v692z" />
    <glyph glyph-name="Lslash" unicode="&#x141;" horiz-adv-x="382" 
d="M60 0v234l-60 -47v111l60 47v329h131v-238l93 72v-111l-93 -72v-214h172v-111h-303z" />
    <glyph glyph-name="lslash" unicode="&#x142;" horiz-adv-x="227" 
d="M48 0v275l-55 -46v108l55 47v308h131v-230l56 47v-109l-56 -47v-353h-131z" />
    <glyph glyph-name="Nacute" unicode="&#x143;" horiz-adv-x="516" 
d="M421 823l-122 -113h-93l82 113h133zM58 0l0.000976562 673.999h120l104 -264c5.33301 -12.667 11.166 -27.5 17.499 -44.5l19.5 -52l19 -52.5l16 -48h2c-2 36 -4.66699 81.333 -8 136s-5 113.334 -5 176.001v149h115v-674h-120l-103 256c-6 14 -12.167 29.667 -18.5 47
l-18.5 53l-17.5 54c-5.66699 18 -10.5 34.333 -14.5 49h-2c2 -34 4 -76.667 6 -128s3 -111.333 3 -180v-151h-115z" />
    <glyph glyph-name="nacute" unicode="&#x144;" horiz-adv-x="458" 
d="M368 689l-101 -140h-82l68 140h115zM46 342c0 26.667 -0.333984 51.999 -1.00098 75.999s-1.66699 47.667 -3 71h113l7 -56h2c12.667 19.333 29.167 34.833 49.5 46.5s43.166 17.5 68.499 17.5c23.333 0 43.166 -4.5 59.499 -13.5s29.833 -21.5 40.5 -37.5
s18.334 -35.167 23.001 -57.5s7 -47.166 7 -74.499v-314h-131v306c0 10 -0.666992 20 -2 30s-3.83301 18.667 -7.5 26s-8.66699 13.333 -15 18s-14.166 7 -23.499 7c-23.333 0 -39.666 -14.667 -48.999 -44c-4.66699 -11.333 -7 -26.333 -7 -45v-298h-131v342z" />
    <glyph glyph-name="Ncommaaccent" unicode="&#x145;" horiz-adv-x="516" 
d="M174 -158c12.667 3.33301 25.499 9.33203 38.499 17.999s19.5 19.667 19.5 33c0 12.667 -3.66699 24.5 -11 35.5s-14.333 19.5 -21 25.5l95 13c8.66699 -5.33301 17 -14.166 25 -26.499s12 -27.833 12 -46.5c0 -17.333 -3.66699 -32.5 -11 -45.5s-17.166 -24 -29.499 -33
s-26.833 -16 -43.5 -21s-34.667 -8.5 -54 -10.5zM57.999 -0.000976562l0.000976562 673.999h120l104 -264c5.33301 -12.667 11.166 -27.5 17.499 -44.5l19.5 -52l19 -52.5l16 -48h2c-2 36 -4.66699 81.333 -8 136s-5 113.334 -5 176.001v149h115v-674h-120l-103 256
c-6 14 -12.167 29.667 -18.5 47l-18.5 53l-17.5 54c-5.66699 18 -10.5 34.333 -14.5 49h-2c2 -34 4 -76.667 6 -128s3 -111.333 3 -180v-151h-115z" />
    <glyph glyph-name="ncommaaccent" unicode="&#x146;" horiz-adv-x="458" 
d="M145 -165c12.667 3.33301 25.5 9.33203 38.5 17.999s19.5 19.667 19.5 33c0 12.667 -3.66699 24.5 -11 35.5s-14.333 19.5 -21 25.5l95 13c8.66699 -5.33301 17 -14.166 25 -26.499s12 -27.833 12 -46.5c0 -17.333 -3.66699 -32.5 -11 -45.5s-17.166 -24 -29.499 -33
s-26.833 -16 -43.5 -21s-34.334 -8.5 -53.001 -10.5zM46 341.999c0 26.667 -0.333984 51.999 -1.00098 75.999s-1.66699 47.667 -3 71h113l7 -56h2c12.667 19.333 29.167 34.833 49.5 46.5s43.166 17.5 68.499 17.5c23.333 0 43.166 -4.5 59.499 -13.5
s29.833 -21.5 40.5 -37.5s18.334 -35.167 23.001 -57.5s7 -47.166 7 -74.499v-314h-131v306c0 10 -0.666992 20 -2 30s-3.83301 18.667 -7.5 26s-8.66699 13.333 -15 18s-14.166 7 -23.499 7c-23.333 0 -39.666 -14.667 -48.999 -44c-4.66699 -11.333 -7 -26.333 -7 -45
v-298h-131v342z" />
    <glyph glyph-name="Ncaron" unicode="&#x147;" horiz-adv-x="516" 
d="M208 710l-84 110h96l39 -52h2l38 52h93l-82 -110h-102zM58 0l0.000976562 673.999h120l104 -264c5.33301 -12.667 11.166 -27.5 17.499 -44.5l19.5 -52l19 -52.5l16 -48h2c-2 36 -4.66699 81.333 -8 136s-5 113.334 -5 176.001v149h115v-674h-120l-103 256
c-6 14 -12.167 29.667 -18.5 47l-18.5 53l-17.5 54c-5.66699 18 -10.5 34.333 -14.5 49h-2c2 -34 4 -76.667 6 -128s3 -111.333 3 -180v-151h-115z" />
    <glyph glyph-name="ncaron" unicode="&#x148;" horiz-adv-x="458" 
d="M183 549l-85 140h89l41 -80h2l40 80h91l-87 -140h-91zM46 342c0 26.667 -0.333984 51.999 -1.00098 75.999s-1.66699 47.667 -3 71h113l7 -56h2c12.667 19.333 29.167 34.833 49.5 46.5s43.166 17.5 68.499 17.5c23.333 0 43.166 -4.5 59.499 -13.5
s29.833 -21.5 40.5 -37.5s18.334 -35.167 23.001 -57.5s7 -47.166 7 -74.499v-314h-131v306c0 10 -0.666992 20 -2 30s-3.83301 18.667 -7.5 26s-8.66699 13.333 -15 18s-14.166 7 -23.499 7c-23.333 0 -39.666 -14.667 -48.999 -44c-4.66699 -11.333 -7 -26.333 -7 -45
v-298h-131v342z" />
    <glyph glyph-name="napostrophe" unicode="&#x149;" horiz-adv-x="458" 
d="M-4 552c6.66699 8 13.332 19.001 19.999 33.001s10 29.333 10 46c0 13.333 -3 25.333 -9 36s-12.333 18.667 -19 24l89 12c8.66699 -5.33301 16.5 -13.666 23.5 -24.999s10.5 -25.333 10.5 -42c0 -15.333 -2.66699 -29.333 -8 -42s-11.666 -23.834 -18.999 -33.501
s-14.833 -17.834 -22.5 -24.501l-18.5 -16zM45.998 342.001c0 26.667 -0.333984 51.999 -1.00098 75.999s-1.66699 47.667 -3 71h113l7 -56h2c12.667 19.333 29.167 34.833 49.5 46.5s43.166 17.5 68.499 17.5c23.333 0 43.166 -4.5 59.499 -13.5s29.833 -21.5 40.5 -37.5
s18.334 -35.167 23.001 -57.5s7 -47.166 7 -74.499v-314h-131v306c0 10 -0.666992 20 -2 30s-3.83301 18.667 -7.5 26s-8.66699 13.333 -15 18s-14.166 7 -23.499 7c-23.333 0 -39.666 -14.667 -48.999 -44c-4.66699 -11.333 -7 -26.333 -7 -45v-298h-131v342z" />
    <glyph glyph-name="Eng" unicode="&#x14a;" horiz-adv-x="516" 
d="M58 0l0.00195312 674h120l104 -264c5.33301 -12.667 11.166 -27.334 17.499 -44.001l19.5 -51.5c6.66699 -17.667 13 -35.334 19 -53.001l16 -48.5h2c-2 36 -4.66699 81.333 -8 136s-5 113.334 -5 176.001v149h115v-643c0 -64.667 -13 -117 -39 -157
s-68.667 -65.333 -128 -76l-33 98c53.333 16 80.666 45.667 81.999 89l-105 272c-6 14 -12.167 29.667 -18.5 47l-18.5 53l-17.5 53.5c-5.66699 17.667 -10.5 33.834 -14.5 48.501h-2c2 -34 4 -76.667 6 -128s3 -111 3 -179v-152h-115z" />
    <glyph glyph-name="eng" unicode="&#x14b;" horiz-adv-x="458" 
d="M46 342c0 26.667 -0.333984 52.001 -1.00098 76.001s-1.66699 47.667 -3 71h113l7 -56h2c12.667 19.333 29.167 34.833 49.5 46.5s43.166 17.5 68.499 17.5c23.333 0 43.166 -4.5 59.499 -13.5s29.833 -21.5 40.5 -37.5s18.334 -35.167 23.001 -57.5s7 -47.166 7 -74.499
v-277c0 -38.667 -4.66699 -71.5 -14 -98.5s-21.666 -49.333 -36.999 -67s-33.333 -31.334 -54 -41.001s-42.334 -16.167 -65.001 -19.5l-29 100c10.667 2.66699 20.167 6.16699 28.5 10.5s15.5 10.5 21.5 18.5s10.5 18.167 13.5 30.5s4.5 28.166 4.5 47.499v288
c0 10 -0.666992 20 -2 30s-3.83301 18.667 -7.5 26s-8.66699 13.333 -15 18s-14.166 7 -23.499 7c-23.333 0 -39.666 -14.667 -48.999 -44c-4.66699 -11.333 -7 -26.333 -7 -45v-298h-131v342z" />
    <glyph glyph-name="Omacron" unicode="&#x14c;" horiz-adv-x="481" 
d="M359 815v-79h-235v79h235zM242 568c-26 0 -46 -20.3311 -60 -60.998s-21 -97.334 -21 -170.001c0 -154 27.333 -231 82 -231c14 0 25.833 6 35.5 18s17.667 28.5 24 49.5s10.833 46 13.5 75s4 60.5 4 94.5c0 29.333 -1.16699 57.666 -3.5 84.999s-6.5 51.333 -12.5 72
s-14 37.167 -24 49.5s-22.667 18.5 -38 18.5zM248 682.002c40.667 0 74.334 -10.168 101.001 -30.501s48 -46.5 64 -78.5s27.167 -67.667 33.5 -107s9.5 -78.333 9.5 -117c0 -63.333 -5.33301 -117.666 -16 -162.999s-25.667 -82.333 -45 -111s-42.333 -49.667 -69 -63
s-56 -20 -88 -20c-38 0 -70.5 9.33301 -97.5 28s-49 44 -66 76s-29.5 69 -37.5 111s-12 86 -12 132s4.66699 89.667 14 131s23.166 77.833 41.499 109.5s41.5 56.667 69.5 75s60.667 27.5 98 27.5z" />
    <glyph glyph-name="omacron" unicode="&#x14d;" horiz-adv-x="431" 
d="M322 656v-75h-212v75h212zM217 398c-12 0 -21.834 -4.83203 -29.501 -14.499s-13.5 -21.834 -17.5 -36.501s-6.83301 -31 -8.5 -49s-2.5 -35.333 -2.5 -52c0 -20.667 1 -40.334 3 -59.001s5.16699 -35 9.5 -49s10.333 -25.167 18 -33.5s17.5 -12.5 29.5 -12.5
c10.667 0 19.5 4.66699 26.5 14s12.5 21.333 16.5 36s6.83301 31.167 8.5 49.5s2.5 36.5 2.5 54.5c0 16.667 -0.833008 34 -2.5 52s-4.5 34.333 -8.5 49s-9.66699 26.834 -17 36.501s-16.666 14.5 -27.999 14.5zM217.999 498.001c58.667 0 104.17 -22.5 136.503 -67.5
s48.5 -106.5 48.5 -184.5c0 -50.667 -6.33301 -92.5 -19 -125.5s-28.334 -59 -47.001 -78s-38.834 -32.167 -60.501 -39.5s-41.834 -11 -60.501 -11c-58.667 0 -104.5 21.833 -137.5 65.5s-49.5 105.5 -49.5 185.5c0 44 5.33301 82 16 114s24.667 58.5 42 79.5
s37.5 36.5 60.5 46.5s46.5 15 70.5 15z" />
    <glyph glyph-name="Obreve" unicode="&#x14e;" horiz-adv-x="481" 
d="M188 831c0.666992 -13.333 5.5 -24.001 14.5 -32.001s21.167 -12 36.5 -12s27.333 4 36 12s13.667 18.667 15 32h70c0 -35.333 -10 -63.666 -30 -84.999s-50 -32 -90 -32c-41.333 0 -72 10.5 -92 31.5s-30 49.5 -30 85.5h70zM242 567.999c-26 0 -46 -20.3311 -60 -60.998
s-21 -97.334 -21 -170.001c0 -154 27.333 -231 82 -231c14 0 25.833 6 35.5 18s17.667 28.5 24 49.5s10.833 46 13.5 75s4 60.5 4 94.5c0 29.333 -1.16699 57.666 -3.5 84.999s-6.5 51.333 -12.5 72s-14 37.167 -24 49.5s-22.667 18.5 -38 18.5zM248 682.001
c40.667 0 74.334 -10.168 101.001 -30.501s48 -46.5 64 -78.5s27.167 -67.667 33.5 -107s9.5 -78.333 9.5 -117c0 -63.333 -5.33301 -117.666 -16 -162.999s-25.667 -82.333 -45 -111s-42.333 -49.667 -69 -63s-56 -20 -88 -20c-38 0 -70.5 9.33301 -97.5 28s-49 44 -66 76
s-29.5 69 -37.5 111s-12 86 -12 132s4.66699 89.667 14 131s23.166 77.833 41.499 109.5s41.5 56.667 69.5 75s60.667 27.5 98 27.5z" />
    <glyph glyph-name="obreve" unicode="&#x14f;" horiz-adv-x="431" 
d="M162 679c1.33301 -17.333 6.82812 -30.498 16.4951 -39.498s21.834 -13.5 36.501 -13.5c18 0 31.667 5.33301 41 16s14 23 14 37h64c1.33301 -36 -9.16699 -66 -31.5 -90s-52.166 -36 -89.499 -36c-18 0 -34.167 3.16699 -48.5 9.5s-26.666 15.166 -36.999 26.499
s-18.166 24.666 -23.499 39.999s-7.66602 32 -6.99902 50h65zM216.995 398.002c-12 0 -21.834 -4.83203 -29.501 -14.499s-13.5 -21.834 -17.5 -36.501s-6.83301 -31 -8.5 -49s-2.5 -35.333 -2.5 -52c0 -20.667 1 -40.334 3 -59.001s5.16699 -35 9.5 -49
s10.333 -25.167 18 -33.5s17.5 -12.5 29.5 -12.5c10.667 0 19.5 4.66699 26.5 14s12.5 21.333 16.5 36s6.83301 31.167 8.5 49.5s2.5 36.5 2.5 54.5c0 16.667 -0.833008 34 -2.5 52s-4.5 34.333 -8.5 49s-9.66699 26.834 -17 36.501s-16.666 14.5 -27.999 14.5z
M217.994 498.003c58.667 0 104.17 -22.5 136.503 -67.5s48.5 -106.5 48.5 -184.5c0 -50.667 -6.33301 -92.5 -19 -125.5s-28.334 -59 -47.001 -78s-38.834 -32.167 -60.501 -39.5s-41.834 -11 -60.501 -11c-58.667 0 -104.5 21.833 -137.5 65.5s-49.5 105.5 -49.5 185.5
c0 44 5.33301 82 16 114s24.667 58.5 42 79.5s37.5 36.5 60.5 46.5s46.5 15 70.5 15z" />
    <glyph glyph-name="Ohungarumlaut" unicode="&#x150;" horiz-adv-x="481" 
d="M446 823l-92 -110h-73l57 110h108zM300 823l-92 -110h-73l57 110h108zM242 568c-26 0 -46 -20.3311 -60 -60.998s-21 -97.334 -21 -170.001c0 -154 27.333 -231 82 -231c14 0 25.833 6 35.5 18s17.667 28.5 24 49.5s10.833 46 13.5 75s4 60.5 4 94.5
c0 29.333 -1.16699 57.666 -3.5 84.999s-6.5 51.333 -12.5 72s-14 37.167 -24 49.5s-22.667 18.5 -38 18.5zM248 682.002c40.667 0 74.334 -10.168 101.001 -30.501s48 -46.5 64 -78.5s27.167 -67.667 33.5 -107s9.5 -78.333 9.5 -117
c0 -63.333 -5.33301 -117.666 -16 -162.999s-25.667 -82.333 -45 -111s-42.333 -49.667 -69 -63s-56 -20 -88 -20c-38 0 -70.5 9.33301 -97.5 28s-49 44 -66 76s-29.5 69 -37.5 111s-12 86 -12 132s4.66699 89.667 14 131s23.166 77.833 41.499 109.5s41.5 56.667 69.5 75
s60.667 27.5 98 27.5z" />
    <glyph glyph-name="ohungarumlaut" unicode="&#x151;" horiz-adv-x="431" 
d="M414 689l-100 -140h-67l72 140h95zM277 689l-101 -140h-67l73 140h95zM217 398c-12 0 -21.834 -4.83203 -29.501 -14.499s-13.5 -21.834 -17.5 -36.501s-6.83301 -31 -8.5 -49s-2.5 -35.333 -2.5 -52c0 -20.667 1 -40.334 3 -59.001s5.16699 -35 9.5 -49
s10.333 -25.167 18 -33.5s17.5 -12.5 29.5 -12.5c10.667 0 19.5 4.66699 26.5 14s12.5 21.333 16.5 36s6.83301 31.167 8.5 49.5s2.5 36.5 2.5 54.5c0 16.667 -0.833008 34 -2.5 52s-4.5 34.333 -8.5 49s-9.66699 26.834 -17 36.501s-16.666 14.5 -27.999 14.5z
M217.999 498.001c58.667 0 104.17 -22.5 136.503 -67.5s48.5 -106.5 48.5 -184.5c0 -50.667 -6.33301 -92.5 -19 -125.5s-28.334 -59 -47.001 -78s-38.834 -32.167 -60.501 -39.5s-41.834 -11 -60.501 -11c-58.667 0 -104.5 21.833 -137.5 65.5s-49.5 105.5 -49.5 185.5
c0 44 5.33301 82 16 114s24.667 58.5 42 79.5s37.5 36.5 60.5 46.5s46.5 15 70.5 15z" />
    <glyph glyph-name="OE" unicode="&#x152;" horiz-adv-x="650" 
d="M314 558c-5.33301 3.33301 -11.334 5.83203 -18.001 7.49902s-14.667 2.5 -24 2.5c-14.667 0 -28.667 -4.16699 -42 -12.5s-25.166 -21.666 -35.499 -39.999s-18.5 -42 -24.5 -71s-9 -63.833 -9 -104.5c-0.666992 -41.333 1.83301 -76.833 7.5 -106.5s13.667 -54 24 -73
s22.5 -32.833 36.5 -41.5s29.333 -13 46 -13c17.333 0 30.333 2.66699 39 8v444zM617.999 -0.000976562l-262.001 -0.00292969c-7.33301 0 -14.333 -0.333008 -21 -1s-13 -1.66699 -19 -3c-7.33301 -1.33301 -14.333 -2.33301 -21 -3s-13.667 -1 -21 -1
c-50 0 -91 9.83301 -123 29.5s-57.333 45.834 -76 78.501s-31.667 69.667 -39 111s-11 83.333 -11 126c0 46.667 4.83301 90.834 14.5 132.501s24.834 78.334 45.501 110.001s47.167 56.667 79.5 75s70.833 27.5 115.5 27.5c8 0 15.667 -0.333008 23 -1
s14.333 -1.66699 21 -3c7.33301 -1.33301 14 -2.33301 20 -3s11.667 -1 17 -1h246v-114h-162v-155h153v-109h-153v-182h173v-114z" />
    <glyph glyph-name="oe" unicode="&#x153;" horiz-adv-x="665" 
d="M519 288c0.666992 32 -3 58.833 -11 80.5s-21.333 32.5 -40 32.5c-11.333 0 -21 -3.5 -29 -10.5s-14.5 -16 -19.5 -27s-8.83301 -23.167 -11.5 -36.5s-4 -26.333 -4 -39h115zM217 398c-12.667 0 -22.834 -4.99902 -30.501 -14.999s-13.5 -22.5 -17.5 -37.5
s-6.66699 -31.667 -8 -50s-2 -35.5 -2 -51.5c0 -20.667 1 -40.167 3 -58.5s5.16699 -34.5 9.5 -48.5s10.333 -25 18 -33s17.167 -12 28.5 -12c12.667 0 22.834 4.5 30.501 13.5s13.5 20.667 17.5 35s6.66699 30.833 8 49.5s2 37.667 2 57c0 17.333 -0.833008 35 -2.5 53
s-4.66699 34.167 -9 48.5s-10.333 26.166 -18 35.499s-17.5 14 -29.5 14zM402 203.001c2.66699 -42 14.168 -71.001 34.501 -87.001s43.833 -24 70.5 -24c19.333 0 36.833 1.66699 52.5 5s29.5 7 41.5 11l17 -89c-19.333 -11.333 -40.333 -18.666 -63 -21.999
s-44.667 -5 -66 -5c-31.333 0 -60 6.16699 -86 18.5s-47 33.833 -63 64.5h-2c-14 -29.333 -33.667 -50.5 -59 -63.5s-50 -19.5 -74 -19.5c-26 0 -49.833 5.5 -71.5 16.5s-40.167 27.333 -55.5 49s-27.333 48 -36 79s-13 66.5 -13 106.5c0 44 5.33301 82 16 114
s24.667 58.5 42 79.5s37.166 36.5 59.499 46.5s45.5 15 69.5 15c25.333 0 49.333 -6.33301 72 -19s40.667 -33.667 54 -63h2c33.333 54.667 79 82 137 82c49.333 0 88 -20.5 116 -61.5s42 -97.833 42 -170.5c0 -30.667 -1 -51.667 -3 -63h-234z" />
    <glyph glyph-name="Racute" unicode="&#x154;" horiz-adv-x="470" 
d="M384 823l-122 -113h-93l82 113h133zM189 370h23.999c28.667 0 50.667 10 66 30s23 45 23 75c0 29.333 -6.16699 53 -18.5 71s-33.166 27.667 -62.499 29c-6 0 -12 -0.333008 -18 -1s-10.667 -1.66699 -14 -3v-201zM57.999 664c20.667 4 43.333 7.16797 68 9.50098
s49.667 3.5 75 3.5c36 0 69.667 -3.5 101 -10.5s57.666 -20.167 78.999 -39.5c20.667 -18.667 34.834 -39.334 42.501 -62.001s11.5 -48.667 11.5 -78c0 -36 -8.83301 -69.167 -26.5 -99.5s-43.5 -53.166 -77.5 -68.499v-2c23.333 -9.33301 41.166 -24.833 53.499 -46.5
s21.833 -50.834 28.5 -87.501l10.5 -56.5c3.66699 -19 7.5 -36.833 11.5 -53.5s7.83301 -31.5 11.5 -44.5s6.83398 -22.5 9.50098 -28.5h-137c-2 4.66699 -4.5 12.167 -7.5 22.5s-6 22.833 -9 37.5s-6 30.667 -9 48s-5.83301 35.333 -8.5 54
c-6 41.333 -14.833 69.5 -26.5 84.5s-28.167 22.5 -49.5 22.5h-20v-269h-131v664z" />
    <glyph glyph-name="racute" unicode="&#x155;" horiz-adv-x="294" 
d="M290 689l-101 -140h-82l68 140h115zM46 342c0 24 -0.333008 48.666 -1 73.999s-1.66699 49.666 -3 72.999h113l7 -71h4c10.667 26 25 45.833 43 59.5s35.667 20.5 53 20.5c7.33301 0 13 -0.166992 17 -0.5s7.66699 -1.16602 11 -2.49902v-129
c-4 0.666992 -8.33301 1 -13 1h-15c-14 0 -28.833 -5.16699 -44.5 -15.5s-27.167 -28.166 -34.5 -53.499c-2 -5.33301 -3.5 -12.333 -4.5 -21s-1.5 -18 -1.5 -28v-249h-131v342z" />
    <glyph glyph-name="Rcommaaccent" unicode="&#x156;" horiz-adv-x="470" 
d="M150 -164c12.667 3.33301 25.5 9.33203 38.5 17.999s19.5 19.667 19.5 33c0 12.667 -3.66699 24.5 -11 35.5s-14.333 19.5 -21 25.5l95 13c8.66699 -5.33301 17 -14.166 25 -26.499s12 -27.833 12 -46.5c0 -17.333 -3.66699 -32.5 -11 -45.5s-17.166 -24 -29.499 -33
s-26.833 -16 -43.5 -21s-34.334 -8.5 -53.001 -10.5zM189 369.999h23.999c28.667 0 50.667 10 66 30s23 45 23 75c0 29.333 -6.16699 53 -18.5 71s-33.166 27.667 -62.499 29c-6 0 -12 -0.333008 -18 -1s-10.667 -1.66699 -14 -3v-201zM57.999 663.999
c20.667 4 43.333 7.16797 68 9.50098s49.667 3.5 75 3.5c36 0 69.667 -3.5 101 -10.5s57.666 -20.167 78.999 -39.5c20.667 -18.667 34.834 -39.334 42.501 -62.001s11.5 -48.667 11.5 -78c0 -36 -8.83301 -69.167 -26.5 -99.5s-43.5 -53.166 -77.5 -68.499v-2
c23.333 -9.33301 41.166 -24.833 53.499 -46.5s21.833 -50.834 28.5 -87.501l10.5 -56.5c3.66699 -19 7.5 -36.833 11.5 -53.5s7.83301 -31.5 11.5 -44.5s6.83398 -22.5 9.50098 -28.5h-137c-2 4.66699 -4.5 12.167 -7.5 22.5s-6 22.833 -9 37.5s-6 30.667 -9 48
s-5.83301 35.333 -8.5 54c-6 41.333 -14.833 69.5 -26.5 84.5s-28.167 22.5 -49.5 22.5h-20v-269h-131v664z" />
    <glyph glyph-name="rcommaaccent" unicode="&#x157;" horiz-adv-x="294" 
d="M48 -166c12.667 3.33301 25.5 9.33203 38.5 17.999s19.5 19.667 19.5 33c0 12.667 -3.66699 24.5 -11 35.5s-14.333 19.5 -21 25.5l95 13c8.66699 -5.33301 17 -14.166 25 -26.499s12 -27.833 12 -46.5c0 -17.333 -3.66699 -32.5 -11 -45.5s-17.166 -24 -29.499 -33
s-26.833 -16 -43.5 -21s-34.334 -8.5 -53.001 -10.5zM46 341.999c0 24 -0.333008 48.666 -1 73.999s-1.66699 49.666 -3 72.999h113l7 -71h4c10.667 26 25 45.833 43 59.5s35.667 20.5 53 20.5c7.33301 0 13 -0.166992 17 -0.5s7.66699 -1.16602 11 -2.49902v-129
c-4 0.666992 -8.33301 1 -13 1h-15c-14 0 -28.833 -5.16699 -44.5 -15.5s-27.167 -28.166 -34.5 -53.499c-2 -5.33301 -3.5 -12.333 -4.5 -21s-1.5 -18 -1.5 -28v-249h-131v342z" />
    <glyph glyph-name="Rcaron" unicode="&#x158;" horiz-adv-x="470" 
d="M182 710l-84 110h96l39 -52h2l38 52h93l-81 -110h-103zM189 370h23.999c28.667 0 50.667 10 66 30s23 45 23 75c0 29.333 -6.16699 53 -18.5 71s-33.166 27.667 -62.499 29c-6 0 -12 -0.333008 -18 -1s-10.667 -1.66699 -14 -3v-201zM57.999 664
c20.667 4 43.333 7.16797 68 9.50098s49.667 3.5 75 3.5c36 0 69.667 -3.5 101 -10.5s57.666 -20.167 78.999 -39.5c20.667 -18.667 34.834 -39.334 42.501 -62.001s11.5 -48.667 11.5 -78c0 -36 -8.83301 -69.167 -26.5 -99.5s-43.5 -53.166 -77.5 -68.499v-2
c23.333 -9.33301 41.166 -24.833 53.499 -46.5s21.833 -50.834 28.5 -87.501l10.5 -56.5c3.66699 -19 7.5 -36.833 11.5 -53.5s7.83301 -31.5 11.5 -44.5s6.83398 -22.5 9.50098 -28.5h-137c-2 4.66699 -4.5 12.167 -7.5 22.5s-6 22.833 -9 37.5s-6 30.667 -9 48
s-5.83301 35.333 -8.5 54c-6 41.333 -14.833 69.5 -26.5 84.5s-28.167 22.5 -49.5 22.5h-20v-269h-131v664z" />
    <glyph glyph-name="rcaron" unicode="&#x159;" horiz-adv-x="294" 
d="M111 549l-85 140h89l42 -80h2l39 80h91l-86 -140h-92zM46 342c0 24 -0.333008 48.666 -1 73.999s-1.66699 49.666 -3 72.999h113l7 -71h4c10.667 26 25 45.833 43 59.5s35.667 20.5 53 20.5c7.33301 0 13 -0.166992 17 -0.5s7.66699 -1.16602 11 -2.49902v-129
c-4 0.666992 -8.33301 1 -13 1h-15c-14 0 -28.833 -5.16699 -44.5 -15.5s-27.167 -28.166 -34.5 -53.499c-2 -5.33301 -3.5 -12.333 -4.5 -21s-1.5 -18 -1.5 -28v-249h-131v342z" />
    <glyph glyph-name="Sacute" unicode="&#x15a;" horiz-adv-x="394" 
d="M357 823l-122 -113h-93l82 113h133zM43 134c13.333 -7.33301 30.498 -13.502 51.498 -18.502s40.833 -7.5 59.5 -7.5c30.667 0 53.667 7.16699 69 21.5s23 32.5 23 54.5c0 24.667 -7.33301 44.5 -22 59.5s-36.334 31.833 -65.001 50.5c-46 28 -78.667 58.667 -98 92
s-29 65.333 -29 96c0 27.333 4.5 53 13.5 77s22.333 45 40 63s39.834 32.167 66.501 42.5s57.334 15.5 92.001 15.5c22.667 0 43.667 -2.5 63 -7.5s33.666 -10.5 42.999 -16.5l-21 -113c-9.33301 6 -21.166 11.333 -35.499 16s-30.833 7 -49.5 7
c-28 0 -48.833 -7.16699 -62.5 -21.5s-20.5 -30.5 -20.5 -48.5c0 -10 1.5 -19 4.5 -27s8 -16 15 -24s16.333 -16.167 28 -24.5s26.5 -18.166 44.5 -29.499c45.333 -27.333 77 -57.333 95 -90s27 -67 27 -103c0 -30.667 -5.5 -58.5 -16.5 -83.5s-26.167 -46.5 -45.5 -64.5
s-42.666 -31.833 -69.999 -41.5s-57.333 -14.5 -90 -14.5c-27.333 0 -52.833 2.83301 -76.5 8.5s-41.167 11.834 -52.5 18.501z" />
    <glyph glyph-name="sacute" unicode="&#x15b;" horiz-adv-x="324" 
d="M301 689l-101 -140h-82l68 140h115zM42 118c9.33301 -6 22.1631 -11.835 38.4961 -17.502s32.833 -8.5 49.5 -8.5c35.333 0 53 14.667 53 44c0 12.667 -4.16699 23.667 -12.5 33s-23.166 20.333 -44.499 33c-39.333 22.667 -65.666 46.167 -78.999 70.5
s-20 47.833 -20 70.5c0 22 3.83301 42.5 11.5 61.5s18.5 35.333 32.5 49s30.833 24.5 50.5 32.5s41.834 12 66.501 12c20.667 0 39 -2.16699 55 -6.5s30.667 -9.83301 44 -16.5l-23 -96c-9.33301 5.33301 -19.666 10 -30.999 14s-23.666 6 -36.999 6
c-17.333 0 -29.833 -4.16699 -37.5 -12.5s-11.5 -18.166 -11.5 -29.499c0 -10.667 3.66699 -20.167 11 -28.5s22.666 -19.166 45.999 -32.499c36 -20.667 61.5 -43.5 76.5 -68.5s22.5 -51.5 22.5 -79.5c0 -24.667 -4.33301 -46.667 -13 -66s-20.667 -35.5 -36 -48.5
s-33.5 -22.833 -54.5 -29.5s-44.167 -10 -69.5 -10c-20.667 0 -41.5 2.5 -62.5 7.5s-37.167 11.833 -48.5 20.5z" />
    <glyph glyph-name="Scircumflex" unicode="&#x15c;" horiz-adv-x="394" 
d="M256 820l84 -110h-96l-39 52h-2l-38 -52h-93l82 110h102zM43 134c13.333 -7.33301 30.498 -13.502 51.498 -18.502s40.833 -7.5 59.5 -7.5c30.667 0 53.667 7.16699 69 21.5s23 32.5 23 54.5c0 24.667 -7.33301 44.5 -22 59.5s-36.334 31.833 -65.001 50.5
c-46 28 -78.667 58.667 -98 92s-29 65.333 -29 96c0 27.333 4.5 53 13.5 77s22.333 45 40 63s39.834 32.167 66.501 42.5s57.334 15.5 92.001 15.5c22.667 0 43.667 -2.5 63 -7.5s33.666 -10.5 42.999 -16.5l-21 -113c-9.33301 6 -21.166 11.333 -35.499 16
s-30.833 7 -49.5 7c-28 0 -48.833 -7.16699 -62.5 -21.5s-20.5 -30.5 -20.5 -48.5c0 -10 1.5 -19 4.5 -27s8 -16 15 -24s16.333 -16.167 28 -24.5s26.5 -18.166 44.5 -29.499c45.333 -27.333 77 -57.333 95 -90s27 -67 27 -103c0 -30.667 -5.5 -58.5 -16.5 -83.5
s-26.167 -46.5 -45.5 -64.5s-42.666 -31.833 -69.999 -41.5s-57.333 -14.5 -90 -14.5c-27.333 0 -52.833 2.83301 -76.5 8.5s-41.167 11.834 -52.5 18.501z" />
    <glyph glyph-name="scircumflex" unicode="&#x15d;" horiz-adv-x="324" 
d="M208 689l85 -140h-89l-41 80h-2l-39 -80h-91l86 140h91zM42 118c9.33301 -6 22.1631 -11.835 38.4961 -17.502s32.833 -8.5 49.5 -8.5c35.333 0 53 14.667 53 44c0 12.667 -4.16699 23.667 -12.5 33s-23.166 20.333 -44.499 33
c-39.333 22.667 -65.666 46.167 -78.999 70.5s-20 47.833 -20 70.5c0 22 3.83301 42.5 11.5 61.5s18.5 35.333 32.5 49s30.833 24.5 50.5 32.5s41.834 12 66.501 12c20.667 0 39 -2.16699 55 -6.5s30.667 -9.83301 44 -16.5l-23 -96c-9.33301 5.33301 -19.666 10 -30.999 14
s-23.666 6 -36.999 6c-17.333 0 -29.833 -4.16699 -37.5 -12.5s-11.5 -18.166 -11.5 -29.499c0 -10.667 3.66699 -20.167 11 -28.5s22.666 -19.166 45.999 -32.499c36 -20.667 61.5 -43.5 76.5 -68.5s22.5 -51.5 22.5 -79.5c0 -24.667 -4.33301 -46.667 -13 -66
s-20.667 -35.5 -36 -48.5s-33.5 -22.833 -54.5 -29.5s-44.167 -10 -69.5 -10c-20.667 0 -41.5 2.5 -62.5 7.5s-37.167 11.833 -48.5 20.5z" />
    <glyph glyph-name="Scedilla" unicode="&#x15e;" horiz-adv-x="394" 
d="M43 134c13.333 -7.33301 30.499 -13.501 51.499 -18.501s40.833 -7.5 59.5 -7.5c30.667 0 53.667 7.16699 69 21.5s23 32.5 23 54.5c0 24.667 -7.33301 44.5 -22 59.5s-36.334 31.833 -65.001 50.5c-46 28 -78.667 58.667 -98 92s-29 65.333 -29 96
c0 27.333 4.5 53 13.5 77s22.333 45 40 63s39.834 32.167 66.501 42.5s57.334 15.5 92.001 15.5c22.667 0 43.667 -2.5 63 -7.5s33.666 -10.5 42.999 -16.5l-21 -113c-9.33301 6 -21.166 11.333 -35.499 16s-30.833 7 -49.5 7c-28 0 -48.833 -7.16699 -62.5 -21.5
s-20.5 -30.5 -20.5 -48.5c0 -10 1.5 -19 4.5 -27s8 -16 15 -24s16.333 -16.167 28 -24.5s26.5 -18.166 44.5 -29.499c45.333 -27.333 77 -57.333 95 -90s27 -67 27 -103c0 -48.667 -13 -90 -39 -124s-61.333 -57.333 -106 -70l-24 -48
c17.333 -3.33301 32.833 -11.333 46.5 -24s20.5 -29 20.5 -49c0 -16 -3.16699 -29.5 -9.5 -40.5s-14.5 -20 -24.5 -27s-21.667 -12 -35 -15s-27 -4.5 -41 -4.5c-13.333 0 -26.833 1.66699 -40.5 5s-25.167 7.66602 -34.5 12.999l18 56c8.66699 -4 17.5 -7.33301 26.5 -10
s17.833 -4 26.5 -4c8 0 15.333 1.83301 22 5.5s10 10.167 10 19.5c0 20.667 -22.667 33 -68 37l33 76h-3c-27.333 0 -52.833 2.83301 -76.5 8.5s-41.167 11.834 -52.5 18.501z" />
    <glyph glyph-name="scedilla" unicode="&#x15f;" horiz-adv-x="324" 
d="M42 118c9.33301 -6 22.1621 -11.8359 38.4951 -17.5029s32.833 -8.5 49.5 -8.5c35.333 0 53 14.667 53 44c0 12.667 -4.16699 23.667 -12.5 33s-23.166 20.333 -44.499 33c-39.333 22.667 -65.666 46.167 -78.999 70.5s-20 47.833 -20 70.5c0 22 3.83301 42.5 11.5 61.5
s18.5 35.333 32.5 49s30.833 24.5 50.5 32.5s41.834 12 66.501 12c20.667 0 39 -2.16699 55 -6.5s30.667 -9.83301 44 -16.5l-23 -96c-9.33301 5.33301 -19.666 10 -30.999 14s-23.666 6 -36.999 6c-17.333 0 -29.833 -4.16699 -37.5 -12.5s-11.5 -18.166 -11.5 -29.499
c0 -10.667 3.66699 -20.167 11 -28.5s22.666 -19.166 45.999 -32.499c36 -20.667 61.5 -43.5 76.5 -68.5s22.5 -51.5 22.5 -79.5c0 -39.333 -9.83301 -71.166 -29.5 -95.499s-46.5 -41.166 -80.5 -50.499l-23 -46c17.333 -3.33301 32.833 -11.5 46.5 -24.5
s20.5 -29.167 20.5 -48.5c0 -16 -3.16699 -29.5 -9.5 -40.5s-14.5 -20 -24.5 -27s-21.667 -12 -35 -15s-27 -4.5 -41 -4.5c-13.333 0 -26.833 1.66699 -40.5 5s-25.167 7.66602 -34.5 12.999l18 56c8.66699 -4 17.5 -7.33301 26.5 -10s17.833 -4 26.5 -4
c8 0 15.333 1.83301 22 5.5s10 10.167 10 19.5c0 20.667 -22.667 33 -68 37l33 76h-2c-11.333 0 -26.666 2 -45.999 6s-37.333 11.333 -54 22z" />
    <glyph glyph-name="Scaron" unicode="&#x160;" horiz-adv-x="394" 
d="M159 710l-84 110h96l39 -52h2l38 52h93l-82 -110h-102zM43 134c13.333 -7.33301 30.498 -13.502 51.498 -18.502s40.833 -7.5 59.5 -7.5c30.667 0 53.667 7.16699 69 21.5s23 32.5 23 54.5c0 24.667 -7.33301 44.5 -22 59.5s-36.334 31.833 -65.001 50.5
c-46 28 -78.667 58.667 -98 92s-29 65.333 -29 96c0 27.333 4.5 53 13.5 77s22.333 45 40 63s39.834 32.167 66.501 42.5s57.334 15.5 92.001 15.5c22.667 0 43.667 -2.5 63 -7.5s33.666 -10.5 42.999 -16.5l-21 -113c-9.33301 6 -21.166 11.333 -35.499 16
s-30.833 7 -49.5 7c-28 0 -48.833 -7.16699 -62.5 -21.5s-20.5 -30.5 -20.5 -48.5c0 -10 1.5 -19 4.5 -27s8 -16 15 -24s16.333 -16.167 28 -24.5s26.5 -18.166 44.5 -29.499c45.333 -27.333 77 -57.333 95 -90s27 -67 27 -103c0 -30.667 -5.5 -58.5 -16.5 -83.5
s-26.167 -46.5 -45.5 -64.5s-42.666 -31.833 -69.999 -41.5s-57.333 -14.5 -90 -14.5c-27.333 0 -52.833 2.83301 -76.5 8.5s-41.167 11.834 -52.5 18.501z" />
    <glyph glyph-name="scaron" unicode="&#x161;" horiz-adv-x="324" 
d="M116 549l-85 140h89l41 -80h2l40 80h91l-86 -140h-92zM42 118c9.33301 -6 22.1631 -11.835 38.4961 -17.502s32.833 -8.5 49.5 -8.5c35.333 0 53 14.667 53 44c0 12.667 -4.16699 23.667 -12.5 33s-23.166 20.333 -44.499 33c-39.333 22.667 -65.666 46.167 -78.999 70.5
s-20 47.833 -20 70.5c0 22 3.83301 42.5 11.5 61.5s18.5 35.333 32.5 49s30.833 24.5 50.5 32.5s41.834 12 66.501 12c20.667 0 39 -2.16699 55 -6.5s30.667 -9.83301 44 -16.5l-23 -96c-9.33301 5.33301 -19.666 10 -30.999 14s-23.666 6 -36.999 6
c-17.333 0 -29.833 -4.16699 -37.5 -12.5s-11.5 -18.166 -11.5 -29.499c0 -10.667 3.66699 -20.167 11 -28.5s22.666 -19.166 45.999 -32.499c36 -20.667 61.5 -43.5 76.5 -68.5s22.5 -51.5 22.5 -79.5c0 -24.667 -4.33301 -46.667 -13 -66s-20.667 -35.5 -36 -48.5
s-33.5 -22.833 -54.5 -29.5s-44.167 -10 -69.5 -10c-20.667 0 -41.5 2.5 -62.5 7.5s-37.167 11.833 -48.5 20.5z" />
    <glyph glyph-name="Tcommaaccent" unicode="&#x162;" horiz-adv-x="393" 
d="M110 -166c12.667 3.33301 25.5 9.33203 38.5 17.999s19.5 19.667 19.5 33c0 12.667 -3.66699 24.5 -11 35.5s-14.333 19.5 -21 25.5l95 13c8.66699 -5.33301 17 -14.166 25 -26.499s12 -27.833 12 -46.5c0 -17.333 -3.66699 -32.5 -11 -45.5s-17.166 -24 -29.499 -33
s-26.833 -16 -43.5 -21s-34.334 -8.5 -53.001 -10.5zM131 552.999h-119v121h370v-121h-120v-553h-131v553z" />
    <glyph glyph-name="tcommaaccent" unicode="&#x163;" horiz-adv-x="311" 
d="M76 -166c12.667 3.33301 25.5 9.33203 38.5 17.999s19.5 19.667 19.5 33c0 12.667 -3.66699 24.5 -11 35.5s-14.333 19.5 -21 25.5l95 13c8.66699 -5.33301 17 -14.166 25 -26.499s12 -27.833 12 -46.5c0 -17.333 -3.66699 -32.5 -11 -45.5s-17.166 -24 -29.499 -33
s-26.833 -16 -43.5 -21s-34.334 -8.5 -53.001 -10.5zM200 615.999l-0.00195312 -127h96v-93h-96v-223c0 -28.667 5 -47.667 15 -57s21.333 -14 34 -14c11.333 0 23 1 35 3l1 -102c-9.33301 -2.66699 -20.666 -4.83398 -33.999 -6.50098s-28.666 -2.5 -45.999 -2.5
c-19.333 0 -37 2.33301 -53 7s-30 12.667 -42 24c-13.333 13.333 -23.5 30.333 -30.5 51s-10.5 50.334 -10.5 89.001v231h-58v93h58v86z" />
    <glyph glyph-name="Tcaron" unicode="&#x164;" horiz-adv-x="393" 
d="M146 710l-84 110h96l39 -52h2l38 52h93l-81 -110h-103zM131 553h-119v121h370v-121h-120v-553h-131v553z" />
    <glyph glyph-name="tcaron" unicode="&#x165;" horiz-adv-x="321" 
d="M262 576c7.33301 8 14.167 19.334 20.5 34.001s9.5 30.667 9.5 48c0 13.333 -2.33301 25.5 -7 36.5s-9.66699 19.5 -15 25.5l88 11c7.33301 -5.33301 14.833 -13.333 22.5 -24s11.5 -25.334 11.5 -44.001c0 -16 -2.83301 -30.667 -8.5 -44s-12.5 -25 -20.5 -35
s-16 -18.5 -24 -25.5s-14.667 -12.167 -20 -15.5zM200.001 616.001l-0.00195312 -127h96v-93h-96v-223c0 -28.667 5 -47.667 15 -57s21.667 -14 35 -14c12 0 23.333 1 34 3l1 -102c-9.33301 -2.66699 -20.666 -4.83398 -33.999 -6.50098s-28.666 -2.5 -45.999 -2.5
c-19.333 0 -37 2.33301 -53 7s-30 12.667 -42 24c-13.333 13.333 -23.5 30.333 -30.5 51s-10.5 50.334 -10.5 89.001v231h-58v93h58v86z" />
    <glyph glyph-name="Tbar" unicode="&#x166;" horiz-adv-x="393" 
d="M262 553v-162h80v-90h-80v-301h-131v301h-80v90h80v162h-119v121h370v-121h-120z" />
    <glyph glyph-name="tbar" unicode="&#x167;" horiz-adv-x="311" 
d="M200 396l-0.00195312 -70h74v-82h-74v-71c0 -28.667 5 -47.667 15 -57s21.333 -14 34 -14c11.333 0 23 1 35 3l1 -102c-9.33301 -2.66699 -20.666 -4.83398 -33.999 -6.50098s-28.666 -2.5 -45.999 -2.5c-19.333 0 -37 2.33301 -53 7s-30 12.667 -42 24
c-13.333 13.333 -23.5 30.333 -30.5 51s-10.5 50.334 -10.5 89.001v79h-56v82h56v70h-58v93h58v86l131 41v-127h96v-93h-96z" />
    <glyph glyph-name="Utilde" unicode="&#x168;" horiz-adv-x="500" 
d="M131 718c-1.33301 37.333 4.16895 65.833 16.502 85.5s28.833 29.5 49.5 29.5c11.333 0 21.166 -1.66699 29.499 -5s16.166 -7.33301 23.499 -12s14 -8.66699 20 -12s11.667 -5 17 -5c7.33301 0 12.666 2.66699 15.999 8s6 15.333 8 30h58
c1.33301 -42 -4 -71.667 -16 -89s-29.667 -26 -53 -26c-11.333 0 -21.333 1.5 -30 4.5s-16.667 6.83301 -24 11.5l-19 10.5c-5.33301 3 -10.666 4.5 -15.999 4.5c-12 0 -19 -11.667 -21 -35h-59zM185.002 674l0.000976562 -438.001c0 -24.667 1.66699 -45.334 5 -62.001
s8 -30 14 -40s12.833 -17 20.5 -21s15.834 -6 24.501 -6c9.33301 0 18 2 26 6s14.833 10.833 20.5 20.5s10.167 22.834 13.5 39.501s5 37.667 5 63v438h131v-415c0 -87.333 -16.333 -153.666 -49 -198.999s-81.334 -68 -146.001 -68c-35.333 0 -65.333 6 -90 18
s-44.834 29.333 -60.501 52s-27.167 50.5 -34.5 83.5s-11 70.5 -11 112.5v416h131z" />
    <glyph glyph-name="utilde" unicode="&#x169;" horiz-adv-x="452" 
d="M104 557c0 32 5.83105 59.502 17.498 82.502s29.5 34.5 53.5 34.5c12.667 0 23.5 -2 32.5 -6l24.5 -11l18.5 -11c5.66699 -3.33301 11.834 -5 18.501 -5s12 2.16699 16 6.5s6 14.5 6 30.5h58c0 -40 -6.33301 -69 -19 -87s-29.667 -27 -51 -27
c-10 0 -19.5 1.66699 -28.5 5s-17.167 6.66602 -24.5 9.99902c-8 4 -14.667 7.83301 -20 11.5s-11.666 5.5 -18.999 5.5c-6.66699 0 -12.167 -3.33301 -16.5 -10s-6.5 -16.334 -6.5 -29.001h-60zM403.998 149.002c0 -26 0.333008 -51.5 1 -76.5s1.66699 -49.167 3 -72.5
h-113l-7 52h-2c-11.333 -16.667 -26.833 -30.834 -46.5 -42.501s-42.167 -17.5 -67.5 -17.5c-46.667 0 -80 16.833 -100 50.5s-30 83.834 -30 150.501v296h131v-282c0 -32 3.66699 -57.5 11 -76.5s20 -28.5 38 -28.5c11.333 0 20.5 3.5 27.5 10.5s12.167 14.5 15.5 22.5
c5.33301 10.667 8 24.667 8 42v312h131v-340z" />
    <glyph glyph-name="Umacron" unicode="&#x16a;" horiz-adv-x="500" 
d="M367 815v-79h-235v79h235zM185 674l0.000976562 -438.001c0 -24.667 1.66699 -45.334 5 -62.001s8 -30 14 -40s12.833 -17 20.5 -21s15.834 -6 24.501 -6c9.33301 0 18 2 26 6s14.833 10.833 20.5 20.5s10.167 22.834 13.5 39.501s5 37.667 5 63v438h131v-415
c0 -87.333 -16.333 -153.666 -49 -198.999s-81.334 -68 -146.001 -68c-35.333 0 -65.333 6 -90 18s-44.834 29.333 -60.501 52s-27.167 50.5 -34.5 83.5s-11 70.5 -11 112.5v416h131z" />
    <glyph glyph-name="umacron" unicode="&#x16b;" horiz-adv-x="452" 
d="M332 656v-75h-212v75h212zM404 149c0 -26 0.333008 -51.5 1 -76.5s1.66699 -49.167 3 -72.5h-113l-7 52h-2c-11.333 -16.667 -26.833 -30.834 -46.5 -42.501s-42.167 -17.5 -67.5 -17.5c-46.667 0 -80 16.833 -100 50.5s-30 83.834 -30 150.501v296h131v-282
c0 -32 3.66699 -57.5 11 -76.5s20 -28.5 38 -28.5c11.333 0 20.5 3.5 27.5 10.5s12.167 14.5 15.5 22.5c5.33301 10.667 8 24.667 8 42v312h131v-340z" />
    <glyph glyph-name="Ubreve" unicode="&#x16c;" horiz-adv-x="500" 
d="M198 823c0.666992 -13.333 5.5 -24.001 14.5 -32.001s21.167 -12 36.5 -12s27.333 4 36 12s13.667 18.667 15 32h70c0 -35.333 -10 -63.666 -30 -84.999s-50 -32 -90 -32c-41.333 0 -72 10.5 -92 31.5s-30 49.5 -30 85.5h70zM185 673.999l0.000976562 -438.001
c0 -24.667 1.66699 -45.334 5 -62.001s8 -30 14 -40s12.833 -17 20.5 -21s15.834 -6 24.501 -6c9.33301 0 18 2 26 6s14.833 10.833 20.5 20.5s10.167 22.834 13.5 39.501s5 37.667 5 63v438h131v-415c0 -87.333 -16.333 -153.666 -49 -198.999s-81.334 -68 -146.001 -68
c-35.333 0 -65.333 6 -90 18s-44.834 29.333 -60.501 52s-27.167 50.5 -34.5 83.5s-11 70.5 -11 112.5v416h131z" />
    <glyph glyph-name="ubreve" unicode="&#x16d;" horiz-adv-x="452" 
d="M173 679c1.33301 -17.333 6.82812 -30.498 16.4951 -39.498s21.834 -13.5 36.501 -13.5c18 0 31.667 5.33301 41 16s14 23 14 37h64c1.33301 -36 -9.16699 -66 -31.5 -90s-52.166 -36 -89.499 -36c-18 0 -34.167 3.16699 -48.5 9.5s-26.666 15.166 -36.999 26.499
s-18.166 24.666 -23.499 39.999s-7.66602 32 -6.99902 50h65zM403.995 149.002c0 -26 0.333008 -51.5 1 -76.5s1.66699 -49.167 3 -72.5h-113l-7 52h-2c-11.333 -16.667 -26.833 -30.834 -46.5 -42.501s-42.167 -17.5 -67.5 -17.5c-46.667 0 -80 16.833 -100 50.5
s-30 83.834 -30 150.501v296h131v-282c0 -32 3.66699 -57.5 11 -76.5s20 -28.5 38 -28.5c11.333 0 20.5 3.5 27.5 10.5s12.167 14.5 15.5 22.5c5.33301 10.667 8 24.667 8 42v312h131v-340z" />
    <glyph glyph-name="Uring" unicode="&#x16e;" horiz-adv-x="500" 
d="M248 830c-13.333 0 -22.668 -4.99902 -28.001 -14.999s-8 -20.333 -8 -31c0 -10 2.83301 -19.667 8.5 -29s15.167 -14 28.5 -14c14.667 0 24.834 4.5 30.501 13.5s8.5 19.167 8.5 30.5s-3 21.666 -9 30.999s-16.333 14 -31 14zM251.998 877.001
c18.667 0 34.502 -2.50098 47.502 -7.50098s23.667 -11.667 32 -20s14.5 -18 18.5 -29s6 -22.5 6 -34.5c0 -24 -8.5 -45.5 -25.5 -64.5s-43.5 -28.5 -79.5 -28.5c-18.667 0 -34.834 2.5 -48.501 7.5s-24.834 11.833 -33.501 20.5s-15 18.334 -19 29.001s-6 21.667 -6 33
c0 12 2.16699 23.5 6.5 34.5s11 21 20 30s20.167 16.167 33.5 21.5s29.333 8 48 8zM185 674l0.000976562 -438.001c0 -24.667 1.66699 -45.334 5 -62.001s8 -30 14 -40s12.833 -17 20.5 -21s15.834 -6 24.501 -6c9.33301 0 18 2 26 6s14.833 10.833 20.5 20.5
s10.167 22.834 13.5 39.501s5 37.667 5 63v438h131v-415c0 -87.333 -16.333 -153.666 -49 -198.999s-81.334 -68 -146.001 -68c-35.333 0 -65.333 6 -90 18s-44.834 29.333 -60.501 52s-27.167 50.5 -34.5 83.5s-11 70.5 -11 112.5v416h131z" />
    <glyph glyph-name="uring" unicode="&#x16f;" horiz-adv-x="452" 
d="M226 582c16 0 26.8311 5.33301 32.498 16s8.5 21.334 8.5 32.001c0 11.333 -2.66699 22.166 -8 32.499s-16.666 15.5 -33.999 15.5c-15.333 0 -25.666 -5.5 -30.999 -16.5s-8 -22.167 -8 -33.5c0 -8.66699 2.83301 -18.5 8.5 -29.5s16.167 -16.5 31.5 -16.5zM226.998 539
c-34 0 -59.666 8.5 -76.999 25.5s-26 37.833 -26 62.5c0 26 8.33301 48.167 25 66.5s43 27.5 79 27.5c34 0 59.333 -8.5 76 -25.5s25 -38.833 25 -65.5c0 -25.333 -8.83301 -46.833 -26.5 -64.5s-42.834 -26.5 -75.501 -26.5zM403.999 149c0 -26 0.333008 -51.5 1 -76.5
s1.66699 -49.167 3 -72.5h-113l-7 52h-2c-11.333 -16.667 -26.833 -30.834 -46.5 -42.501s-42.167 -17.5 -67.5 -17.5c-46.667 0 -80 16.833 -100 50.5s-30 83.834 -30 150.501v296h131v-282c0 -32 3.66699 -57.5 11 -76.5s20 -28.5 38 -28.5c11.333 0 20.5 3.5 27.5 10.5
s12.167 14.5 15.5 22.5c5.33301 10.667 8 24.667 8 42v312h131v-340z" />
    <glyph glyph-name="Uhungarumlaut" unicode="&#x170;" horiz-adv-x="500" 
d="M446 823l-92 -110h-73l57 110h108zM300 823l-92 -110h-73l57 110h108zM185 674l0.000976562 -438.001c0 -24.667 1.66699 -45.334 5 -62.001s8 -30 14 -40s12.833 -17 20.5 -21s15.834 -6 24.501 -6c9.33301 0 18 2 26 6s14.833 10.833 20.5 20.5
s10.167 22.834 13.5 39.501s5 37.667 5 63v438h131v-415c0 -87.333 -16.333 -153.666 -49 -198.999s-81.334 -68 -146.001 -68c-35.333 0 -65.333 6 -90 18s-44.834 29.333 -60.501 52s-27.167 50.5 -34.5 83.5s-11 70.5 -11 112.5v416h131z" />
    <glyph glyph-name="uhungarumlaut" unicode="&#x171;" horiz-adv-x="452" 
d="M425 689l-100 -140h-67l72 140h95zM288 689l-101 -140h-67l72 140h96zM404 149c0 -26 0.333008 -51.5 1 -76.5s1.66699 -49.167 3 -72.5h-113l-7 52h-2c-11.333 -16.667 -26.833 -30.834 -46.5 -42.501s-42.167 -17.5 -67.5 -17.5c-46.667 0 -80 16.833 -100 50.5
s-30 83.834 -30 150.501v296h131v-282c0 -32 3.66699 -57.5 11 -76.5s20 -28.5 38 -28.5c11.333 0 20.5 3.5 27.5 10.5s12.167 14.5 15.5 22.5c5.33301 10.667 8 24.667 8 42v312h131v-340z" />
    <glyph glyph-name="Uogonek" unicode="&#x172;" horiz-adv-x="500" 
d="M369 -177c-14.667 -9.33301 -29.6699 -16 -45.0029 -20s-29.666 -6 -42.999 -6c-32.667 0 -57 8 -73 24s-24 36.333 -24 61c0 23.333 5.33301 44.666 16 63.999s20.667 35.333 30 48c-3.33301 0 -6 0.333008 -8 1c-59.333 5.33301 -102.166 30.5 -128.499 75.5
s-39.5 107.5 -39.5 187.5v416h131v-438c0 -24.667 1.66699 -45.334 5 -62.001s8 -30 14 -40s13 -17 21 -21s16.333 -6 25 -6c9.33301 0 17.833 2 25.5 6s14.334 10.833 20.001 20.5s10.167 22.834 13.5 39.501s5 37.667 5 63v438h131v-415
c0 -68.667 -10.167 -124.667 -30.5 -168s-51.833 -71.666 -94.5 -84.999c-13.333 -13.333 -24.333 -28 -33 -44s-13 -30.667 -13 -44s3.5 -22.833 10.5 -28.5s15.5 -8.5 25.5 -8.5c16 0 30.333 2.66699 43 8z" />
    <glyph glyph-name="uogonek" unicode="&#x173;" horiz-adv-x="452" 
d="M404 149c0 -26 0.499023 -51.668 1.49902 -77.001s2.16699 -49.333 3.5 -72h-34c-7.33301 -12 -13.333 -25 -18 -39s-7 -27.667 -7 -41c0 -12 3.83301 -22 11.5 -30s17.167 -12 28.5 -12c17.333 0 30.333 2 39 6l16 -66c-14.667 -10.667 -29.667 -17.5 -45 -20.5
s-29.666 -4.5 -42.999 -4.5c-32.667 0 -57 8.83301 -73 26.5s-24 40.834 -24 69.501c0 24.667 4.5 47 13.5 67s16.167 34.667 21.5 44l-7 52h-2c-11.333 -16.667 -26.833 -30.834 -46.5 -42.501s-42.167 -17.5 -67.5 -17.5c-46.667 0 -80 16.833 -100 50.5
s-30 83.834 -30 150.501v296h131v-282c0 -32 3.66699 -57.5 11 -76.5s20 -28.5 38 -28.5c11.333 0 20.5 3.5 27.5 10.5s12.167 14.5 15.5 22.5c5.33301 10.667 8 24.667 8 42v312h131v-340z" />
    <glyph glyph-name="Wcircumflex" unicode="&#x174;" horiz-adv-x="679" 
d="M397 820l84 -110h-96l-39 52h-2l-38 -52h-93l81 110h103zM128 0l-115.001 674.003h136l33 -269c4.66699 -38.667 8.66699 -77.334 12 -116.001s7 -78.667 11 -120h3c4.66699 42 10.334 81.833 17.001 119.5l21 117.5l48 268h106l45 -266l17.5 -115
c5.66699 -38.667 10.5 -80 14.5 -124h2l13 122.5c4 37.667 8.33301 76.167 13 115.5l33 267h128l-119 -674h-135l-40 221c-5.33301 31.333 -10.5 65.666 -15.5 102.999s-9.83301 76.666 -14.5 117.999h-2l-17.5 -116.5c-5.66699 -37 -12.167 -72.167 -19.5 -105.5l-45 -220
h-130z" />
    <glyph glyph-name="wcircumflex" unicode="&#x175;" horiz-adv-x="616" 
d="M354 689l85 -140h-89l-40 80h-2l-40 -80h-91l87 140h90zM146 489l26 -210.001l9.5 -77.5c3 -24.333 5.5 -48.166 7.5 -71.499h3c3.33301 23.333 7.33301 47.833 12 73.5s9.66699 50.167 15 73.5l43 212h101l41 -207l14.5 -79c4.33301 -24.667 8.16602 -49 11.499 -73h2
c2 23.333 4.5 47.666 7.5 72.999l9.5 78l30 208h130l-126 -489h-112l-36 171c-5.33301 22.667 -10 46.834 -14 72.501s-7.66699 52.5 -11 80.5h-2c-3.33301 -28.667 -7.66602 -55.667 -12.999 -81l-16 -73l-41 -170h-113l-120 489h141z" />
    <glyph glyph-name="Ycircumflex" unicode="&#x176;" horiz-adv-x="402" 
d="M252 820l84 -110h-96l-39 52h-2l-38 -52h-93l81 110h103zM133 0v257.998l-148 416h140l45 -161c6.66699 -21.333 13 -44.166 19 -68.499s11.667 -49.166 17 -74.499h2c4 24.667 8.66699 49.167 14 73.5s11 48.5 17 72.5l40 158h136l-151 -411v-263h-131z" />
    <glyph glyph-name="ycircumflex" unicode="&#x177;" horiz-adv-x="391" 
d="M245 689l85 -140h-89l-41 80h-2l-39 -80h-91l86 140h91zM145 489l47.9971 -255c3.33301 -14.667 6 -28.667 8 -42l6 -40h2l6 39.5l6 40.5l40 257h129l-100 -378c-12 -46 -26.5 -91.167 -43.5 -135.5s-38.833 -82.166 -65.5 -113.499
c-21.333 -24.667 -42.666 -43 -63.999 -55s-37 -19.333 -47 -22l-40 113c22.667 8.66699 44.334 22 65.001 40c9.33301 8.66699 17.333 18 24 28s12.334 20.333 17.001 31c2 4 3.66699 7.66699 5 11s2 6.66602 2 9.99902s-0.333008 6.33301 -1 9s-1.66699 5.66699 -3 9
l-135 453h141z" />
    <glyph glyph-name="Ydieresis" unicode="&#x178;" horiz-adv-x="402" 
d="M296 712c-16 0 -29.832 6.16699 -41.499 18.5s-17.5 27.5 -17.5 45.5c0 17.333 6 32.166 18 44.499s26 18.5 42 18.5s29.833 -6.16699 41.5 -18.5s17.5 -27.166 17.5 -44.499c0 -18 -5.83301 -33.167 -17.5 -45.5s-25.834 -18.5 -42.501 -18.5zM112.001 712
c-15.333 0 -28.832 6.16699 -40.499 18.5s-17.5 27.5 -17.5 45.5c0 17.333 6 32.166 18 44.499s25.667 18.5 41 18.5c16 0 29.833 -6.16699 41.5 -18.5s17.5 -27.166 17.5 -44.499c0 -18 -5.83301 -33.167 -17.5 -45.5s-25.834 -18.5 -42.501 -18.5zM133.002 0v257.998
l-148 416h140l45 -161c6.66699 -21.333 13 -44.166 19 -68.499s11.667 -49.166 17 -74.499h2c4 24.667 8.66699 49.167 14 73.5s11 48.5 17 72.5l40 158h136l-151 -411v-263h-131z" />
    <glyph glyph-name="Zacute" unicode="&#x179;" horiz-adv-x="387" 
d="M356 823l-122 -113h-93l82 113h133zM11 77l214 480v3h-194v114h341v-97l-204 -460v-3h203v-114h-360v77z" />
    <glyph glyph-name="zacute" unicode="&#x17a;" horiz-adv-x="351" 
d="M316 689l-101 -140h-82l68 140h115zM18 82l120 218l25 42.5l21 36.5v3h-151v107h293v-89l-117 -210c-8 -14.667 -16.333 -29.167 -25 -43.5s-15.667 -26.5 -21 -36.5v-3h168v-107h-313v82z" />
    <glyph glyph-name="Zdotaccent" unicode="&#x17b;" horiz-adv-x="387" 
d="M204 713c-16.667 0 -30.999 6.33301 -42.999 19s-18 27.667 -18 45c0 18 6.16699 33.167 18.5 45.5s26.833 18.5 43.5 18.5c17.333 0 32.166 -6.16699 44.499 -18.5s18.5 -27.5 18.5 -45.5c0 -17.333 -6.16699 -32.333 -18.5 -45s-27.5 -19 -45.5 -19zM11.001 77l214 480
v3h-194v114h341v-97l-204 -460v-3h203v-114h-360v77z" />
    <glyph glyph-name="zdotaccent" unicode="&#x17c;" horiz-adv-x="351" 
d="M175 560c-16 0 -29.832 6 -41.499 18s-17.5 27.333 -17.5 46s6 34 18 46s26 18 42 18c17.333 0 31.666 -5.83301 42.999 -17.5s17 -27.167 17 -46.5c0 -18.667 -5.66699 -34 -17 -46s-26 -18 -44 -18zM18.001 82l120 218l25 42.5l21 36.5v3h-151v107h293v-89l-117 -210
c-8 -14.667 -16.333 -29.167 -25 -43.5s-15.667 -26.5 -21 -36.5v-3h168v-107h-313v82z" />
    <glyph glyph-name="Zcaron" unicode="&#x17d;" horiz-adv-x="387" 
d="M152 710l-84 110h96l39 -52h2l38 52h93l-81 -110h-103zM11 77l214 480v3h-194v114h341v-97l-204 -460v-3h203v-114h-360v77z" />
    <glyph glyph-name="zcaron" unicode="&#x17e;" horiz-adv-x="351" 
d="M140 549l-85 140h89l40 -80h2l41 80h91l-87 -140h-91zM18 82l120 218l25 42.5l21 36.5v3h-151v107h293v-89l-117 -210c-8 -14.667 -16.333 -29.167 -25 -43.5s-15.667 -26.5 -21 -36.5v-3h168v-107h-313v82z" />
    <glyph glyph-name="florin" unicode="&#x192;" horiz-adv-x="426" 
d="M76 402h71.999l4 46c2.66699 30 8.5 57.667 17.5 83s21.5 47.5 37.5 66.5s35.333 33.833 58 44.5s49 16 79 16c12.667 0 24.5 -1.16699 35.5 -3.5s20.167 -5.16602 27.5 -8.49902l-17 -97c-12 4 -25 6 -39 6c-23.333 0 -40.666 -10 -51.999 -30s-18.666 -45 -21.999 -75
l-5 -48h91v-101h-98l-18 -185c-2.66699 -26.667 -7.16699 -51.834 -13.5 -75.501s-16 -44.5 -29 -62.5s-29.833 -32.167 -50.5 -42.5s-46.667 -15.5 -78 -15.5c-13.333 0 -26.333 1.33301 -39 4s-23.334 6.66699 -32.001 12l18 93c6 -2 12.5 -3.66699 19.5 -5
s13.167 -2 18.5 -2c14 0 26.833 6.5 38.5 19.5s19.5 39.5 23.5 79.5l18 180h-65v101z" />
    <glyph glyph-name="Ohorn" unicode="&#x1a0;" horiz-adv-x="481" 
d="M474 739c6 -11.333 11 -24.002 15 -38.002s6 -29.667 6 -47c0 -26.667 -6.33301 -48.5 -19 -65.5s-31.667 -27.833 -57 -32.5c10.667 -23.333 19.5 -51.666 26.5 -84.999s10.5 -74 10.5 -122c0 -63.333 -5.33301 -117.666 -16 -162.999s-25.667 -82.333 -45 -111
s-42.5 -49.667 -69.5 -63s-56.5 -20 -88.5 -20c-38 0 -70.333 9.33301 -97 28s-48.5 44 -65.5 76s-29.5 69 -37.5 111s-12 86 -12 132s4.5 89.667 13.5 131s22.833 77.833 41.5 109.5s41.834 56.667 69.501 75s60.167 27.5 97.5 27.5c11.333 0 24.166 -1.33301 38.499 -4
s28.166 -7 41.499 -13c16.667 -8.66699 29 -16.167 37 -22.5s15 -9.5 21 -9.5c12.667 0 18.334 8 17.001 24c0 12 -2.16699 23.833 -6.5 35.5s-8.83301 22.5 -13.5 32.5zM243 105.998c14 0 25.8301 6.00098 35.4971 18.001s17.5 28.5 23.5 49.5s10.333 46 13 75
s4 60.5 4 94.5c0 29.333 -1.16699 57.666 -3.5 84.999s-6.5 51.333 -12.5 72s-14 37.167 -24 49.5s-22.333 18.5 -37 18.5s-27.167 -6.16699 -37.5 -18.5s-18.666 -29 -24.999 -50s-11 -45.167 -14 -72.5s-4.5 -56.333 -4.5 -87c-0.666992 -33.333 0.5 -64.333 3.5 -93
s7.83301 -53.5 14.5 -74.5s15.334 -37.333 26.001 -49s23.334 -17.5 38.001 -17.5z" />
    <glyph glyph-name="ohorn" unicode="&#x1a1;" horiz-adv-x="431" 
d="M424 569c5.33301 -10.667 10.1699 -23.333 14.5029 -38s6.5 -31 6.5 -49c0 -48.667 -23.333 -78.667 -70 -90c8 -17.333 14.667 -38.333 20 -63s8 -52.334 8 -83.001c0 -50.667 -6.33301 -92.5 -19 -125.5s-28.334 -59 -47.001 -78s-38.834 -32.167 -60.501 -39.5
s-41.834 -11 -60.501 -11c-58.667 0 -104.5 21.833 -137.5 65.5s-49.5 105.5 -49.5 185.5c0 44 5.33301 82 16 114s24.667 58.5 42 79.5s37.5 36.5 60.5 46.5s46.5 15 70.5 15c12.667 0 24.5 -1.33301 35.5 -4s20.833 -5.66699 29.5 -9
c8 -3.33301 16.167 -7.16602 24.5 -11.499s16.5 -6.5 24.5 -6.5c6 0 10.833 2.16699 14.5 6.5s5.16699 11.166 4.5 20.499c0 10.667 -1.83301 21.334 -5.5 32.001s-8.16699 21 -13.5 31zM217.004 398.001c-12 0 -21.833 -4.83105 -29.5 -14.498s-13.5 -21.834 -17.5 -36.501
s-6.83301 -31 -8.5 -49s-2.5 -35.333 -2.5 -52c0 -20.667 1 -40.334 3 -59.001s5.16699 -35 9.5 -49s10.333 -25.167 18 -33.5s17.5 -12.5 29.5 -12.5c10.667 0 19.5 4.66699 26.5 14s12.5 21.333 16.5 36s6.66699 31 8 49s2 36 2 54c0 17.333 -0.833008 34.833 -2.5 52.5
s-4.5 34 -8.5 49s-9.5 27.333 -16.5 37s-16.167 14.5 -27.5 14.5z" />
    <glyph glyph-name="Uhorn" unicode="&#x1af;" horiz-adv-x="529" 
d="M515 776c13.333 -25.333 20 -53.668 20 -85.001c0 -26 -6.66699 -47 -20 -63s-33 -25.667 -59 -29l-11 -1v-339c0 -87.333 -16.333 -153.666 -49 -198.999s-81.334 -68 -146.001 -68c-35.333 0 -65.333 6 -90 18s-44.834 29.333 -60.501 52s-27.167 50.5 -34.5 83.5
s-11 70.5 -11 112.5v416h131v-438c0 -24.667 1.66699 -45.334 5 -62.001s8 -30 14 -40s12.833 -17 20.5 -21s15.834 -6 24.501 -6c9.33301 0 18 2 26 6s14.833 10.833 20.5 20.5s10.167 22.834 13.5 39.501s5 37.667 5 63v438h94c11.333 0 19.833 1.66699 25.5 5
s8.5 11 8.5 23c0 10.667 -1.66699 21.5 -5 32.5s-7.66602 21.167 -12.999 30.5z" />
    <glyph glyph-name="uhorn" unicode="&#x1b0;" horiz-adv-x="452" 
d="M462 592c13.333 -25.333 20 -53.002 20 -83.002c0 -25.333 -6.5 -45.166 -19.5 -59.499s-30.833 -23.166 -53.5 -26.499l-5 -1v-273c0 -26 0.333008 -51.667 1 -77s1.66699 -49.333 3 -72h-113l-7 51h-2c-11.333 -16.667 -26.833 -30.667 -46.5 -42
s-42.167 -17 -67.5 -17c-46.667 0 -80 16.833 -100 50.5s-30 83.5 -30 149.5v297h131v-282c0 -32 3.66699 -57.667 11 -77s20 -28.666 38 -27.999c11.333 0 20.5 3.5 27.5 10.5s12.167 14.5 15.5 22.5c5.33301 10.667 8 24.667 8 42v312h85c11.333 0 19.333 2 24 6
s7 11.333 7 22c0 10 -1.83301 20.667 -5.5 32s-8.16699 21.666 -13.5 30.999z" />
    <glyph glyph-name="Aringacute" unicode="&#x1fa;" horiz-adv-x="458" 
d="M275 256l-23 140.999c-2 10 -3.83301 21.667 -5.5 35s-3.5 26.833 -5.5 40.5l-6 41c-2 13.667 -3.66699 25.834 -5 36.501h-3c-2 -11.333 -4 -23.833 -6 -37.5l-6 -41.5l-6 -40s-4 -24 -6 -34l-25 -141h97zM165 153.999l-30 -154h-127l146 674h158l131 -674h-128l-29 154
h-121zM424 958.999l-147 -91h-95l107 91h135zM237 733.999c14.667 0 24.833 3.83301 30.5 11.5s8.5 16.167 8.5 25.5c0 8 -2.83301 16 -8.5 24s-16.167 12 -31.5 12c-14 0 -23.667 -4 -29 -12s-8 -16.333 -8 -25c0 -8 2.83301 -16 8.5 -24s15.5 -12 29.5 -12z
M237.999 689.999c-18 0 -33.1689 2.33398 -45.502 7.00098s-22.5 10.667 -30.5 18s-13.833 15.666 -17.5 24.999s-5.5 19 -5.5 29s2 19.833 6 29.5s10.167 18.334 18.5 26.001s18.833 14 31.5 19s27.334 7.5 44.001 7.5c17.333 0 32.166 -2.33301 44.499 -7
s22.333 -10.667 30 -18s13.334 -16 17.001 -26s5.5 -20 5.5 -30s-1.83301 -19.667 -5.5 -29s-9.5 -17.833 -17.5 -25.5s-18.167 -13.834 -30.5 -18.501s-27.166 -7 -44.499 -7z" />
    <glyph glyph-name="aringacute" unicode="&#x1fb;" horiz-adv-x="422" 
d="M212 565c16.667 0 27.832 5.33301 33.499 16s8.5 21.334 8.5 32.001c0 11.333 -2.83301 22.166 -8.5 32.499s-17.167 15.5 -34.5 15.5c-14.667 0 -24.667 -5.5 -30 -16.5s-8 -22.167 -8 -33.5c0 -8.66699 2.83301 -18.5 8.5 -29.5s15.834 -16.5 30.501 -16.5z
M213.998 522c-34 0 -59.666 8.5 -76.999 25.5s-26 37.833 -26 62.5c0 26 8.33301 48.167 25 66.5s43 27.5 79 27.5c34 0 59.333 -8.5 76 -25.5s25 -38.833 25 -65.5c0 -25.333 -8.83301 -46.833 -26.5 -64.5s-42.834 -26.5 -75.501 -26.5zM245.999 238
c-10.667 0 -22 -1.33398 -34 -4.00098s-23.167 -7 -33.5 -13s-18.833 -14.333 -25.5 -25s-10 -24.667 -10 -42c0 -24 5.33301 -41 16 -51s21 -15 31 -15c11.333 0 22 3.33301 32 10s17.333 17.334 22 32.001c2 6 3 13.667 3 23zM375.999 111.999
c0 -19.333 0.499023 -38.667 1.49902 -58s2.5 -37.333 4.5 -54h-117l-7 48h-2c-27.333 -37.333 -63.333 -56 -108 -56c-18.667 0 -35.834 3.66699 -51.501 11s-29.167 17.5 -40.5 30.5s-20.333 28.667 -27 47s-10 38.166 -10 59.499c0 32 6.5 59.5 19.5 82.5
s30 41.833 51 56.5s44.833 25.5 71.5 32.5s54 10.5 82 10.5v11c0 19.333 -5.66699 35.333 -17 48s-28.666 19 -51.999 19c-19.333 0 -37 -2.5 -53 -7.5s-31.333 -12.167 -46 -21.5l-24 89c13.333 7.33301 33.333 15.333 60 24s57.334 13 92.001 13
c37.333 0 67.333 -6 90 -18s40.167 -27.5 52.5 -46.5s20.5 -40.667 24.5 -65s6 -49.166 6 -74.499v-181zM363.998 825.998l-118 -99h-83l86 99h115z" />
    </font>
</defs>
</svg>
